<svg xmlns="http://www.w3.org/2000/svg" style="position:absolute;"><g fill="none" stroke="black" stroke-width="2"><polyline points="401.717,479.015 397.985,478.921 " admin_lvl="4"/><polyline points="397.814,43.888 396.825,44.875 " admin_lvl="4"/><polyline points="282.511,98.792 280.739,99.210 " admin_lvl="4"/><polyline points="467.576,439.614 466.615,439.595 464.393,439.088 " admin_lvl="4"/><polyline points="223.025,142.023 222.801,142.301 " admin_lvl="4"/><polyline points="315.405,84.512 314.931,87.609 " admin_lvl="4"/><polyline points="463.034,91.771 463.133,91.974 463.434,92.553 " admin_lvl="4"/><polyline points="212.466,81.505 212.197,80.998 " admin_lvl="4"/><polyline points="189.224,203.802 187.268,205.159 184.878,206.711 " admin_lvl="4"/><polyline points="220.578,131.861 218.556,133.365 " admin_lvl="4"/><polyline points="86.584,376.879 86.545,376.561 86.616,375.915 " admin_lvl="2"/><polyline points="467.756,128.413 465.671,131.921 466.064,133.473 " admin_lvl="4"/><polyline points="327.962,84.693 331.539,84.481 " admin_lvl="4"/><polyline points="491.643,296.670 491.119,296.819 490.734,296.427 " admin_lvl="4"/><polyline points="226.523,444.777 219.488,449.669 217.888,453.730 218.567,454.173 " admin_lvl="2"/><polyline points="470.210,396.519 468.868,397.825 468.806,398.228 " admin_lvl="4"/><polyline points="197.272,188.337 195.470,192.748 195.000,195.782 " admin_lvl="4"/><polyline points="481.560,168.007 482.947,167.777 484.645,168.554 " admin_lvl="4"/><polyline points="213.501,83.726 213.512,84.794 " admin_lvl="4"/><polyline points="143.881,256.302 144.654,255.490 145.148,253.566 " admin_lvl="2"/><polyline points="370.585,44.687 374.934,42.242 376.240,42.861 " admin_lvl="4"/><polyline points="250.371,461.297 251.117,460.500 251.120,460.409 250.573,457.816 " admin_lvl="2"/><polyline points="463.087,409.869 464.712,411.551 " admin_lvl="4"/><polyline points="455.749,311.113 454.280,312.010 " admin_lvl="4"/><polyline points="470.374,395.439 470.316,395.465 470.191,396.444 470.210,396.519 " admin_lvl="4"/><polyline points="311.712,94.942 309.309,94.446 308.855,94.885 " admin_lvl="4"/><polyline points="191.597,202.029 190.932,202.548 " admin_lvl="4"/><polyline points="222.979,111.180 224.634,111.425 225.719,112.058 " admin_lvl="4"/><polyline points="516.608,253.715 518.638,253.699 " admin_lvl="4"/><polyline points="184.353,205.913 184.878,206.711 " admin_lvl="2"/><polyline points="523.061,260.645 522.638,262.620 520.334,265.286 519.859,265.741 519.823,265.803 " admin_lvl="4"/><polyline points="464.190,367.164 464.381,368.230 465.789,371.055 " admin_lvl="4"/><polyline points="359.666,65.739 360.211,65.071 " admin_lvl="4"/><polyline points="465.930,111.292 466.131,111.620 470.777,115.146 " admin_lvl="4"/><polyline points="224.545,118.000 224.461,118.502 224.425,118.524 " admin_lvl="4"/><polyline points="211.954,150.032 210.536,150.882 210.000,151.275 209.569,151.674 " admin_lvl="4"/><polyline points="238.135,439.478 236.422,440.055 234.287,441.336 236.587,443.667 " admin_lvl="2"/><polyline points="235.708,95.783 234.044,95.867 " admin_lvl="4"/><polyline points="466.537,413.447 465.793,415.047 466.399,416.289 " admin_lvl="4"/><polyline points="511.333,204.911 510.461,206.026 " admin_lvl="4"/><polyline points="213.414,91.622 213.553,91.878 " admin_lvl="4"/><polyline points="449.700,330.113 450.045,330.742 450.217,330.903 " admin_lvl="4"/><polyline points="292.113,108.217 292.671,108.786 288.799,111.307 " admin_lvl="4"/><polyline points="484.303,298.948 485.831,300.597 484.347,302.274 " admin_lvl="4"/><polyline points="461.520,307.892 455.318,308.361 " admin_lvl="4"/><polyline points="81.917,451.302 81.274,449.758 81.010,449.031 " admin_lvl="2"/><polyline points="488.611,188.845 487.509,191.432 488.604,191.839 497.500,194.289 " admin_lvl="4"/><polyline points="310.795,86.693 310.699,86.761 " admin_lvl="4"/><polyline points="285.119,103.058 285.108,102.952 285.006,99.376 " admin_lvl="4"/><polyline points="315.480,92.370 315.711,96.447 " admin_lvl="4"/><polyline points="219.607,143.600 219.118,143.888 216.825,146.635 " admin_lvl="4"/><polyline points="460.892,470.022 455.254,464.478 454.377,462.784 " admin_lvl="4"/><polyline points="130.669,482.250 127.327,483.467 " admin_lvl="2"/><polyline points="496.078,279.390 495.636,279.215 " admin_lvl="4"/><polyline points="467.200,404.877 466.216,405.063 " admin_lvl="4"/><polyline points="212.180,87.663 212.645,90.283 213.414,91.622 " admin_lvl="4"/><polyline points="323.496,466.797 323.055,466.474 322.375,466.483 " admin_lvl="2"/><polyline points="194.915,196.140 194.825,196.516 " admin_lvl="4"/><polyline points="194.512,197.524 194.112,198.516 " admin_lvl="4"/><polyline points="88.356,482.021 88.918,480.623 88.948,480.432 88.958,480.291 " admin_lvl="2"/><polyline points="86.616,375.915 86.990,375.160 88.400,374.229 89.612,373.214 " admin_lvl="2"/><polyline points="217.023,107.865 216.717,108.132 216.313,108.815 " admin_lvl="4"/><polyline points="216.243,109.481 219.870,111.362 " admin_lvl="4"/><polyline points="218.523,103.920 219.473,106.544 219.403,106.674 " admin_lvl="4"/><polyline points="87.258,420.390 87.446,418.963 87.434,418.872 " admin_lvl="2"/><polyline points="87.381,414.025 87.485,413.761 89.495,411.220 90.085,410.617 " admin_lvl="2"/><polyline points="87.434,418.872 87.418,418.711 87.227,417.164 87.093,415.994 " admin_lvl="2"/><polyline points="80.334,457.030 81.978,451.436 81.917,451.302 " admin_lvl="2"/><polyline points="77.171,459.436 77.690,458.976 80.334,457.030 " admin_lvl="2"/><polyline points="81.010,449.031 80.864,448.687 80.740,448.410 " admin_lvl="2"/><polyline points="79.982,446.663 79.486,444.898 79.861,442.279 81.115,439.375 " admin_lvl="2"/><polyline points="80.740,448.410 80.574,448.131 79.982,446.663 " admin_lvl="2"/><polyline points="81.115,439.375 81.750,437.818 81.872,437.462 " admin_lvl="2"/><polyline points="90.050,398.465 89.343,397.708 " admin_lvl="2"/><polyline points="85.309,392.919 85.943,390.482 86.008,388.036 " admin_lvl="2"/><polyline points="86.008,388.036 85.390,383.762 85.782,382.248 " admin_lvl="2"/><polyline points="86.643,380.670 86.766,380.326 86.928,378.596 " admin_lvl="2"/><polyline points="86.928,378.596 86.584,376.879 " admin_lvl="2"/><polyline points="134.367,266.620 135.627,265.258 138.700,261.942 " admin_lvl="2"/><polyline points="132.589,268.083 134.256,266.733 134.367,266.620 " admin_lvl="2"/><polyline points="93.789,364.116 95.383,361.260 " admin_lvl="2"/><polyline points="115.611,301.628 116.613,300.995 117.069,300.767 " admin_lvl="2"/><polyline points="89.612,373.214 89.864,369.217 90.411,367.991 " admin_lvl="2"/><polyline points="83.340,425.276 83.544,424.209 87.258,420.390 " admin_lvl="2"/><polyline points="110.014,320.347 110.568,318.667 111.712,316.080 " admin_lvl="2"/><polyline points="112.991,313.213 113.380,312.332 113.100,313.060 " admin_lvl="2"/><polyline points="84.459,429.591 84.439,429.472 83.409,426.820 83.334,425.792 " admin_lvl="2"/><polyline points="83.334,425.792 83.327,425.514 83.340,425.276 " admin_lvl="2"/><polyline points="115.008,307.165 115.156,302.250 115.402,301.836 115.553,301.674 " admin_lvl="2"/><polyline points="95.567,360.839 95.914,360.043 96.250,359.249 " admin_lvl="2"/><polyline points="90.085,410.617 91.967,408.348 " admin_lvl="2"/><polyline points="87.093,415.994 87.144,414.936 87.177,414.751 87.381,414.025 " admin_lvl="2"/><polyline points="88.958,480.291 88.948,479.806 86.082,476.632 85.043,473.583 " admin_lvl="2"/><polyline points="85.043,473.583 79.889,469.365 78.621,467.903 " admin_lvl="2"/><polyline points="78.621,467.903 77.228,461.660 76.804,460.115 77.171,459.436 " admin_lvl="2"/><polyline points="96.250,359.249 96.377,358.957 99.981,355.688 " admin_lvl="2"/><polyline points="101.968,349.183 102.145,348.510 " admin_lvl="2"/><polyline points="102.145,348.510 103.358,343.896 104.747,338.839 110.536,336.107 " admin_lvl="2"/><polyline points="253.090,76.857 253.110,76.519 " admin_lvl="4"/><polyline points="224.447,119.604 219.559,122.997 219.508,124.368 225.062,122.191 " admin_lvl="4"/><polyline points="225.062,122.191 225.000,125.595 224.299,127.653 223.969,128.310 " admin_lvl="4"/><polyline points="209.044,152.242 208.370,153.234 207.844,154.739 " admin_lvl="4"/><polyline points="213.845,486.432 213.576,486.304 212.449,485.911 " admin_lvl="2"/><polyline points="468.046,399.629 467.351,403.029 467.234,404.047 " admin_lvl="4"/><polyline points="242.780,444.018 242.745,444.006 242.638,444.020 " admin_lvl="2"/><polyline points="242.823,444.298 242.818,444.243 242.780,444.018 " admin_lvl="2"/><polyline points="429.823,75.150 429.676,75.633 430.096,76.348 " admin_lvl="4"/><polyline points="434.868,86.863 434.711,87.251 438.074,89.216 " admin_lvl="4"/><polyline points="425.348,63.945 423.347,67.046 424.117,67.747 " admin_lvl="4"/><polyline points="438.728,92.378 439.051,92.745 438.635,94.890 " admin_lvl="4"/><polyline points="439.820,103.225 441.727,103.688 " admin_lvl="4"/><polyline points="444.950,103.155 445.429,102.988 " admin_lvl="4"/><polyline points="446.216,103.254 446.004,103.608 446.246,103.826 " admin_lvl="4"/><polyline points="456.880,95.221 455.762,93.996 457.718,93.280 " admin_lvl="4"/><polyline points="253.730,75.257 253.403,75.357 247.234,76.015 " admin_lvl="4"/><polyline points="254.490,79.422 254.374,79.423 " admin_lvl="4"/><polyline points="253.976,76.030 253.488,76.009 253.247,76.117 " admin_lvl="4"/><polyline points="252.351,79.344 252.226,79.312 " admin_lvl="4"/><polyline points="423.760,58.966 424.142,58.870 425.184,61.717 425.348,63.945 " admin_lvl="4"/><polyline points="396.481,481.225 396.740,481.732 396.747,481.779 " admin_lvl="4"/><polyline points="406.563,54.591 406.620,54.641 " admin_lvl="4"/><polyline points="396.365,50.014 394.466,53.614 396.213,55.275 " admin_lvl="4"/><polyline points="419.756,53.810 422.221,57.492 422.973,57.866 " admin_lvl="4"/><polyline points="397.183,47.271 395.779,49.471 396.365,50.014 " admin_lvl="4"/><polyline points="259.183,461.452 259.130,459.989 259.207,459.702 259.670,458.255 259.706,458.174 259.794,457.715 " admin_lvl="2"/><polyline points="269.377,464.937 267.945,464.759 261.459,461.795 259.183,461.452 " admin_lvl="2"/><polyline points="257.627,461.862 257.209,462.043 257.044,462.076 255.216,461.616 " admin_lvl="2"/><polyline points="249.513,462.835 249.385,462.353 248.802,461.880 " admin_lvl="2"/><polyline points="469.100,158.297 469.121,158.564 " admin_lvl="4"/><polyline points="468.222,145.436 466.993,148.418 469.831,149.727 " admin_lvl="4"/><polyline points="227.554,88.973 225.755,87.130 225.602,86.977 224.852,86.158 224.269,85.421 " admin_lvl="4"/><polyline points="392.191,483.971 392.067,484.038 " admin_lvl="4"/><polyline points="234.044,95.867 233.013,95.374 229.240,91.133 228.949,90.413 228.739,90.196 " admin_lvl="4"/><polyline points="307.274,96.667 298.817,99.338 " admin_lvl="4"/><polyline points="294.094,99.440 293.157,99.192 292.755,98.947 " admin_lvl="4"/><polyline points="292.755,98.947 290.198,105.479 289.984,105.790 " admin_lvl="4"/><polyline points="409.759,477.405 409.288,478.304 " admin_lvl="4"/><polyline points="466.174,417.958 465.799,423.368 465.915,423.386 " admin_lvl="4"/><polyline points="461.649,426.584 461.662,426.716 462.428,428.853 " admin_lvl="4"/><polyline points="467.028,452.384 469.802,458.651 470.431,458.795 470.908,459.261 " admin_lvl="4"/><polyline points="445.523,469.199 445.207,469.296 444.941,469.334 " admin_lvl="4"/><polyline points="431.845,465.235 424.913,465.447 423.559,468.874 419.867,470.977 " admin_lvl="4"/><polyline points="424.117,67.747 424.855,69.109 425.004,70.086 428.422,72.256 429.823,75.150 " admin_lvl="4"/><polyline points="422.927,87.790 422.207,88.221 421.525,88.533 421.745,88.842 " admin_lvl="4"/><polyline points="425.750,86.096 425.077,86.466 424.086,87.155 " admin_lvl="4"/><polyline points="424.086,87.155 422.927,87.790 " admin_lvl="4"/><polyline points="409.182,62.558 412.426,60.905 412.594,60.506 419.756,53.810 " admin_lvl="4"/><polyline points="277.743,463.767 281.244,460.916 281.316,460.538 280.936,459.238 " admin_lvl="2"/><polyline points="383.832,44.213 384.919,43.537 395.367,42.438 " admin_lvl="4"/><polyline points="376.240,42.861 382.059,46.894 383.146,50.375 383.832,44.213 " admin_lvl="4"/><polyline points="463.434,92.553 463.314,93.901 462.255,96.849 " admin_lvl="4"/><polyline points="138.700,261.942 141.170,259.246 143.881,256.302 " admin_lvl="2"/><polyline points="112.596,491.145 110.359,491.416 109.852,491.438 108.802,491.515 108.695,491.534 " admin_lvl="2"/><polyline points="120.824,288.045 120.338,285.477 " admin_lvl="2"/><polyline points="120.338,285.477 120.073,283.179 121.007,281.077 " admin_lvl="2"/><polyline points="123.754,277.259 124.336,276.400 " admin_lvl="2"/><polyline points="469.927,134.448 469.847,139.917 471.444,141.739 473.430,143.873 " admin_lvl="4"/><polyline points="466.064,133.473 467.097,134.089 467.667,134.198 468.203,134.998 " admin_lvl="4"/><polyline points="468.203,134.998 468.210,134.999 469.114,135.039 469.927,134.448 " admin_lvl="4"/><polyline points="467.977,150.536 468.125,150.644 469.075,154.452 " admin_lvl="4"/><polyline points="469.121,158.564 469.556,160.783 475.007,164.015 475.497,164.392 " admin_lvl="4"/><polyline points="475.497,164.392 478.166,165.468 478.197,166.073 " admin_lvl="4"/><polyline points="486.128,185.164 488.580,185.936 488.664,186.002 " admin_lvl="4"/><polyline points="120.839,288.533 120.824,288.045 " admin_lvl="2"/><polyline points="120.652,291.261 120.706,291.030 " admin_lvl="2"/><polyline points="120.616,293.397 120.546,292.006 " admin_lvl="2"/><polyline points="120.239,298.403 120.519,297.884 121.008,295.865 120.616,293.397 " admin_lvl="2"/><polyline points="334.601,83.913 335.254,83.849 336.047,83.696 " admin_lvl="4"/><polyline points="333.597,84.272 333.630,84.248 334.601,83.913 " admin_lvl="4"/><polyline points="345.647,69.013 345.926,69.069 346.318,69.162 346.562,69.196 " admin_lvl="4"/><polyline points="343.414,71.739 343.496,71.429 344.672,70.635 345.647,69.013 " admin_lvl="4"/><polyline points="344.372,51.983 347.966,49.323 348.380,46.130 " admin_lvl="4"/><polyline points="346.562,69.196 354.751,68.722 357.482,71.398 " admin_lvl="4"/><polyline points="352.837,53.588 349.838,53.388 349.676,53.527 344.372,51.983 " admin_lvl="4"/><polyline points="362.315,62.748 362.403,62.675 " admin_lvl="4"/><polyline points="353.552,59.173 355.244,53.972 354.410,53.723 352.837,53.588 " admin_lvl="4"/><polyline points="118.972,299.845 120.054,298.712 120.239,298.403 " admin_lvl="2"/><polyline points="117.069,300.767 117.858,300.419 118.756,299.980 " admin_lvl="2"/><polyline points="355.212,44.195 355.505,44.160 " admin_lvl="4"/><polyline points="364.957,42.400 365.282,42.620 367.647,45.802 " admin_lvl="4"/><polyline points="360.843,44.485 361.862,43.352 362.649,42.599 364.957,42.400 " admin_lvl="4"/><polyline points="115.553,301.674 115.611,301.628 " admin_lvl="2"/><polyline points="355.751,59.258 353.906,59.204 353.552,59.173 " admin_lvl="4"/><polyline points="361.561,56.579 361.415,56.469 " admin_lvl="4"/><polyline points="358.132,45.929 358.574,45.960 360.843,44.485 " admin_lvl="4"/><polyline points="394.803,60.117 394.914,60.643 405.346,55.542 406.563,54.591 " admin_lvl="4"/><polyline points="421.745,88.842 426.730,90.485 431.263,84.269 " admin_lvl="4"/><polyline points="438.074,89.216 438.627,90.220 438.142,90.082 438.728,92.378 " admin_lvl="4"/><polyline points="446.246,103.826 455.870,98.878 457.901,97.869 457.490,95.744 456.880,95.221 " admin_lvl="4"/><polyline points="357.482,71.398 357.698,71.397 360.792,70.888 " admin_lvl="4"/><polyline points="339.239,80.047 341.640,75.755 " admin_lvl="4"/><polyline points="337.787,81.227 338.402,81.184 " admin_lvl="4"/><polyline points="224.425,118.524 224.423,119.175 " admin_lvl="4"/><polyline points="224.423,119.175 224.447,119.554 224.447,119.598 " admin_lvl="4"/><polyline points="503.649,269.186 503.471,269.134 " admin_lvl="4"/><polyline points="308.855,94.885 308.840,94.955 308.806,95.288 " admin_lvl="4"/><polyline points="312.756,80.001 315.247,83.883 " admin_lvl="4"/><polyline points="111.783,333.028 111.741,332.847 " admin_lvl="2"/><polyline points="111.712,316.080 112.389,314.532 112.991,313.213 " admin_lvl="2"/><polyline points="118.756,299.980 118.972,299.845 " admin_lvl="2"/><polyline points="113.100,313.060 114.150,310.631 114.953,307.613 115.008,307.165 " admin_lvl="2"/><polyline points="282.258,116.816 281.101,117.344 280.892,117.498 " admin_lvl="4"/><polyline points="288.799,111.307 286.396,112.413 285.598,111.076 " admin_lvl="4"/><polyline points="240.913,83.239 241.671,87.104 242.510,91.914 " admin_lvl="4"/><polyline points="265.001,97.045 262.852,95.900 261.020,95.367 255.749,90.652 " admin_lvl="4"/><polyline points="273.206,99.667 273.044,95.053 272.313,95.182 " admin_lvl="4"/><polyline points="218.556,133.365 217.515,135.448 223.361,140.728 " admin_lvl="4"/><polyline points="223.969,128.310 222.503,130.258 220.902,131.662 220.578,131.861 " admin_lvl="4"/><polyline points="242.510,91.914 241.567,92.457 241.260,93.002 241.196,94.345 " admin_lvl="4"/><polyline points="277.794,103.264 279.432,104.499 282.634,105.672 283.192,105.149 284.648,103.335 284.961,103.116 285.119,103.058 " admin_lvl="4"/><polyline points="274.119,105.930 276.239,104.741 277.794,103.264 " admin_lvl="4"/><polyline points="270.207,117.809 271.097,117.826 274.756,115.029 275.016,114.524 274.866,109.027 " admin_lvl="4"/><polyline points="276.312,100.314 275.711,100.852 273.206,99.667 " admin_lvl="4"/><polyline points="252.522,82.069 254.059,81.729 " admin_lvl="4"/><polyline points="252.094,78.893 250.989,78.338 250.876,77.330 250.374,77.456 " admin_lvl="4"/><polyline points="239.162,78.618 238.413,79.103 " admin_lvl="4"/><polyline points="216.744,102.069 216.786,102.122 217.993,103.298 218.442,103.826 " admin_lvl="4"/><polyline points="216.319,101.355 216.421,101.589 216.485,101.708 216.744,102.069 " admin_lvl="4"/><polyline points="472.804,119.741 474.199,120.884 469.796,122.622 468.733,122.431 " admin_lvl="4"/><polyline points="470.777,115.146 471.374,115.682 471.445,115.735 472.490,118.170 472.804,119.741 " admin_lvl="4"/><polyline points="505.941,199.339 506.667,200.075 507.198,201.781 " admin_lvl="4"/><polyline points="484.645,168.554 484.691,169.085 487.125,170.445 487.456,171.098 487.872,171.589 487.959,171.741 488.607,174.202 " admin_lvl="4"/><polyline points="488.607,174.202 486.016,175.344 486.213,175.486 485.564,175.865 482.090,178.048 " admin_lvl="4"/><polyline points="469.831,149.727 469.440,149.863 469.481,149.962 467.977,150.536 " admin_lvl="4"/><polyline points="473.430,143.873 473.195,143.798 470.613,147.112 " admin_lvl="4"/><polyline points="497.500,194.289 498.577,194.938 498.620,194.892 " admin_lvl="4"/><polyline points="224.269,85.421 216.515,82.024 213.748,83.156 " admin_lvl="4"/><polyline points="255.749,90.652 252.724,84.987 252.218,84.913 " admin_lvl="4"/><polyline points="270.625,95.424 270.602,95.440 265.935,96.424 " admin_lvl="4"/><polyline points="265.935,96.424 265.588,96.710 265.001,97.045 " admin_lvl="4"/><polyline points="239.625,77.724 239.087,78.060 239.153,78.583 239.162,78.618 " admin_lvl="4"/><polyline points="278.294,120.562 275.232,118.544 270.207,117.809 " admin_lvl="4"/><polyline points="274.866,109.027 274.864,108.966 274.874,108.845 " admin_lvl="4"/><polyline points="283.056,116.501 282.437,116.738 282.258,116.816 " admin_lvl="4"/><polyline points="499.384,194.079 502.485,194.898 502.573,195.652 505.941,199.339 " admin_lvl="4"/><polyline points="513.785,208.536 514.944,210.988 " admin_lvl="4"/><polyline points="514.085,231.658 514.076,232.048 " admin_lvl="4"/><polyline points="517.407,221.783 518.095,222.524 517.045,224.512 " admin_lvl="4"/><polyline points="510.659,206.688 510.690,206.687 " admin_lvl="4"/><polyline points="509.208,202.195 511.818,204.329 " admin_lvl="4"/><polyline points="517.207,233.696 517.303,234.144 517.145,238.058 " admin_lvl="4"/><polyline points="510.690,206.687 512.516,206.295 512.978,208.072 " admin_lvl="4"/><polyline points="517.145,238.058 516.764,238.212 " admin_lvl="4"/><polyline points="216.825,146.635 215.769,147.701 211.954,150.032 " admin_lvl="4"/><polyline points="207.238,162.743 206.827,163.515 206.713,163.699 " admin_lvl="4"/><polyline points="204.533,177.047 203.965,179.714 " admin_lvl="4"/><polyline points="205.584,168.495 205.877,169.923 205.673,171.072 " admin_lvl="4"/><polyline points="517.045,224.512 517.354,224.825 517.905,225.305 " admin_lvl="4"/><polyline points="110.430,327.480 109.835,321.176 110.014,320.347 " admin_lvl="2"/><polyline points="111.120,330.307 110.430,327.480 " admin_lvl="2"/><polyline points="203.965,179.714 203.883,180.001 203.817,180.213 " admin_lvl="4"/><polyline points="201.901,183.062 201.265,183.753 " admin_lvl="4"/><polyline points="206.713,163.699 206.613,163.880 205.183,166.691 205.584,168.495 " admin_lvl="4"/><polyline points="195.000,195.782 194.995,195.807 194.920,196.120 194.915,196.140 " admin_lvl="4"/><polyline points="209.569,151.674 209.534,151.709 209.044,152.242 " admin_lvl="4"/><polyline points="162.537,240.124 162.721,239.942 162.957,239.704 " admin_lvl="2"/><polyline points="167.218,229.772 167.921,227.786 " admin_lvl="2"/><polyline points="194.690,196.982 194.635,197.155 " admin_lvl="4"/><polyline points="208.476,156.070 207.745,160.587 207.637,160.710 " admin_lvl="4"/><polyline points="193.878,199.015 192.956,200.576 191.597,202.029 " admin_lvl="4"/><polyline points="175.156,215.274 175.270,215.144 " admin_lvl="2"/><polyline points="190.932,202.548 190.613,202.790 189.224,203.802 " admin_lvl="4"/><polyline points="207.637,160.710 207.322,162.421 207.238,162.743 " admin_lvl="4"/><polyline points="165.851,234.686 165.921,234.267 " admin_lvl="2"/><polyline points="205.255,173.183 205.185,173.557 " admin_lvl="4"/><polyline points="174.267,216.328 174.855,215.599 175.156,215.274 " admin_lvl="2"/><polyline points="488.808,264.926 488.565,266.311 488.902,268.642 " admin_lvl="4"/><polyline points="496.100,283.575 496.796,286.079 496.982,287.223 " admin_lvl="4"/><polyline points="494.632,279.601 494.665,279.825 494.220,281.577 494.559,282.300 496.100,283.575 " admin_lvl="4"/><polyline points="488.902,268.642 490.432,269.634 490.505,269.914 490.238,270.555 " admin_lvl="4"/><polyline points="495.283,262.431 495.580,262.544 490.939,262.842 " admin_lvl="4"/><polyline points="490.734,296.427 489.679,296.008 487.164,297.801 " admin_lvl="4"/><polyline points="81.872,437.462 81.950,437.131 81.954,437.119 84.525,430.342 84.459,429.591 " admin_lvl="2"/><polyline points="165.921,234.267 166.132,233.343 166.293,232.556 166.986,230.429 167.218,229.772 " admin_lvl="2"/><polyline points="168.426,226.485 170.156,222.675 " admin_lvl="2"/><polyline points="459.333,351.945 461.692,357.998 462.737,358.835 462.608,360.457 " admin_lvl="4"/><polyline points="455.704,338.914 456.314,340.827 457.415,341.633 459.928,345.096 " admin_lvl="4"/><polyline points="477.195,306.082 477.611,306.599 " admin_lvl="4"/><polyline points="462.608,360.457 462.578,360.698 " admin_lvl="4"/><polyline points="482.680,302.310 481.747,302.759 " admin_lvl="4"/><polyline points="456.234,314.039 453.022,316.022 452.638,316.311 " admin_lvl="4"/><polyline points="452.996,335.007 454.268,337.024 455.704,338.914 " admin_lvl="4"/><polyline points="459.928,345.096 459.558,346.568 459.860,347.626 459.925,349.024 " admin_lvl="4"/><polyline points="462.821,362.382 463.175,363.806 " admin_lvl="4"/><polyline points="463.175,363.806 463.554,365.774 464.190,367.164 " admin_lvl="4"/><polyline points="145.338,249.224 145.475,248.880 146.469,248.013 147.462,247.764 " admin_lvl="2"/><polyline points="504.172,269.445 504.048,269.357 503.943,269.276 503.649,269.186 " admin_lvl="4"/><polyline points="145.148,253.566 145.226,249.759 145.338,249.224 " admin_lvl="2"/><polyline points="490.939,262.842 490.775,262.910 490.111,263.138 489.656,264.029 " admin_lvl="4"/><polyline points="502.672,268.240 502.285,265.631 " admin_lvl="4"/><polyline points="498.440,278.248 497.942,279.212 " admin_lvl="4"/><polyline points="497.942,279.212 497.258,279.130 496.078,279.390 " admin_lvl="4"/><polyline points="496.174,289.927 495.690,290.112 495.434,290.581 495.275,291.636 " admin_lvl="4"/><polyline points="495.277,296.216 493.052,296.807 " admin_lvl="4"/><polyline points="147.462,247.764 150.591,248.236 151.145,248.165 " admin_lvl="2"/><polyline points="514.909,267.740 512.469,267.351 511.636,267.796 " admin_lvl="4"/><polyline points="511.636,267.796 513.467,265.139 504.884,268.564 504.172,269.445 " admin_lvl="4"/><polyline points="470.908,459.261 469.503,462.237 469.539,462.613 " admin_lvl="4"/><polyline points="467.736,449.813 467.412,450.394 467.418,450.709 467.028,452.384 " admin_lvl="4"/><polyline points="470.326,384.617 471.270,384.978 " admin_lvl="4"/><polyline points="471.149,389.868 470.392,395.350 470.374,395.439 " admin_lvl="4"/><polyline points="466.399,416.289 466.397,416.324 466.861,416.686 466.549,416.849 " admin_lvl="4"/><polyline points="465.764,428.783 466.986,432.870 " admin_lvl="4"/><polyline points="396.747,481.779 395.714,481.667 392.940,483.178 " admin_lvl="4"/><polyline points="406.418,479.333 403.883,478.538 " admin_lvl="4"/><polyline points="411.022,478.951 411.550,478.474 " admin_lvl="4"/><polyline points="419.867,470.977 413.987,476.685 412.925,478.756 " admin_lvl="4"/><polyline points="439.823,469.259 438.704,468.692 437.830,468.153 " admin_lvl="4"/><polyline points="437.830,468.153 435.164,467.724 433.446,467.028 431.845,465.235 " admin_lvl="4"/><polyline points="444.941,469.334 444.597,469.327 444.190,469.211 439.823,469.259 " admin_lvl="4"/><polyline points="451.641,463.175 450.265,463.362 " admin_lvl="4"/><polyline points="514.461,244.171 514.240,245.404 513.211,249.302 " admin_lvl="4"/><polyline points="521.880,260.831 523.061,260.645 " admin_lvl="4"/><polyline points="513.269,240.000 514.224,244.297 514.461,244.171 " admin_lvl="4"/><polyline points="517.905,225.305 517.772,226.406 517.730,229.417 " admin_lvl="4"/><polyline points="515.866,213.093 518.111,216.990 " admin_lvl="4"/><polyline points="517.340,217.511 513.948,218.542 " admin_lvl="4"/><polyline points="484.347,302.274 483.796,302.286 482.680,302.310 " admin_lvl="4"/><polyline points="387.406,492.815 382.585,492.565 " admin_lvl="2"/><polyline points="110.536,336.107 111.510,334.937 111.861,333.624 111.783,333.028 " admin_lvl="2"/><polyline points="280.290,458.941 277.953,459.082 277.664,459.195 277.489,459.219 277.265,459.324 277.255,459.322 " admin_lvl="2"/><polyline points="280.936,459.238 280.905,459.187 280.848,459.160 " admin_lvl="2"/><polyline points="281.317,468.763 281.317,468.749 " admin_lvl="2"/><polyline points="265.385,458.630 265.835,458.719 268.627,458.951 " admin_lvl="2"/><polyline points="260.356,456.644 259.099,456.124 257.689,455.688 " admin_lvl="2"/><polyline points="261.041,449.465 259.315,448.363 254.540,448.701 254.265,448.849 253.164,447.584 " admin_lvl="2"/><polyline points="270.983,452.316 270.679,452.519 269.853,454.262 " admin_lvl="2"/><polyline points="253.260,445.283 248.424,439.913 247.204,444.925 246.809,447.010 " admin_lvl="2"/><polyline points="392.700,483.700 392.454,483.769 " admin_lvl="4"/><polyline points="392.067,484.038 391.514,483.353 390.775,482.960 390.608,483.019 390.365,483.178 " admin_lvl="4"/><polyline points="466.510,373.934 466.665,374.492 " admin_lvl="4"/><polyline points="470.374,378.931 470.646,380.001 " admin_lvl="4"/><polyline points="95.383,361.260 95.567,360.839 " admin_lvl="2"/><polyline points="100.816,353.122 101.458,350.971 101.968,349.183 " admin_lvl="2"/><polyline points="123.299,482.424 117.192,489.417 112.926,491.000 " admin_lvl="2"/><polyline points="108.695,491.534 108.578,491.555 " admin_lvl="2"/><polyline points="452.535,318.251 448.404,321.286 " admin_lvl="4"/><polyline points="449.289,328.561 449.300,329.297 449.557,329.601 " admin_lvl="4"/><polyline points="456.427,313.311 456.440,313.321 456.141,313.534 456.234,314.039 " admin_lvl="4"/><polyline points="445.579,323.961 445.186,325.018 446.445,327.295 " admin_lvl="4"/><polyline points="447.525,322.718 446.347,323.532 445.579,323.961 " admin_lvl="4"/><polyline points="452.638,316.311 452.492,317.529 " admin_lvl="4"/><polyline points="390.365,483.178 382.585,492.565 " admin_lvl="4"/><polyline points="175.270,215.144 175.467,214.878 177.404,212.255 178.085,210.992 " admin_lvl="2"/><polyline points="171.569,220.207 174.267,216.328 " admin_lvl="2"/><polyline points="162.957,239.704 164.008,238.498 165.384,236.431 " admin_lvl="2"/><polyline points="158.766,242.208 160.347,241.821 162.537,240.124 " admin_lvl="2"/><polyline points="322.375,466.483 320.344,466.961 " admin_lvl="2"/><polyline points="320.344,466.961 318.908,466.538 " admin_lvl="2"/><polyline points="225.719,112.058 226.183,113.741 225.981,114.321 " admin_lvl="4"/><polyline points="213.553,91.878 213.564,91.912 " admin_lvl="4"/><polyline points="228.739,90.196 228.409,89.859 227.869,89.299 227.554,88.973 " admin_lvl="4"/><polyline points="218.820,107.182 218.667,107.247 " admin_lvl="4"/><polyline points="216.018,99.817 216.037,99.877 216.319,101.355 " admin_lvl="4"/><polyline points="218.442,103.826 218.523,103.920 " admin_lvl="4"/><polyline points="253.167,76.137 252.091,76.874 250.362,77.329 " admin_lvl="4"/><polyline points="253.247,76.117 253.897,75.682 253.780,75.260 253.730,75.257 " admin_lvl="4"/><polyline points="468.862,376.919 470.222,377.551 " admin_lvl="4"/><polyline points="470.989,380.314 471.044,380.427 " admin_lvl="4"/><polyline points="216.313,108.815 216.274,108.893 " admin_lvl="4"/><polyline points="241.196,94.345 240.523,93.893 239.834,93.698 238.924,95.288 " admin_lvl="4"/><polyline points="238.924,95.288 238.240,95.511 237.338,95.779 " admin_lvl="4"/><polyline points="220.537,472.202 220.955,472.335 225.021,470.771 " admin_lvl="2"/><polyline points="229.347,468.915 229.397,468.499 " admin_lvl="2"/><polyline points="212.778,463.436 211.353,464.233 215.362,468.209 " admin_lvl="2"/><polyline points="212.517,458.004 210.960,460.000 212.810,462.597 213.130,463.213 " admin_lvl="2"/><polyline points="135.956,484.573 135.773,484.263 135.147,483.653 134.699,483.211 " admin_lvl="2"/><polyline points="170.887,481.749 170.367,483.262 168.930,483.353 " admin_lvl="2"/><polyline points="178.571,477.563 178.519,477.652 177.689,479.049 " admin_lvl="2"/><polyline points="153.107,489.919 152.248,489.781 " admin_lvl="2"/><polyline points="203.100,485.951 202.612,485.893 202.306,485.863 200.594,485.939 " admin_lvl="2"/><polyline points="187.751,477.163 185.742,477.436 183.589,478.599 " admin_lvl="2"/><polyline points="165.626,484.438 165.170,486.897 164.551,487.825 " admin_lvl="2"/><polyline points="178.085,210.992 178.154,210.858 " admin_lvl="2"/><polyline points="178.154,210.858 179.673,208.470 184.878,206.711 " admin_lvl="2"/><polyline points="91.967,408.348 93.301,405.219 " admin_lvl="2"/><polyline points="147.083,488.983 145.958,488.900 " admin_lvl="2"/><polyline points="277.255,459.322 272.852,457.445 272.839,457.336 273.036,457.191 273.239,457.067 271.241,453.748 270.983,452.316 " admin_lvl="2"/><polyline points="267.955,454.704 267.719,454.527 266.892,455.623 265.771,456.324 265.385,458.630 " admin_lvl="2"/><polyline points="271.423,461.246 269.418,462.826 269.377,464.937 " admin_lvl="2"/><polyline points="252.615,445.825 253.036,445.532 253.260,445.283 " admin_lvl="2"/><polyline points="252.641,446.068 253.164,447.584 " admin_lvl="2"/><polyline points="224.447,119.598 224.447,119.604 " admin_lvl="4"/><polyline points="406.620,54.641 407.099,56.517 407.502,58.550 409.130,61.597 409.182,62.558 " admin_lvl="4"/><polyline points="230.787,473.786 228.113,473.137 227.478,473.590 " admin_lvl="2"/><polyline points="239.138,480.712 239.362,478.883 " admin_lvl="4"/><polyline points="233.511,480.499 233.492,480.438 232.566,481.547 " admin_lvl="4"/><polyline points="250.220,464.473 250.413,463.025 " admin_lvl="4"/><polyline points="249.513,462.835 249.469,462.939 246.319,461.106 " admin_lvl="4"/><polyline points="236.247,484.858 236.804,484.778 238.102,481.132 " admin_lvl="4"/><polyline points="240.939,466.226 242.085,464.277 242.892,464.989 " admin_lvl="4"/><polyline points="238.102,481.132 238.105,481.132 238.939,480.880 " admin_lvl="4"/><polyline points="212.807,486.974 213.845,486.432 " admin_lvl="4"/><polyline points="212.342,488.861 212.455,488.539 212.807,486.974 " admin_lvl="4"/><polyline points="218.502,479.537 220.055,483.151 220.243,483.217 223.089,482.516 " admin_lvl="2"/><polyline points="224.204,483.777 223.097,484.416 " admin_lvl="2"/><polyline points="222.573,484.585 222.576,484.585 223.097,484.416 " admin_lvl="2"/><polyline points="221.876,476.964 221.672,477.867 " admin_lvl="2"/><polyline points="223.089,482.516 223.304,482.434 224.153,483.639 224.204,483.777 " admin_lvl="2"/><polyline points="234.460,480.110 233.511,480.499 " admin_lvl="4"/><polyline points="97.896,487.645 97.241,488.014 95.260,487.478 95.234,487.521 95.093,487.755 " admin_lvl="2"/><polyline points="94.889,487.699 94.531,487.659 93.373,491.515 " admin_lvl="4"/><polyline points="269.829,464.750 269.583,464.885 269.377,464.937 " admin_lvl="4"/><polyline points="95.093,487.755 94.909,487.702 94.889,487.699 " admin_lvl="4"/><polyline points="102.199,483.804 103.337,485.515 " admin_lvl="2"/><polyline points="257.627,461.862 259.183,461.452 " admin_lvl="4"/><polyline points="93.682,484.117 95.310,482.539 " admin_lvl="2"/><polyline points="279.793,468.786 281.319,469.049 " admin_lvl="4"/><polyline points="110.009,493.566 110.045,493.544 108.200,492.786 " admin_lvl="4"/><polyline points="270.540,464.328 269.829,464.750 " admin_lvl="4"/><polyline points="327.272,468.808 330.375,468.907 336.595,468.294 " admin_lvl="2"/><polyline points="281.319,469.049 284.284,470.343 284.472,470.406 305.668,463.117 " admin_lvl="2"/><polyline points="336.595,468.294 340.155,468.753 366.769,481.034 " admin_lvl="2"/><polyline points="189.185,477.299 189.077,477.058 188.961,476.980 " admin_lvl="2"/><polyline points="210.932,485.022 210.447,484.815 209.939,484.618 209.621,484.594 " admin_lvl="2"/><polyline points="200.594,485.939 199.888,485.910 199.125,485.704 197.459,484.231 " admin_lvl="2"/><polyline points="207.007,486.707 206.722,486.604 204.264,486.133 " admin_lvl="2"/><polyline points="193.331,477.972 193.305,477.959 191.900,477.669 189.185,477.299 " admin_lvl="2"/><polyline points="183.195,476.885 179.738,476.139 178.918,476.947 " admin_lvl="2"/><polyline points="177.689,479.049 175.093,480.934 174.057,481.217 173.960,481.185 " admin_lvl="2"/><polyline points="204.264,486.133 203.998,486.051 203.100,485.951 " admin_lvl="2"/><polyline points="197.459,484.231 194.531,481.871 194.161,478.420 193.331,477.972 " admin_lvl="2"/><polyline points="183.589,478.599 183.301,477.205 183.253,477.045 183.195,476.885 " admin_lvl="2"/><polyline points="151.210,489.079 150.890,488.939 150.134,488.728 " admin_lvl="2"/><polyline points="168.930,483.353 167.636,483.218 166.794,483.325 " admin_lvl="2"/><polyline points="173.960,481.185 173.854,481.150 172.854,480.853 " admin_lvl="2"/><polyline points="151.215,489.082 151.210,489.079 " admin_lvl="2"/><polyline points="144.461,488.468 144.159,488.364 " admin_lvl="2"/><polyline points="141.029,491.083 138.598,490.660 137.690,490.513 " admin_lvl="2"/><polyline points="164.551,487.825 162.192,488.391 159.054,487.267 156.908,488.940 " admin_lvl="2"/><polyline points="156.908,488.940 156.790,488.987 156.381,489.136 " admin_lvl="2"/><polyline points="136.304,489.017 136.084,487.909 136.652,485.971 135.956,484.573 " admin_lvl="2"/><polyline points="134.699,483.211 134.688,483.199 " admin_lvl="2"/><polyline points="125.596,483.381 125.463,483.288 " admin_lvl="2"/><polyline points="112.926,491.000 112.596,491.145 " admin_lvl="2"/><polyline points="106.421,492.364 104.855,493.261 " admin_lvl="2"/><polyline points="251.805,78.095 251.747,78.077 " admin_lvl="4"/><polyline points="252.533,76.233 252.601,76.099 " admin_lvl="4"/><polyline points="253.157,77.894 252.172,77.746 " admin_lvl="4"/><polyline points="250.374,77.456 250.374,77.361 " admin_lvl="4"/><polyline points="250.362,77.329 251.411,75.936 251.555,76.073 253.167,76.137 " admin_lvl="4"/><polyline points="250.413,463.025 249.513,462.835 " admin_lvl="2"/><polyline points="242.182,467.686 242.049,467.764 241.923,467.839 240.939,466.226 " admin_lvl="2"/><polyline points="244.237,470.330 242.182,467.686 " admin_lvl="2"/><polyline points="240.516,477.811 239.294,471.704 239.320,471.536 " admin_lvl="2"/><polyline points="234.460,480.110 236.189,480.867 239.362,478.883 " admin_lvl="2"/><polyline points="239.362,478.883 239.908,478.404 240.516,477.811 " admin_lvl="2"/><polyline points="239.320,471.536 240.817,471.678 243.630,471.648 244.237,470.330 " admin_lvl="2"/><polyline points="219.625,485.561 220.668,485.019 222.573,484.585 " admin_lvl="2"/><polyline points="213.845,486.432 214.880,486.687 218.541,485.505 219.625,485.561 " admin_lvl="2"/><polyline points="221.672,477.867 221.415,478.216 218.502,479.537 " admin_lvl="2"/><polyline points="227.478,473.590 223.047,477.126 " admin_lvl="2"/><polyline points="230.840,473.807 230.787,473.786 " admin_lvl="2"/><polyline points="235.498,477.836 235.092,477.996 234.460,480.110 " admin_lvl="2"/><polyline points="96.881,489.666 96.096,488.485 95.793,488.172 95.093,487.755 " admin_lvl="2"/><polyline points="99.345,491.258 97.594,490.536 96.881,489.666 " admin_lvl="2"/><polyline points="102.813,493.479 101.558,493.364 " admin_lvl="2"/><polyline points="323.585,466.828 323.667,466.857 323.981,467.390 324.095,467.554 " admin_lvl="2"/><polyline points="305.668,463.117 306.600,463.359 314.766,464.449 " admin_lvl="2"/><polyline points="325.429,468.773 325.717,468.968 325.983,468.919 326.308,468.847 326.375,469.196 327.272,468.808 " admin_lvl="2"/><polyline points="314.766,464.449 315.065,464.516 318.908,466.538 " admin_lvl="2"/><polyline points="255.216,461.616 253.297,461.012 250.524,463.041 250.413,463.025 " admin_lvl="2"/><polyline points="281.317,468.749 281.372,467.915 280.465,465.469 277.743,463.767 " admin_lvl="2"/><polyline points="87.698,484.897 88.356,482.021 " admin_lvl="2"/><polyline points="104.069,479.846 102.199,483.804 " admin_lvl="2"/><polyline points="88.356,482.021 92.870,484.626 93.682,484.117 " admin_lvl="2"/><polyline points="96.952,480.639 103.999,479.817 104.069,479.846 " admin_lvl="2"/><polyline points="103.337,485.515 97.896,487.645 " admin_lvl="2"/><polyline points="218.567,454.173 218.215,454.580 218.137,455.301 " admin_lvl="2"/><polyline points="246.809,447.010 246.105,447.134 245.070,447.967 " admin_lvl="2"/><polyline points="213.130,463.213 212.778,463.436 " admin_lvl="2"/><polyline points="232.028,466.490 232.563,466.424 233.705,466.098 234.563,465.990 " admin_lvl="2"/><polyline points="245.070,447.967 244.108,448.110 242.913,445.964 " admin_lvl="2"/><polyline points="242.638,444.020 242.431,442.605 242.726,440.312 " admin_lvl="2"/><polyline points="216.074,456.042 215.247,456.561 213.191,458.011 212.517,458.004 " admin_lvl="2"/><polyline points="218.711,469.362 220.020,469.006 220.537,472.202 " admin_lvl="2"/><polyline points="229.367,467.798 230.113,467.802 232.028,466.490 " admin_lvl="2"/><polyline points="255.766,457.507 256.298,459.002 257.619,461.015 257.627,461.862 " admin_lvl="2"/><polyline points="234.947,444.394 233.598,443.383 231.184,443.724 " admin_lvl="2"/><polyline points="257.689,455.688 257.302,454.973 261.090,450.068 261.041,449.465 " admin_lvl="2"/><polyline points="234.563,465.990 239.387,466.159 240.434,465.494 240.939,466.226 " admin_lvl="2"/><polyline points="227.865,445.874 226.523,444.777 " admin_lvl="2"/><polyline points="236.587,443.667 235.344,444.169 234.976,444.374 234.947,444.394 " admin_lvl="2"/><polyline points="250.374,77.361 251.209,77.120 " admin_lvl="4"/><polyline points="496.774,289.517 496.619,289.675 496.174,289.927 " admin_lvl="4"/><polyline points="460.104,443.540 462.263,444.159 462.416,444.375 462.710,445.871 467.736,449.813 " admin_lvl="4"/><polyline points="462.428,428.853 463.921,428.068 464.444,427.611 " admin_lvl="4"/><polyline points="461.057,441.565 461.198,441.666 459.959,442.587 460.104,443.540 " admin_lvl="4"/><polyline points="464.393,439.088 461.208,441.507 461.089,441.548 461.057,441.565 " admin_lvl="4"/><polyline points="449.557,329.601 449.700,330.113 " admin_lvl="4"/><polyline points="323.496,466.797 323.585,466.828 " admin_lvl="2"/><polyline points="281.319,469.049 281.317,468.763 " admin_lvl="2"/><polyline points="95.310,482.539 95.466,482.326 95.750,482.089 " admin_lvl="2"/><polyline points="95.750,482.089 96.952,480.639 " admin_lvl="2"/><polyline points="144.159,488.364 142.724,489.787 142.394,490.768 142.086,491.139 141.029,491.083 " admin_lvl="2"/><polyline points="136.610,489.635 136.304,489.017 " admin_lvl="2"/><polyline points="238.413,79.103 238.533,79.722 239.097,81.449 " admin_lvl="4"/><polyline points="246.100,76.307 244.656,76.566 243.661,76.756 " admin_lvl="4"/><polyline points="240.901,77.446 240.390,77.605 239.695,77.735 " admin_lvl="4"/><polyline points="243.661,76.756 242.927,76.908 241.916,77.182 " admin_lvl="4"/><polyline points="239.665,77.701 239.645,77.713 239.625,77.724 " admin_lvl="4"/><polyline points="241.270,77.361 241.072,77.393 " admin_lvl="4"/><polyline points="241.916,77.182 241.330,77.353 241.270,77.361 " admin_lvl="4"/><polyline points="239.673,77.699 239.665,77.701 " admin_lvl="4"/><polyline points="239.695,77.735 239.673,77.699 " admin_lvl="4"/><polyline points="240.986,77.419 240.901,77.446 " admin_lvl="4"/><polyline points="241.072,77.393 240.986,77.419 " admin_lvl="4"/><polyline points="239.097,81.449 240.037,81.302 " admin_lvl="4"/><polyline points="252.537,83.817 252.461,83.028 " admin_lvl="4"/><polyline points="121.007,281.077 121.118,280.925 " admin_lvl="2"/></g></svg>