<svg xmlns:xlink="http://www.w3.org/1999/xlink" xmlns="http://www.w3.org/2000/svg" style="position:absolute;"><g id="federal" fill="none" stroke="black" stroke-width="1"><polyline points="403.818,477.939 403.484,478.320 403.437,478.354 402.959,478.812 402.800,478.930 398.718,477.596 397.477,478.957 395.723,479.174 " admin_lvl="4"/><polyline points="397.329,41.733 396.895,45.202 397.575,46.847 397.565,46.878 " admin_lvl="4"/><polyline points="284.799,99.322 284.000,99.462 278.809,99.659 " admin_lvl="4"/><polyline points="469.801,435.995 469.827,436.130 469.834,436.223 469.854,436.374 469.895,436.516 470.033,437.021 469.974,437.086 469.994,437.248 470.383,437.512 470.541,437.760 470.611,437.842 470.677,437.984 470.675,438.067 469.199,437.321 468.508,437.503 468.464,437.435 467.337,437.984 466.808,438.330 467.320,439.170 467.857,439.503 467.823,439.545 467.807,439.554 467.490,439.850 466.574,439.587 466.307,439.870 466.204,439.899 466.147,439.896 465.975,439.844 465.646,439.793 465.309,439.890 465.000,439.674 464.963,439.648 464.686,439.409 464.522,439.228 464.478,439.220 464.393,439.088 " admin_lvl="4"/><polyline points="223.052,141.970 222.913,142.171 221.107,143.035 " admin_lvl="4"/><polyline points="314.957,85.673 314.943,86.857 315.051,87.737 " admin_lvl="4"/><polyline points="462.587,91.330 462.809,91.756 463.352,92.421 " admin_lvl="4"/><polyline points="213.438,83.380 213.372,83.206 212.466,81.505 " admin_lvl="4"/><polyline points="189.224,203.802 187.268,205.159 184.878,206.711 " admin_lvl="4"/><polyline points="220.017,132.262 219.406,132.685 218.556,133.365 " admin_lvl="4"/><polyline points="86.584,376.879 86.560,376.719 86.616,375.915 " admin_lvl="2"/><polyline points="466.778,123.021 466.617,123.321 466.520,123.503 466.262,123.880 466.069,124.238 466.186,124.405 466.806,125.235 466.886,125.284 466.911,125.306 467.006,125.419 467.226,125.747 467.565,126.287 467.559,126.635 466.946,127.183 467.751,128.384 468.667,128.606 468.664,128.832 468.658,128.901 468.645,128.966 468.637,129.006 468.458,129.047 468.288,129.898 467.792,129.836 467.055,129.641 466.314,129.657 466.315,130.119 466.110,130.522 465.573,131.004 465.486,131.679 465.674,131.812 465.684,132.140 465.700,132.329 466.340,132.437 466.271,132.811 466.872,133.384 466.064,133.473 " admin_lvl="4"/><polyline points="321.382,84.535 329.165,85.229 " admin_lvl="4"/><polyline points="491.643,296.670 491.544,296.742 490.734,296.427 " admin_lvl="4"/><polyline points="226.523,444.777 226.480,444.878 226.413,445.090 226.279,445.153 226.031,445.185 225.625,445.279 225.333,445.285 225.133,445.355 225.000,445.408 224.883,445.455 224.729,445.522 224.698,445.672 223.905,445.729 223.083,445.550 222.119,446.438 221.672,446.781 221.500,446.893 221.276,447.020 221.066,447.130 221.054,447.140 221.022,447.167 220.935,447.271 220.807,447.461 220.014,449.308 219.430,449.704 218.850,449.906 218.754,449.933 218.496,450.193 218.428,450.445 218.422,450.496 218.351,451.391 217.927,451.693 217.479,452.405 217.483,452.489 217.665,453.191 217.742,453.483 217.888,453.730 217.882,453.893 218.095,453.940 218.293,453.944 218.390,453.927 218.431,453.924 218.522,453.966 218.566,454.008 218.579,454.063 218.567,454.173 " admin_lvl="2"/><polyline points="470.210,396.519 470.126,396.669 " admin_lvl="4"/><polyline points="201.103,183.902 200.068,184.890 197.448,188.022 196.551,189.597 195.781,191.508 195.406,193.015 195.010,195.726 195.000,195.782 " admin_lvl="4"/><polyline points="479.809,168.231 482.947,167.777 483.596,167.653 " admin_lvl="4"/><polyline points="213.438,83.380 213.457,83.498 213.554,84.079 213.270,85.462 " admin_lvl="4"/><polyline points="143.881,256.302 144.654,255.490 " admin_lvl="2"/><polyline points="369.298,45.892 370.084,45.401 370.276,45.239 370.408,45.082 370.516,44.921 371.383,43.078 371.703,42.753 371.857,42.624 371.983,42.544 372.281,42.450 372.538,42.413 373.993,42.328 374.249,42.310 375.000,42.246 375.342,42.294 375.460,42.330 375.558,42.363 375.647,42.408 376.083,42.740 376.240,42.861 " admin_lvl="4"/><polyline points="248.804,461.859 248.794,461.752 248.863,461.701 248.985,461.731 249.164,461.694 249.186,461.661 249.235,461.680 249.739,461.596 250.070,461.571 250.152,461.571 250.585,461.179 250.685,461.108 250.862,460.991 251.120,460.409 251.378,460.160 251.333,459.997 251.065,459.035 250.288,458.609 249.680,457.356 249.880,457.416 249.998,457.469 250.166,457.573 250.343,457.702 250.481,457.779 250.531,457.820 250.639,457.810 252.115,457.511 252.230,457.673 252.437,458.158 252.491,458.192 252.870,458.266 253.351,458.148 253.556,458.106 253.542,457.948 253.430,457.658 254.093,457.372 254.341,457.324 254.481,457.309 254.628,457.249 254.722,457.083 254.734,457.056 " admin_lvl="2"/><polyline points="465.861,405.114 465.000,405.269 464.659,405.334 464.554,405.357 464.332,405.402 463.948,405.571 463.751,405.693 463.175,406.284 462.774,407.561 462.736,407.822 462.708,408.076 462.705,408.201 462.706,408.499 462.769,409.005 463.087,409.869 463.632,410.663 464.302,411.272 464.910,411.658 464.977,411.683 465.791,411.967 466.033,412.070 466.163,412.156 466.328,412.300 466.406,412.456 466.499,412.599 " admin_lvl="4"/><polyline points="454.721,308.796 455.740,311.142 454.258,312.221 " admin_lvl="4"/><polyline points="470.316,395.465 470.197,396.455 470.210,396.519 " admin_lvl="4"/><polyline points="312.511,94.778 310.511,94.683 309.393,94.378 " admin_lvl="4"/><polyline points="191.597,202.029 190.932,202.548 " admin_lvl="4"/><polyline points="222.044,111.205 225.626,111.960 " admin_lvl="4"/><polyline points="513.572,251.159 513.958,251.175 514.079,251.278 514.139,251.335 514.176,251.395 514.252,251.458 514.500,251.561 514.870,251.696 515.047,251.705 515.080,251.734 514.841,252.054 514.920,252.540 515.311,252.523 515.481,252.540 515.351,252.282 515.371,252.247 515.405,252.231 515.666,252.342 515.929,252.244 515.970,253.103 516.608,253.715 516.746,253.664 516.536,254.136 516.595,254.083 517.060,254.233 517.128,254.396 517.176,254.483 517.314,254.191 517.316,254.077 517.335,253.999 517.925,253.078 518.405,253.138 519.110,252.796 519.375,252.820 519.525,252.807 519.550,252.804 519.529,252.888 519.459,252.984 519.400,253.040 519.096,253.222 519.012,253.280 518.793,253.481 518.218,254.162 518.603,254.153 518.884,254.167 " admin_lvl="4"/><polyline points="184.333,205.871 184.630,206.433 184.878,206.711 " admin_lvl="2"/><polyline points="523.061,260.645 523.099,260.684 523.115,260.780 523.050,261.035 522.952,261.526 522.827,261.638 522.834,261.683 524.153,262.210 524.302,262.340 524.311,262.391 524.288,262.491 524.199,262.595 523.999,262.681 523.868,262.787 523.622,262.539 521.568,264.075 521.517,264.131 520.605,265.018 520.369,265.238 520.334,265.286 519.910,265.690 519.859,265.741 519.753,265.864 " admin_lvl="4"/><polyline points="464.538,368.722 464.595,368.854 " admin_lvl="4"/><polyline points="361.683,67.242 361.553,67.185 361.246,67.095 360.985,66.958 360.165,66.236 359.666,65.739 359.604,65.664 359.590,65.650 359.589,65.590 359.985,65.218 360.751,64.878 361.893,64.663 361.937,64.508 361.814,64.509 361.654,64.476 361.460,64.412 361.355,64.368 361.132,64.235 361.011,64.203 360.954,64.140 " admin_lvl="4"/><polyline points="467.745,105.521 467.693,105.688 467.910,105.799 467.871,105.966 467.644,105.976 467.684,106.264 467.695,106.340 467.680,106.488 468.014,106.752 468.144,106.919 468.262,107.006 468.312,107.177 468.175,107.350 467.163,107.513 466.863,107.525 466.548,107.543 466.354,107.612 466.032,107.357 465.731,107.411 465.731,107.458 465.926,107.738 466.201,107.966 464.956,108.673 464.581,108.856 464.685,108.982 464.669,109.053 464.614,109.082 464.557,109.454 464.554,109.520 464.544,109.811 464.481,109.897 464.351,110.128 464.319,110.194 464.226,110.389 464.525,110.518 464.640,110.524 464.656,110.531 464.755,110.576 465.085,110.744 465.346,110.900 465.930,111.292 465.900,111.342 466.058,111.520 466.131,111.620 466.227,111.710 466.726,112.205 466.842,111.959 466.726,111.840 466.763,111.383 467.840,111.216 468.011,111.438 468.670,111.970 469.267,112.291 469.684,112.413 469.791,112.426 470.165,112.899 470.152,113.025 470.396,113.231 470.465,113.244 470.711,113.369 470.642,113.382 470.226,113.338 470.050,113.577 470.368,113.800 470.731,114.318 470.767,114.444 470.787,114.537 470.701,114.856 470.650,115.004 470.612,115.087 470.777,115.146 " admin_lvl="4"/><polyline points="224.598,117.774 224.504,118.191 224.425,118.524 " admin_lvl="4"/><polyline points="211.239,150.452 210.034,151.245 209.569,151.674 " admin_lvl="4"/><polyline points="242.084,439.756 241.700,439.623 241.496,439.581 241.459,439.599 241.150,439.544 240.845,439.531 240.759,439.537 240.559,439.501 240.380,439.476 240.152,439.438 240.000,439.435 239.023,440.169 238.570,439.951 238.343,439.714 238.135,439.478 236.796,440.001 236.307,440.001 236.024,439.055 235.970,438.823 235.941,438.794 235.566,438.746 235.469,438.704 235.210,438.351 235.196,438.324 235.149,438.358 235.093,438.425 234.965,438.599 234.443,439.259 234.371,440.001 234.346,440.194 234.341,440.660 234.319,441.038 234.256,441.443 234.269,441.497 235.400,441.842 236.224,442.107 236.134,442.603 236.305,442.929 236.360,443.007 236.376,443.069 236.400,443.295 236.470,443.497 236.587,443.667 " admin_lvl="2"/><polyline points="235.108,96.153 234.656,96.059 " admin_lvl="4"/><polyline points="466.499,412.599 465.716,415.385 466.383,416.193 " admin_lvl="4"/><polyline points="510.968,204.851 510.477,205.987 " admin_lvl="4"/><polyline points="213.414,91.622 213.553,91.878 " admin_lvl="4"/><polyline points="450.045,330.742 451.432,331.007 " admin_lvl="4"/><polyline points="289.751,105.879 289.798,106.048 289.845,106.161 289.913,106.258 290.099,106.475 290.150,106.536 290.155,106.590 290.801,106.972 290.836,106.960 291.093,106.948 291.377,107.326 291.616,107.611 291.873,107.873 292.113,108.217 292.346,108.380 292.407,108.408 292.503,108.516 292.647,108.726 292.670,108.764 292.671,108.786 292.656,108.814 292.591,108.896 291.341,109.745 289.804,109.911 289.511,109.933 289.454,109.920 289.332,109.980 289.147,110.025 288.844,110.534 288.835,110.902 288.824,111.085 288.799,111.307 " admin_lvl="4"/><polyline points="484.632,297.903 485.059,298.015 483.996,298.608 485.712,298.765 485.944,298.778 485.663,300.190 486.213,301.600 485.989,301.719 484.764,302.265 484.409,302.273 484.347,302.274 " admin_lvl="4"/><polyline points="470.108,309.064 470.061,309.064 469.993,308.891 469.914,308.898 469.658,308.559 469.514,308.572 469.213,308.628 468.820,307.818 468.379,307.596 468.202,307.124 468.056,306.963 467.889,306.933 467.588,306.341 467.706,305.918 467.851,305.401 467.466,305.302 467.569,304.919 467.367,304.875 466.872,304.759 466.601,304.753 466.124,304.597 466.103,304.609 466.088,304.604 466.059,304.587 465.771,304.494 465.124,305.712 465.071,305.907 464.457,305.920 464.458,306.115 464.126,306.587 463.523,306.762 462.499,307.532 462.465,307.538 461.191,308.013 459.466,309.130 458.883,309.228 458.495,309.241 458.492,309.164 458.276,308.590 457.333,308.478 457.323,308.478 456.999,308.539 456.942,308.542 456.941,308.413 456.423,308.340 456.401,308.323 456.215,308.097 455.895,308.413 455.882,308.143 455.532,308.271 455.318,308.361 454.919,308.456 454.726,308.497 454.708,308.511 454.721,308.796 " admin_lvl="4"/><polyline points="81.274,449.758 81.010,449.031 " admin_lvl="2"/><polyline points="488.552,188.078 488.563,188.077 488.596,188.252 488.611,188.845 488.606,188.934 488.601,189.032 488.550,189.239 488.523,189.409 488.335,189.441 488.334,189.322 488.323,189.221 488.297,189.150 488.199,189.670 488.146,189.717 488.096,189.734 488.075,189.786 488.015,189.833 487.834,190.251 487.926,190.402 488.189,190.818 488.300,190.949 488.298,191.086 487.928,191.144 487.736,191.229 487.635,191.303 487.509,191.432 487.474,191.488 487.458,191.537 487.468,191.590 487.513,191.658 487.559,191.905 487.657,191.904 487.869,192.100 487.838,192.194 488.065,192.231 488.225,192.257 488.544,191.876 488.569,191.826 488.645,191.853 488.713,191.781 488.805,191.585 488.929,191.411 489.067,191.435 489.300,191.514 489.357,191.535 489.568,190.995 491.180,191.852 491.491,192.146 491.820,192.394 492.601,192.675 493.126,192.120 493.262,191.982 492.898,191.678 492.772,191.585 493.022,191.514 493.107,191.484 493.108,191.508 493.137,191.687 493.496,191.807 493.967,191.723 494.022,191.554 494.227,191.517 494.315,191.527 495.000,191.897 495.079,191.939 495.124,192.017 495.164,192.087 495.232,192.205 495.491,192.348 495.541,192.364 495.598,192.394 495.583,192.408 495.526,192.408 495.295,192.515 495.382,193.310 495.444,193.551 495.351,193.716 495.511,193.693 496.004,193.731 496.111,193.755 496.251,193.663 496.320,193.627 496.496,193.659 496.612,193.767 497.049,194.073 497.123,194.097 497.235,194.132 497.371,194.208 497.440,194.265 497.466,194.275 497.500,194.289 " admin_lvl="4"/><polyline points="315.051,87.737 315.010,87.754 315.000,87.776 314.969,87.816 314.870,87.898 314.766,87.939 314.469,87.964 314.026,87.911 313.731,87.768 312.084,86.995 312.081,86.002 310.969,85.034 311.018,85.107 311.019,85.166 310.969,85.211 310.950,85.354 311.144,85.907 311.071,86.214 310.989,86.573 310.884,86.656 310.661,86.794 310.624,87.094 311.163,87.831 311.166,87.865 311.181,87.932 311.217,88.008 311.555,88.266 312.077,88.639 312.202,88.790 312.120,88.926 312.732,89.516 312.737,89.588 312.791,90.007 312.825,90.120 312.910,90.153 312.989,90.248 312.968,90.361 313.019,90.472 313.004,90.585 312.978,90.596 312.956,90.616 312.873,90.758 312.839,90.812 312.904,91.016 312.911,91.072 312.923,91.079 " admin_lvl="4"/><polyline points="285.119,103.058 284.917,99.579 284.891,99.566 " admin_lvl="4"/><polyline points="312.923,91.079 312.834,91.227 312.790,91.291 312.722,91.304 312.647,91.304 312.575,91.282 312.691,91.377 312.757,91.478 312.917,91.516 313.069,91.525 313.457,91.667 313.856,91.598 313.979,91.631 314.149,91.660 314.194,91.682 314.285,91.698 314.635,92.068 315.000,92.387 315.299,92.395 315.357,92.360 315.718,92.638 315.669,92.658 315.641,92.752 316.332,92.699 316.707,92.862 316.989,93.024 317.330,93.245 317.299,93.583 317.964,94.652 318.554,95.440 318.846,95.689 318.530,96.086 318.586,96.346 318.799,96.500 318.913,96.589 318.943,96.613 318.408,96.894 318.287,97.044 317.970,97.562 317.925,97.566 317.667,97.461 317.582,97.448 317.095,97.673 316.950,97.714 315.972,98.084 315.897,98.051 315.850,97.975 315.793,97.844 315.779,97.779 315.778,97.492 315.915,97.033 315.949,96.956 315.711,96.447 315.318,96.136 315.207,95.938 315.000,94.906 313.170,94.862 313.065,94.812 312.961,94.799 312.886,94.770 312.805,94.779 312.711,94.771 312.607,94.741 312.546,94.762 312.511,94.778 " admin_lvl="4"/><polyline points="217.273,146.047 216.825,146.635 " admin_lvl="4"/><polyline points="461.557,472.179 461.406,472.118 461.280,472.057 461.095,471.928 461.095,471.894 460.969,471.712 460.880,471.557 460.838,471.392 460.813,471.322 460.834,471.255 461.080,470.994 461.086,470.971 461.076,470.856 461.046,470.682 461.105,470.531 461.216,470.386 461.232,470.341 461.235,470.285 461.250,470.240 461.087,470.148 460.967,470.067 461.261,468.388 460.819,467.869 460.746,467.752 460.375,467.495 460.131,467.032 460.123,467.007 459.879,466.295 459.784,466.006 459.675,465.723 459.648,465.363 459.614,465.073 459.596,465.037 459.491,464.947 459.419,464.886 459.297,464.742 459.129,464.574 459.091,464.498 459.015,464.284 459.002,464.212 458.938,464.052 458.928,463.981 458.915,463.950 458.890,463.917 458.859,463.891 458.834,463.880 458.808,463.880 458.325,464.052 458.184,464.081 458.074,464.081 457.589,464.078 457.558,464.061 457.509,463.842 457.377,463.772 457.227,464.023 457.236,464.125 457.236,464.155 456.871,464.816 456.599,464.930 456.425,464.979 455.824,464.596 455.609,464.364 455.579,464.403 455.428,464.375 455.593,464.681 455.646,464.726 455.606,464.774 455.222,464.881 455.181,464.883 455.137,464.878 454.959,464.860 454.535,465.104 454.402,464.958 454.398,464.823 454.424,464.416 454.157,464.326 454.234,464.139 454.539,463.870 454.635,463.441 454.416,463.129 454.267,463.089 454.245,463.052 454.248,463.024 454.206,462.897 453.966,462.578 453.735,462.623 453.538,462.692 453.404,462.763 453.186,462.891 453.114,462.926 452.992,462.948 452.879,462.957 452.856,462.958 452.807,462.962 " admin_lvl="4"/><polyline points="134.266,482.848 130.259,482.266 128.548,482.892 126.966,483.537 " admin_lvl="2"/><polyline points="495.636,279.215 495.396,279.127 " admin_lvl="4"/><polyline points="467.299,404.821 466.810,404.941 466.452,405.012 465.861,405.114 " admin_lvl="4"/><polyline points="213.270,85.462 212.937,86.000 212.144,88.220 213.364,91.484 213.414,91.622 " admin_lvl="4"/><polyline points="323.496,466.797 323.055,466.474 322.375,466.483 " admin_lvl="2"/><polyline points="194.915,196.140 194.825,196.516 194.811,196.600 " admin_lvl="4"/><polyline points="194.623,197.190 194.454,197.691 194.031,198.684 " admin_lvl="4"/><polyline points="88.356,482.021 88.855,480.838 88.918,480.623 " admin_lvl="2"/><polyline points="86.616,375.915 88.853,373.971 89.482,373.392 " admin_lvl="2"/><polyline points="217.116,107.803 216.717,108.132 216.313,108.815 " admin_lvl="4"/><polyline points="216.228,109.266 217.556,110.997 219.870,111.362 220.523,111.326 " admin_lvl="4"/><polyline points="218.523,103.920 218.762,104.212 219.508,106.465 219.176,106.941 " admin_lvl="4"/><polyline points="87.331,420.170 87.462,419.301 " admin_lvl="2"/><polyline points="87.381,414.025 88.025,412.808 " admin_lvl="2"/><polyline points="87.418,418.711 87.093,415.994 " admin_lvl="2"/><polyline points="81.808,455.059 82.295,452.765 " admin_lvl="2"/><polyline points="78.212,458.621 78.494,458.409 " admin_lvl="2"/><polyline points="81.010,449.031 80.864,448.687 80.740,448.410 " admin_lvl="2"/><polyline points="79.725,446.042 79.470,444.255 81.115,439.375 " admin_lvl="2"/><polyline points="80.740,448.410 80.574,448.131 " admin_lvl="2"/><polyline points="81.115,439.375 81.750,437.818 " admin_lvl="2"/><polyline points="91.350,399.980 87.262,395.499 87.255,395.492 86.770,394.986 " admin_lvl="2"/><polyline points="86.770,394.986 85.481,393.509 85.933,390.533 86.037,388.253 " admin_lvl="2"/><polyline points="85.803,386.824 85.552,385.360 " admin_lvl="2"/><polyline points="86.087,381.682 86.917,379.500 " admin_lvl="2"/><polyline points="86.878,378.189 86.584,376.879 " admin_lvl="2"/><polyline points="134.367,266.620 135.627,265.258 138.700,261.942 " admin_lvl="2"/><polyline points="125.410,273.299 128.505,270.201 132.855,267.930 133.844,267.164 134.367,266.620 " admin_lvl="2"/><polyline points="91.737,366.475 94.018,363.830 94.335,363.397 95.383,361.260 " admin_lvl="2"/><polyline points="115.611,301.628 115.845,301.453 " admin_lvl="2"/><polyline points="89.797,372.901 89.864,369.217 91.737,366.475 " admin_lvl="2"/><polyline points="83.340,425.276 84.116,423.286 86.885,421.113 " admin_lvl="2"/><polyline points="110.397,319.089 110.568,318.667 111.712,316.080 " admin_lvl="2"/><polyline points="113.380,312.332 113.100,313.060 " admin_lvl="2"/><polyline points="84.459,429.591 84.149,428.573 83.468,427.028 83.334,425.792 " admin_lvl="2"/><polyline points="83.334,425.792 83.340,425.276 " admin_lvl="2"/><polyline points="115.092,304.130 115.553,301.674 " admin_lvl="2"/><polyline points="95.567,360.839 95.711,360.506 " admin_lvl="2"/><polyline points="91.022,409.650 91.891,408.482 91.967,408.348 " admin_lvl="2"/><polyline points="87.093,415.994 87.089,415.527 87.381,414.025 " admin_lvl="2"/><polyline points="88.923,479.652 85.043,473.583 " admin_lvl="2"/><polyline points="85.043,473.583 79.889,469.365 " admin_lvl="2"/><polyline points="78.239,467.284 77.889,466.178 " admin_lvl="2"/><polyline points="98.966,356.780 99.553,356.295 " admin_lvl="2"/><polyline points="101.968,349.183 102.145,348.510 " admin_lvl="2"/><polyline points="102.145,348.510 102.866,345.924 103.137,344.884 103.227,344.546 103.358,343.896 103.401,343.172 103.390,341.617 103.834,340.048 104.003,339.724 104.031,339.673 104.172,339.471 104.747,338.839 105.801,338.018 105.933,337.945 106.507,337.711 108.044,337.149 109.985,336.484 110.536,336.107 " admin_lvl="2"/><polyline points="253.508,76.213 253.511,76.187 " admin_lvl="4"/><polyline points="224.447,119.604 224.349,119.690 224.279,119.773 224.071,120.001 223.931,120.116 223.752,120.223 222.736,120.871 222.624,120.924 220.622,122.016 219.838,122.511 219.655,122.778 219.559,122.997 219.537,123.777 219.502,123.965 219.515,124.141 219.518,124.279 219.605,124.675 219.830,124.897 219.934,124.980 220.629,125.358 220.686,125.375 221.825,124.797 222.194,124.518 222.384,124.314 222.544,124.117 222.890,123.653 223.187,123.301 224.499,122.365 224.856,122.280 225.000,122.219 225.062,122.191 " admin_lvl="4"/><polyline points="225.062,122.191 224.817,126.246 223.969,128.310 " admin_lvl="4"/><polyline points="208.912,152.404 208.700,152.699 207.815,156.249 " admin_lvl="4"/><polyline points="213.845,486.432 213.285,486.205 212.449,485.911 " admin_lvl="2"/><polyline points="468.046,399.629 468.167,400.308 467.299,404.821 " admin_lvl="4"/><polyline points="242.745,444.006 242.717,443.996 " admin_lvl="2"/><polyline points="242.823,444.298 242.812,444.179 " admin_lvl="2"/><polyline points="429.612,75.183 429.651,75.338 429.676,75.633 429.690,75.683 430.085,75.664 430.158,75.725 430.144,76.331 430.096,76.348 430.057,76.382 430.058,76.416 430.086,76.567 430.225,77.103 430.188,77.456 430.676,77.684 430.709,77.734 430.803,77.722 430.851,77.861 430.831,78.054 430.643,78.266 430.289,78.305 430.188,78.337 428.789,78.695 428.872,79.448 428.360,79.834 426.869,80.566 426.841,80.606 426.802,80.623 426.741,80.629 426.247,81.046 426.288,81.189 426.328,81.225 426.429,81.303 426.457,81.322 426.219,81.547 426.758,81.361 426.855,81.567 426.503,81.707 426.201,81.659 426.363,81.869 426.045,82.315 426.052,82.388 426.155,82.533 426.251,82.669 427.088,83.046 427.075,83.481 427.103,83.636 427.131,83.748 427.236,83.848 427.338,83.926 427.037,84.011 427.281,84.422 427.124,84.592 426.809,84.826 426.757,84.847 426.787,84.877 426.532,84.981 " admin_lvl="4"/><polyline points="436.648,83.759 436.132,84.055 435.955,84.186 435.947,84.536 435.766,84.537 435.778,84.717 435.728,85.044 435.643,85.247 435.577,85.400 435.257,85.477 435.199,85.500 435.141,86.207 434.937,86.443 434.921,86.488 434.837,86.939 434.713,87.137 434.709,87.231 434.711,87.251 434.699,87.458 434.696,87.517 434.707,87.558 434.772,87.603 434.824,87.805 434.876,87.812 435.351,87.687 435.575,87.697 436.650,87.718 437.156,87.726 437.512,87.630 437.893,87.476 438.174,87.400 438.441,87.671 438.669,87.775 438.744,87.982 438.725,88.047 438.701,88.151 438.660,88.208 438.618,88.248 438.694,88.557 438.698,88.597 438.673,88.701 438.159,89.021 " admin_lvl="4"/><polyline points="424.300,64.577 423.265,66.777 " admin_lvl="4"/><polyline points="438.635,94.659 438.442,97.977 " admin_lvl="4"/><polyline points="438.759,98.276 438.748,98.344 438.473,98.854 438.331,99.170 438.261,99.269 437.925,99.574 437.853,99.738 437.818,99.806 437.682,100.000 437.433,100.092 437.431,100.625 437.129,101.258 437.086,101.361 437.235,101.509 437.295,101.575 438.909,102.989 438.930,102.998 439.349,103.199 439.647,103.185 440.671,103.434 441.166,103.563 441.448,103.608 441.548,103.631 442.591,103.841 442.794,103.908 442.913,103.894 443.106,103.836 443.229,103.874 443.305,103.781 443.435,103.648 443.538,103.531 443.824,103.204 " admin_lvl="4"/><polyline points="443.824,103.204 444.232,103.259 " admin_lvl="4"/><polyline points="446.198,103.324 446.246,103.826 " admin_lvl="4"/><polyline points="456.880,95.221 456.800,95.147 456.507,94.849 456.209,94.759 456.006,94.475 455.724,94.258 455.669,94.122 455.827,93.975 455.898,93.966 456.074,94.137 456.191,94.090 456.346,94.027 457.317,93.416 457.443,93.318 458.026,93.044 459.288,92.048 459.220,91.010 459.155,90.880 459.112,90.821 459.391,90.762 459.547,90.705 459.666,90.592 459.857,90.519 459.994,90.770 460.806,91.026 461.370,91.220 461.705,91.326 461.812,91.320 461.974,91.320 462.045,91.347 462.343,91.324 462.532,91.321 462.587,91.330 " admin_lvl="4"/><polyline points="253.730,75.257 253.655,75.306 246.803,76.172 " admin_lvl="4"/><polyline points="254.378,79.559 254.280,79.366 " admin_lvl="4"/><polyline points="254.006,76.056 253.247,76.117 " admin_lvl="4"/><polyline points="253.589,78.780 252.790,79.190 252.000,79.198 " admin_lvl="4"/><polyline points="423.209,58.043 423.541,59.014 426.154,63.635 " admin_lvl="4"/><polyline points="395.723,479.174 395.981,480.096 396.795,481.544 " admin_lvl="4"/><polyline points="406.563,54.591 406.620,54.641 " admin_lvl="4"/><polyline points="396.365,50.014 396.373,50.027 396.458,50.117 396.518,50.232 396.870,50.625 396.802,50.757 396.748,50.895 396.700,51.050 396.261,51.396 397.030,52.229 396.833,52.562 395.714,52.798 394.563,53.602 394.466,53.614 394.351,53.654 394.257,53.668 394.149,53.672 393.917,53.698 393.861,53.719 395.471,54.632 395.720,54.831 396.256,55.300 396.295,55.336 395.735,55.572 396.119,55.923 396.113,55.954 396.067,55.987 395.569,56.257 395.484,56.266 395.416,56.266 395.180,56.333 " admin_lvl="4"/><polyline points="419.756,53.810 419.962,53.813 419.704,54.309 419.440,55.731 419.470,55.809 419.868,56.096 421.109,57.034 421.964,57.406 422.548,57.630 423.209,58.043 " admin_lvl="4"/><polyline points="397.565,46.878 396.365,50.014 " admin_lvl="4"/><polyline points="259.183,461.452 258.962,460.679 259.649,458.458 260.448,456.757 " admin_lvl="2"/><polyline points="269.377,464.937 268.721,465.038 266.115,463.818 263.164,461.968 261.274,461.762 259.183,461.452 " admin_lvl="2"/><polyline points="257.452,461.962 256.305,462.102 " admin_lvl="2"/><polyline points="249.513,462.835 249.559,462.765 249.617,462.475 248.804,461.859 " admin_lvl="2"/><polyline points="468.739,158.094 468.867,158.078 469.110,158.107 " admin_lvl="4"/><polyline points="469.169,147.721 469.093,147.620 468.963,147.467 468.521,145.991 468.497,145.597 468.451,145.520 468.404,145.494 468.620,145.358 468.835,145.268 469.543,145.135 469.653,145.117 469.782,145.059 469.755,145.036 469.702,145.025 469.268,144.851 469.175,144.840 468.987,144.947 468.967,144.985 468.967,145.034 468.606,145.014 468.425,145.122 468.258,145.332 468.234,145.739 468.203,145.881 467.876,146.556 467.759,146.391 467.180,146.817 467.190,146.837 467.293,146.848 467.462,147.033 467.502,147.108 467.739,148.327 467.262,148.299 467.153,148.288 466.941,148.410 466.771,148.303 466.579,148.349 466.410,148.430 466.460,148.462 466.533,148.494 466.659,148.563 466.735,148.626 466.835,148.713 466.925,148.759 467.110,148.814 468.014,148.822 468.137,148.903 468.654,148.948 468.773,148.907 468.906,148.846 468.966,149.008 469.085,149.294 469.096,149.354 469.231,149.282 469.393,149.228 469.539,149.152 469.349,148.785 469.854,149.169 469.894,149.261 469.967,149.345 469.771,149.467 469.831,149.727 " admin_lvl="4"/><polyline points="227.554,88.973 225.602,86.977 224.269,85.421 " admin_lvl="4"/><polyline points="392.158,483.989 392.067,484.038 " admin_lvl="4"/><polyline points="232.546,95.049 228.739,90.196 " admin_lvl="4"/><polyline points="308.821,95.441 308.674,95.592 308.623,95.660 308.520,95.717 308.390,95.736 308.280,95.719 308.150,95.721 307.596,95.906 307.498,95.998 307.476,96.032 307.351,96.349 307.251,96.898 307.278,96.960 307.338,97.052 307.446,97.344 307.373,97.454 307.187,97.634 307.093,97.888 307.098,97.960 306.989,98.080 306.893,98.159 306.891,98.259 306.744,98.390 306.524,98.513 306.387,98.613 306.287,98.682 306.307,98.957 306.411,99.381 306.397,99.972 306.358,100.000 306.295,100.111 306.283,100.131 306.269,100.151 306.257,100.170 306.243,100.184 306.206,100.224 306.014,100.223 305.939,100.185 305.753,100.074 305.552,100.086 305.001,100.262 304.758,100.229 304.731,100.244 304.531,100.306 304.301,100.317 304.178,100.270 304.071,100.296 303.985,100.244 303.788,100.266 303.161,100.324 303.134,100.315 302.440,100.333 302.344,100.309 301.940,100.134 301.725,100.061 301.747,100.018 301.753,99.734 301.674,99.673 301.598,99.597 301.558,99.525 301.364,99.527 301.223,99.475 301.086,99.414 300.325,99.086 299.894,99.096 299.332,99.163 299.008,99.269 298.737,99.212 298.675,99.165 298.599,99.121 298.446,99.015 298.308,98.915 298.124,98.699 297.993,98.416 297.972,98.281 297.963,98.101 297.953,98.063 297.965,98.026 " admin_lvl="4"/><polyline points="297.965,98.026 297.459,98.111 295.662,99.641 294.028,99.276 293.615,99.440 292.755,98.947 " admin_lvl="4"/><polyline points="292.755,98.947 292.689,99.272 292.674,99.374 292.690,99.567 293.283,100.233 293.437,100.486 293.381,101.343 293.384,101.367 292.901,101.569 292.796,101.642 292.725,101.923 292.739,102.212 293.195,103.242 293.144,103.379 293.170,103.645 293.154,103.678 293.088,103.704 292.896,103.494 292.363,103.150 292.299,103.094 291.220,103.011 290.688,104.040 290.583,104.132 290.255,104.542 290.162,104.673 290.150,104.754 290.151,104.876 290.164,105.029 290.216,105.320 290.140,105.580 289.889,105.828 289.824,105.860 289.751,105.879 " admin_lvl="4"/><polyline points="409.236,478.197 409.301,478.419 409.288,478.475 " admin_lvl="4"/><polyline points="466.433,416.869 466.306,416.882 466.284,416.884 466.294,416.965 466.311,417.032 466.437,417.375 466.499,417.579 466.538,417.739 466.245,417.938 466.068,417.988 465.859,418.074 465.746,418.127 465.578,418.255 465.578,418.346 465.637,418.596 465.734,418.776 465.305,418.847 465.258,419.138 465.247,420.295 465.400,420.774 465.397,420.834 465.423,420.975 465.614,421.339 465.590,421.632 465.468,422.018 464.480,422.960 464.346,423.040 464.443,423.084 464.670,423.156 465.366,423.258 465.661,423.453 465.900,423.581 465.989,423.752 465.946,423.920 466.019,423.945 466.026,424.038 466.055,424.198 466.046,424.280 466.006,424.389 465.968,424.434 465.900,424.480 465.606,424.583 465.438,424.691 465.225,424.724 465.074,424.721 464.714,425.221 464.590,425.410 464.581,425.542 464.448,425.802 464.331,425.958 463.757,426.517 463.310,426.552 463.087,426.533 462.807,426.374 462.696,426.229 462.657,426.187 462.636,426.165 462.550,426.118 462.382,426.037 462.097,426.106 461.845,426.403 461.764,426.446 461.673,426.458 461.532,426.430 " admin_lvl="4"/><polyline points="461.532,426.430 461.662,426.716 462.009,427.428 " admin_lvl="4"/><polyline points="467.028,452.384 467.051,452.426 467.132,452.485 467.211,452.662 467.312,452.830 467.582,452.973 467.707,453.058 467.786,453.178 467.721,453.435 467.741,453.801 467.742,453.905 467.605,454.156 467.440,455.235 467.311,456.044 467.327,456.139 467.328,456.190 467.334,456.218 467.359,456.257 467.479,456.398 467.511,456.502 467.910,457.010 468.082,457.212 469.802,458.651 470.239,458.768 470.378,458.748 470.431,458.795 470.548,459.017 470.582,459.064 470.780,459.221 470.908,459.261 " admin_lvl="4"/><polyline points="446.629,466.836 445.482,469.195 " admin_lvl="4"/><polyline points="431.845,465.235 431.789,465.239 431.610,465.310 431.526,465.323 431.438,465.333 431.375,465.304 431.334,465.259 431.249,464.899 431.186,464.842 431.095,464.831 431.014,464.865 430.945,464.888 430.697,464.877 430.460,464.940 430.372,464.962 430.284,464.957 430.121,464.833 430.024,464.777 429.930,464.771 429.660,464.797 428.872,464.593 428.270,464.830 428.001,464.882 427.720,464.316 427.632,464.329 427.633,464.369 427.674,464.476 427.668,464.519 427.042,464.801 426.807,464.714 426.719,464.709 426.587,464.658 426.474,464.500 426.399,464.509 426.185,464.515 426.167,464.516 426.083,464.524 426.067,464.622 426.063,464.644 426.046,464.751 426.165,465.034 426.065,464.995 425.948,464.991 425.871,465.195 425.951,465.806 425.877,466.018 425.243,465.458 425.089,465.349 425.085,465.247 425.063,465.137 424.966,465.159 424.925,465.182 424.913,465.447 424.663,466.333 424.729,466.344 424.804,466.424 424.745,466.939 424.670,467.106 424.490,468.058 424.377,468.345 424.060,468.683 424.028,468.703 423.975,468.740 423.559,468.874 423.317,469.076 423.145,469.152 422.703,469.600 422.514,470.005 422.442,470.044 422.326,470.080 422.235,470.140 422.107,470.131 421.970,470.077 421.105,469.761 420.727,469.884 420.570,469.896 420.448,469.887 420.271,469.816 420.105,469.819 420.039,469.855 419.804,470.125 419.704,470.157 419.654,470.182 419.491,470.238 419.432,470.283 419.391,470.351 419.049,470.505 419.296,470.660 419.867,470.977 " admin_lvl="4"/><polyline points="426.529,71.048 428.789,73.096 " admin_lvl="4"/><polyline points="422.927,87.790 421.636,88.731 421.745,88.842 " admin_lvl="4"/><polyline points="425.750,86.096 424.872,86.592 424.086,87.155 " admin_lvl="4"/><polyline points="424.086,87.155 422.927,87.790 " admin_lvl="4"/><polyline points="410.367,62.548 412.913,57.998 416.478,55.713 419.193,53.738 419.756,53.810 " admin_lvl="4"/><polyline points="277.743,463.767 277.717,463.764 277.601,463.749 277.557,463.732 277.628,463.594 277.703,463.481 277.595,463.463 277.637,463.173 277.655,463.031 277.687,462.898 277.768,462.881 277.927,462.720 277.934,462.673 278.120,462.342 278.411,462.205 278.120,461.131 277.900,461.169 277.838,461.163 277.598,460.986 277.645,460.767 277.747,460.656 277.738,460.554 277.726,460.482 277.767,460.461 277.817,460.478 277.879,460.519 278.062,460.587 278.448,460.510 279.226,460.615 279.823,460.969 279.447,461.345 279.418,461.382 279.421,461.423 279.686,461.427 279.941,461.198 280.299,461.197 280.698,461.255 281.005,461.165 281.142,461.096 281.225,460.959 281.244,460.916 281.334,460.756 281.408,460.688 281.414,460.652 281.398,460.613 281.316,460.538 280.847,460.107 280.764,459.438 280.858,459.359 280.936,459.238 " admin_lvl="2"/><polyline points="383.832,44.213 384.199,43.906 386.497,44.233 397.329,41.733 " admin_lvl="4"/><polyline points="376.240,42.861 376.622,43.170 376.832,43.425 376.925,43.639 376.933,43.967 376.902,44.212 376.642,44.807 376.584,45.021 376.521,45.298 376.441,45.562 376.432,45.720 376.438,45.989 376.438,46.012 376.441,46.078 376.454,46.171 376.491,46.270 376.810,46.769 376.955,47.005 377.176,47.264 377.354,47.435 377.386,47.466 377.999,47.782 378.143,47.804 378.473,47.824 378.848,47.767 379.020,47.699 380.265,46.659 380.398,46.586 381.142,46.470 381.908,46.766 381.953,46.804 382.059,46.894 382.266,47.083 382.747,47.754 383.115,50.235 383.146,50.375 383.212,50.507 383.337,50.695 383.449,50.827 383.927,51.081 384.463,51.152 384.826,51.117 384.901,51.092 385.184,50.678 385.201,50.649 385.339,50.296 385.368,50.146 385.350,49.864 385.290,49.712 384.213,48.188 383.920,47.741 383.780,47.361 383.693,47.049 383.609,46.565 383.573,46.067 383.568,45.796 383.523,45.379 383.509,45.163 383.565,44.717 383.612,44.576 383.667,44.452 383.754,44.306 383.777,44.279 383.832,44.213 " admin_lvl="4"/><polyline points="463.451,92.579 463.611,92.890 463.782,93.136 463.855,93.575 463.457,93.641 463.514,93.953 463.441,93.988 463.000,94.140 463.020,94.303 462.128,94.431 462.101,94.455 462.000,94.510 461.891,94.822 461.891,94.891 461.691,94.959 461.819,95.179 461.775,95.208 462.085,95.752 461.875,95.934 461.618,96.112 461.654,96.157 461.690,96.130 461.917,96.343 461.778,96.473 461.729,96.525 461.716,96.561 461.757,96.618 461.820,96.586 461.861,96.608 462.072,96.930 462.255,96.849 462.487,97.699 462.633,97.675 462.756,97.644 462.834,97.596 462.989,97.516 463.156,97.449 464.309,97.217 465.372,96.962 465.543,97.021 465.812,96.996 465.984,97.226 467.307,97.591 467.373,97.793 467.435,97.938 467.922,97.870 467.925,97.767 467.947,97.762 468.172,98.081 468.212,98.130 468.230,98.164 468.182,98.371 468.112,98.552 467.821,98.561 467.757,98.562 467.675,98.567 467.594,98.572 467.606,98.658 467.673,98.884 467.743,99.042 467.792,99.151 467.667,99.211 467.323,99.409 466.624,99.601 466.417,99.698 466.390,99.842 466.344,99.884 466.267,99.900 465.514,100.247 465.627,100.363 465.829,100.589 465.723,100.711 465.607,100.894 465.152,101.249 465.044,101.804 465.113,101.902 465.331,102.048 465.146,102.521 465.213,102.698 465.490,103.051 465.497,103.166 465.818,103.293 466.240,103.446 466.279,103.629 467.224,104.279 467.449,104.262 467.427,104.488 467.407,104.769 467.483,104.778 467.462,104.876 467.273,105.162 467.211,105.205 467.418,105.430 467.470,105.471 467.517,105.490 467.722,105.520 467.745,105.521 " admin_lvl="4"/><polyline points="138.700,261.942 139.106,261.497 143.881,256.302 " admin_lvl="2"/><polyline points="112.596,491.145 111.160,491.323 110.359,491.416 " admin_lvl="2"/><polyline points="120.824,288.045 120.771,287.499 " admin_lvl="2"/><polyline points="120.116,282.954 120.591,281.695 121.007,281.077 " admin_lvl="2"/><polyline points="122.074,279.707 123.421,277.761 125.410,273.299 " admin_lvl="2"/><polyline points="470.540,134.558 470.938,134.584 470.816,134.795 470.863,134.793 470.880,134.793 470.896,134.793 470.962,134.837 471.003,135.031 471.043,135.489 471.419,135.489 471.478,136.059 471.484,136.127 471.571,136.862 471.357,137.250 471.223,137.411 471.146,137.436 470.134,138.758 469.736,138.991 469.846,139.166 469.889,139.464 469.885,139.802 469.891,139.861 469.847,139.917 469.847,139.956 470.018,140.000 470.003,140.220 470.084,140.278 470.101,140.765 470.154,140.780 470.237,140.878 470.642,141.387 471.401,141.739 471.193,142.244 471.674,142.463 472.028,142.486 472.413,142.708 472.440,143.064 472.479,143.085 472.585,143.105 472.601,143.033 472.813,143.030 472.860,143.091 472.893,143.076 472.924,143.062 473.062,143.091 473.251,143.448 473.506,143.775 473.487,143.799 473.430,143.873 " admin_lvl="4"/><polyline points="466.064,133.473 466.347,133.561 467.740,134.208 " admin_lvl="4"/><polyline points="468.740,134.949 468.993,134.888 " admin_lvl="4"/><polyline points="467.977,150.536 467.974,150.548 468.016,150.624 468.125,150.644 468.611,151.330 468.730,152.515 469.034,153.965 469.042,154.026 469.603,156.167 470.587,156.641 470.764,156.738 470.927,157.550 470.965,158.073 471.006,158.120 471.064,158.225 471.051,158.268 471.005,158.282 470.939,158.223 469.057,157.876 468.871,157.877 468.833,157.911 468.753,158.030 468.739,158.094 " admin_lvl="4"/><polyline points="470.384,160.152 474.906,163.853 475.497,164.392 " admin_lvl="4"/><polyline points="475.497,164.392 475.546,164.396 475.580,164.401 475.680,164.397 475.711,164.258 475.878,164.161 476.881,163.520 477.124,163.459 477.217,163.491 477.218,163.563 477.235,163.626 477.176,163.852 476.706,164.895 478.079,165.846 478.353,165.893 478.886,166.490 478.940,166.571 479.152,166.897 479.809,167.203 479.606,167.367 479.683,167.689 479.654,167.724 479.780,167.818 479.850,168.109 479.809,168.231 " admin_lvl="4"/><polyline points="480.766,180.612 480.852,180.660 481.133,180.826 481.572,181.110 481.621,181.127 481.709,181.151 481.920,181.110 482.213,180.880 482.672,180.710 482.821,180.684 482.919,180.666 483.109,180.582 483.223,180.539 483.339,180.482 483.418,180.405 483.448,180.422 483.457,180.605 483.650,180.759 483.689,180.840 483.793,181.128 483.832,181.216 483.912,181.540 483.894,181.799 484.580,181.999 484.924,181.767 485.690,181.708 486.119,181.604 486.299,181.563 486.369,181.566 486.415,181.527 486.695,181.474 486.665,181.600 487.108,181.613 487.407,181.434 487.543,181.407 487.565,181.502 487.636,181.528 487.660,181.540 487.655,181.566 487.445,181.534 487.375,181.512 487.247,181.510 487.201,181.677 487.345,181.705 487.389,181.593 487.530,181.655 487.590,181.771 487.533,181.814 487.575,181.909 487.583,181.957 487.518,182.052 487.584,182.285 487.422,182.631 487.390,182.734 487.243,182.670 487.164,183.314 486.894,183.879 486.890,184.031 486.622,184.272 486.293,184.196 486.197,184.121 486.208,183.983 486.267,183.861 486.338,183.825 486.108,183.580 485.737,184.448 485.642,184.539 485.477,184.618 485.238,184.678 485.157,184.857 485.193,185.006 485.156,185.133 485.330,185.235 485.442,185.248 485.745,185.126 486.188,185.266 486.391,185.550 486.572,185.476 486.937,185.228 487.094,185.303 487.175,185.310 488.125,185.783 488.487,185.906 488.664,186.002 488.700,186.081 488.714,186.302 488.913,186.490 488.720,186.564 488.849,186.878 488.911,187.018 488.918,187.033 489.207,187.179 489.282,187.472 489.698,187.535 489.823,187.650 489.581,187.707 489.392,187.753 489.291,187.777 488.855,187.997 488.857,188.043 488.763,188.043 488.621,188.055 488.508,187.699 488.432,187.708 488.552,188.078 " admin_lvl="4"/><polyline points="120.879,289.041 120.847,288.707 120.839,288.533 120.824,288.045 " admin_lvl="2"/><polyline points="120.856,290.018 120.879,289.041 " admin_lvl="2"/><polyline points="120.528,292.247 120.539,292.076 " admin_lvl="2"/><polyline points="120.239,298.403 120.765,297.296 121.002,296.019 " admin_lvl="2"/><polyline points="334.785,84.022 334.947,83.985 " admin_lvl="4"/><polyline points="333.215,84.423 333.655,84.215 " admin_lvl="4"/><polyline points="345.926,69.069 346.189,69.141 346.562,69.196 " admin_lvl="4"/><polyline points="343.111,72.301 345.678,70.036 345.828,69.534 " admin_lvl="4"/><polyline points="344.372,51.983 344.365,51.927 344.880,51.865 345.000,51.861 345.385,51.868 345.920,51.910 346.623,51.940 347.060,51.955 347.373,51.937 347.737,51.842 347.977,51.708 348.470,51.208 348.551,50.730 348.081,49.474 347.966,49.323 347.314,48.542 346.956,47.687 347.019,46.796 347.041,46.710 347.132,46.578 347.277,46.398 347.481,46.278 348.054,46.157 349.719,46.103 349.814,46.118 350.342,46.218 350.731,46.269 351.274,46.297 352.249,46.255 352.428,46.214 352.496,46.199 352.574,46.180 353.222,45.946 353.448,45.819 353.671,45.675 353.903,45.515 " admin_lvl="4"/><polyline points="346.562,69.196 346.771,69.233 347.027,69.264 347.086,69.321 347.310,69.537 347.476,69.706 347.951,69.980 348.202,70.029 348.335,70.096 349.006,70.363 349.435,70.503 349.700,70.592 349.763,70.684 349.930,70.798 350.102,70.896 350.408,71.113 350.679,71.138 351.083,71.154 351.124,71.153 351.195,71.158 351.288,71.152 351.423,71.160 351.489,71.152 351.676,71.018 351.669,70.954 351.710,70.837 351.988,70.453 352.029,70.337 352.504,69.962 352.741,69.866 352.855,69.898 353.359,69.622 353.477,69.613 353.672,69.446 353.764,69.388 354.231,69.043 354.270,69.027 354.329,69.002 354.636,68.795 354.721,68.773 354.707,68.618 354.728,68.586 354.770,68.546 354.908,68.466 354.922,68.446 354.958,68.338 355.016,68.328 355.048,68.425 355.066,68.525 355.098,68.592 355.101,68.625 355.064,68.852 355.163,68.995 355.274,69.055 355.666,69.598 355.812,69.811 356.360,70.289 356.433,70.366 356.631,70.528 356.802,70.688 356.867,70.839 356.868,70.877 356.904,70.922 357.029,70.961 357.049,71.020 357.018,71.102 357.081,71.134 357.092,71.229 357.153,71.269 357.266,71.308 357.397,71.397 357.482,71.398 " admin_lvl="4"/><polyline points="352.837,53.588 349.426,53.620 344.372,51.983 " admin_lvl="4"/><polyline points="360.954,64.140 361.171,63.888 361.838,63.465 362.650,62.506 362.544,59.854 362.952,58.175 " admin_lvl="4"/><polyline points="353.552,59.173 353.366,58.862 353.153,58.662 352.952,58.575 352.940,58.416 352.879,57.972 352.736,57.463 351.548,56.574 351.475,56.496 351.574,56.265 351.734,56.243 352.483,55.653 353.741,55.396 355.431,54.647 355.986,54.521 356.018,54.495 356.024,54.464 356.024,54.438 356.006,54.388 355.996,54.366 355.957,54.358 353.655,53.843 353.468,53.795 353.212,53.748 353.127,53.703 353.076,53.677 352.837,53.588 " admin_lvl="4"/><polyline points="118.972,299.845 119.401,299.510 120.239,298.403 " admin_lvl="2"/><polyline points="117.114,300.746 117.369,300.630 118.756,299.980 " admin_lvl="2"/><polyline points="353.903,45.515 354.920,44.469 355.399,44.158 356.923,44.952 " admin_lvl="4"/><polyline points="364.957,42.400 365.141,42.504 367.367,45.690 367.518,45.747 369.298,45.892 " admin_lvl="4"/><polyline points="361.417,43.836 362.521,42.716 364.957,42.400 " admin_lvl="4"/><polyline points="115.553,301.674 115.611,301.628 " admin_lvl="2"/><polyline points="361.175,55.729 361.126,55.678 361.073,55.662 360.491,55.941 360.455,55.927 360.248,55.902 360.168,54.972 360.130,54.855 360.000,54.354 359.728,54.074 358.566,53.936 358.508,53.920 358.441,53.901 358.373,53.882 358.058,53.759 357.840,53.673 357.843,53.848 357.961,54.327 357.765,54.464 357.036,54.757 357.043,54.791 357.371,55.993 357.338,58.422 357.157,58.698 356.958,58.737 357.209,58.865 357.238,58.912 357.290,58.997 356.442,59.171 355.751,59.258 355.031,59.320 354.156,59.233 353.906,59.204 353.552,59.173 " admin_lvl="4"/><polyline points="362.952,58.175 361.340,56.202 361.317,56.131 361.175,55.729 " admin_lvl="4"/><polyline points="356.923,44.952 359.983,45.091 360.000,45.084 " admin_lvl="4"/><polyline points="395.180,56.333 395.149,56.360 394.914,56.521 394.670,56.668 394.654,56.695 394.655,56.759 394.689,57.045 394.633,57.438 394.526,57.673 394.479,57.890 394.718,58.010 393.966,58.799 393.863,59.086 394.130,59.581 394.202,59.584 394.300,59.623 394.591,59.695 394.760,60.007 394.803,60.117 394.879,60.398 394.914,60.643 394.893,61.004 394.847,61.180 395.488,61.429 395.965,61.376 396.206,61.393 396.598,61.544 396.816,61.730 397.076,61.742 397.303,61.695 397.420,61.705 397.357,61.852 397.473,62.047 397.407,62.149 397.462,62.174 397.479,62.230 397.509,62.283 397.972,62.579 399.193,62.199 399.387,62.168 399.658,62.049 399.919,61.932 401.303,61.332 401.337,61.305 401.115,60.649 401.340,59.888 401.370,59.788 401.560,58.567 401.663,57.785 401.534,56.738 403.075,56.388 403.595,56.385 404.392,56.134 404.641,56.425 405.167,55.928 405.111,55.725 405.104,55.668 405.130,55.561 405.430,55.364 405.685,54.955 405.900,55.020 406.024,55.062 406.070,54.972 406.458,54.611 406.563,54.591 " admin_lvl="4"/><polyline points="421.745,88.842 422.016,88.663 422.711,88.244 422.770,88.452 422.796,88.529 422.790,88.578 422.712,88.748 422.703,88.782 422.713,88.833 423.404,89.096 423.655,89.196 423.795,89.235 423.897,89.274 423.965,89.336 424.171,89.686 424.634,89.675 424.676,89.683 424.855,89.750 426.033,89.862 426.504,90.496 426.581,90.509 427.071,90.490 427.163,90.747 427.244,90.755 427.476,90.860 427.526,90.930 427.757,90.963 427.892,90.903 428.566,90.834 428.893,90.793 429.048,90.511 429.060,90.465 429.030,90.426 429.011,90.193 429.023,90.165 429.020,90.106 429.072,89.286 429.685,89.249 429.894,88.929 429.942,88.629 430.743,85.707 431.029,85.315 432.101,84.063 433.022,83.580 433.046,83.484 433.609,83.348 433.693,83.286 433.744,83.282 433.849,83.318 434.094,83.242 434.357,82.980 434.554,82.921 434.603,82.699 434.686,82.558 435.234,82.835 435.611,82.893 436.257,82.730 436.822,82.862 436.749,83.031 436.627,83.290 437.055,83.389 437.015,83.432 436.617,83.731 436.648,83.759 " admin_lvl="4"/><polyline points="438.247,90.365 438.402,91.886 " admin_lvl="4"/><polyline points="446.246,103.826 446.445,103.546 446.589,103.356 446.620,103.333 446.659,103.302 446.705,103.266 446.774,103.228 446.974,103.231 447.143,103.222 447.392,103.179 448.475,102.813 448.834,102.726 448.904,102.839 449.715,102.906 450.000,102.826 450.086,102.808 450.555,103.143 451.799,103.421 451.998,103.380 452.335,103.184 452.651,103.121 452.824,103.032 452.917,102.910 453.017,102.907 453.020,102.812 453.000,102.717 453.005,102.626 453.026,102.623 453.223,102.388 453.283,102.185 454.229,99.919 454.720,99.283 455.190,99.209 455.870,98.878 456.632,98.806 456.722,98.744 456.781,98.679 457.303,98.560 457.441,98.456 457.483,98.426 457.707,98.191 457.762,98.134 457.917,97.995 458.446,97.013 458.818,96.578 459.018,96.338 459.121,96.180 459.024,96.181 458.797,96.156 457.872,95.935 457.690,95.882 457.505,95.756 457.490,95.744 457.346,95.621 457.222,95.540 457.118,95.436 457.037,95.366 456.880,95.221 " admin_lvl="4"/><polyline points="357.482,71.398 357.588,71.451 357.608,71.451 357.635,71.450 357.698,71.397 358.375,71.031 358.711,70.884 359.963,70.956 360.523,70.903 360.792,70.888 360.911,70.912 361.036,70.758 361.698,69.893 362.084,69.550 362.409,69.262 362.449,69.212 362.476,69.147 362.757,68.603 362.049,67.924 361.781,67.813 361.853,67.703 361.859,67.548 361.901,67.453 361.633,67.366 361.683,67.242 " admin_lvl="4"/><polyline points="338.700,81.280 338.845,81.339 338.869,81.352 338.904,81.316 338.948,81.240 339.009,81.121 339.022,81.065 339.021,81.026 338.987,80.577 338.991,80.464 339.307,80.001 339.340,79.972 339.375,79.918 339.603,79.677 341.809,77.448 342.212,77.237 342.559,77.105 342.744,77.048 342.728,77.000 342.663,76.826 342.629,76.645 342.553,76.539 342.465,76.472 341.823,76.075 341.681,75.944 341.394,75.144 341.349,75.098 340.839,74.835 340.548,74.704 340.646,74.566 340.889,74.217 341.076,73.970 341.195,73.848 341.029,73.471 340.924,73.360 340.795,73.151 340.778,73.052 340.800,73.040 340.859,72.973 340.881,72.957 341.322,72.686 341.959,72.499 342.292,72.553 342.851,72.804 342.867,72.772 343.085,72.348 343.111,72.301 " admin_lvl="4"/><polyline points="336.989,82.139 338.243,81.143 338.700,81.280 " admin_lvl="4"/><polyline points="224.425,118.524 224.423,119.175 " admin_lvl="4"/><polyline points="224.423,119.175 224.447,119.598 " admin_lvl="4"/><polyline points="502.712,269.062 502.684,269.057 " admin_lvl="4"/><polyline points="308.818,95.000 308.811,95.182 308.821,95.441 " admin_lvl="4"/><polyline points="310.743,79.771 312.363,79.669 314.056,82.602 315.190,83.811 " admin_lvl="4"/><polyline points="111.783,333.028 111.526,331.995 " admin_lvl="2"/><polyline points="111.712,316.080 112.389,314.532 " admin_lvl="2"/><polyline points="118.756,299.980 118.972,299.845 " admin_lvl="2"/><polyline points="113.100,313.060 114.953,307.613 " admin_lvl="2"/><polyline points="282.258,116.816 280.821,117.571 280.745,117.691 280.567,118.016 " admin_lvl="4"/><polyline points="288.799,111.307 288.776,111.430 288.686,111.679 288.590,111.776 287.925,112.088 287.281,112.358 286.789,112.477 286.655,112.481 285.630,111.264 285.611,110.924 285.570,110.915 285.462,111.105 285.348,111.135 285.279,111.197 285.211,111.257 284.755,112.844 284.685,113.082 284.499,113.868 284.008,115.521 283.911,115.677 283.807,115.810 283.636,115.976 283.486,116.101 " admin_lvl="4"/><polyline points="240.491,81.233 240.941,83.372 " admin_lvl="4"/><polyline points="265.001,97.045 264.946,97.050 264.906,97.052 264.525,96.899 264.355,96.845 264.193,96.804 263.888,96.747 263.573,96.527 263.508,96.473 263.185,96.302 263.042,96.016 262.892,95.942 262.760,95.780 262.704,95.683 262.645,95.647 262.394,95.576 262.034,95.530 261.800,95.509 261.728,95.443 261.720,95.333 261.665,95.345 261.481,95.383 260.793,95.539 260.796,95.757 260.308,96.142 260.207,96.303 260.118,96.260 260.019,96.343 260.007,96.339 259.987,96.331 259.742,96.261 259.312,96.316 259.192,96.337 259.160,96.298 259.114,96.231 259.094,96.202 258.637,95.763 258.693,95.565 259.518,95.684 260.079,94.960 259.436,94.976 258.365,93.681 257.489,93.296 257.373,93.661 257.350,94.196 257.516,94.301 257.376,94.295 257.032,93.608 256.424,93.194 256.346,93.161 255.810,92.737 255.793,92.739 255.664,92.790 255.613,92.833 255.533,92.909 255.423,92.964 255.398,92.967 255.415,92.847 255.456,92.725 255.484,92.595 255.496,92.494 255.568,92.365 255.674,92.200 255.802,92.030 255.830,91.996 255.972,91.577 255.640,91.529 255.608,91.500 255.569,91.465 255.621,90.984 255.675,90.924 255.692,90.778 255.749,90.652 " admin_lvl="4"/><polyline points="273.206,99.667 272.877,99.277 272.679,99.031 272.557,98.850 272.546,98.780 272.773,98.288 272.896,98.014 272.825,97.597 273.491,95.257 273.465,95.229 273.418,95.176 273.044,95.053 272.499,94.970 271.778,94.641 271.590,94.691 271.443,94.791 270.884,95.233 " admin_lvl="4"/><polyline points="218.556,133.365 218.412,133.499 218.284,133.631 217.942,134.079 217.662,134.660 217.515,135.448 217.771,136.454 218.092,136.914 218.250,137.098 218.491,137.278 222.185,138.672 222.845,139.337 223.209,140.000 223.309,140.443 223.361,140.728 223.365,140.869 223.180,141.747 223.052,141.970 " admin_lvl="4"/><polyline points="223.969,128.310 221.427,131.272 " admin_lvl="4"/><polyline points="241.826,91.998 240.997,93.715 241.196,94.345 " admin_lvl="4"/><polyline points="277.794,103.264 277.963,103.424 278.065,103.466 278.319,103.522 278.424,103.556 278.717,103.669 278.881,103.749 279.082,104.142 279.108,104.201 279.119,104.225 279.180,104.291 279.272,104.361 279.348,104.417 279.432,104.499 279.770,104.914 279.963,105.156 279.435,106.525 279.332,106.799 279.326,106.899 279.503,106.967 279.915,107.125 280.008,107.109 280.376,107.006 280.460,106.982 281.493,106.693 281.539,106.642 281.623,106.521 281.854,106.272 282.001,106.137 282.158,105.992 282.195,105.948 282.308,105.839 282.410,105.756 282.803,105.543 282.840,105.485 282.853,105.442 283.333,105.063 284.106,103.700 284.180,103.642 284.364,103.500 284.520,103.385 284.648,103.335 284.837,103.268 284.910,103.136 284.961,103.116 285.103,103.080 285.119,103.058 " admin_lvl="4"/><polyline points="273.609,107.477 274.231,105.822 276.747,104.387 277.794,103.264 " admin_lvl="4"/><polyline points="270.207,117.809 270.701,117.917 270.775,117.929 270.841,117.932 270.887,117.926 271.031,117.875 271.097,117.826 271.118,117.451 270.871,116.977 270.900,116.896 271.035,116.479 270.983,116.158 271.133,116.051 271.222,116.007 272.396,115.390 272.965,115.321 273.035,115.332 273.996,115.608 274.169,115.555 274.554,115.380 274.790,114.965 274.829,114.891 275.016,114.524 275.073,114.507 275.153,114.507 275.329,114.273 275.356,114.200 275.362,114.119 275.462,113.929 275.455,113.856 275.455,113.761 275.529,113.538 275.555,113.422 275.568,113.384 275.568,113.368 275.468,113.347 274.985,112.081 275.035,111.499 275.031,111.439 274.908,110.939 274.903,110.904 274.888,110.672 275.064,110.268 275.190,109.973 275.186,109.947 275.143,109.835 275.044,109.702 275.008,109.661 274.987,109.638 274.937,109.566 274.890,109.485 274.881,109.436 274.866,109.027 " admin_lvl="4"/><polyline points="278.809,99.659 278.527,99.765 278.262,99.769 277.950,99.747 277.143,99.649 276.702,99.960 276.678,100.101 276.750,100.225 276.767,100.378 275.395,101.517 275.099,101.696 275.036,101.734 275.002,101.684 274.794,101.715 274.753,101.718 274.704,101.683 274.693,101.655 274.690,101.589 273.886,100.475 273.696,100.233 273.678,100.211 273.529,100.043 273.206,99.667 " admin_lvl="4"/><polyline points="252.978,81.800 254.542,81.090 " admin_lvl="4"/><polyline points="252.000,79.198 250.755,77.219 250.598,77.320 250.374,77.456 " admin_lvl="4"/><polyline points="239.162,78.618 238.413,79.103 " admin_lvl="4"/><polyline points="216.754,102.082 218.415,103.800 218.442,103.826 " admin_lvl="4"/><polyline points="216.337,101.406 216.556,101.818 " admin_lvl="4"/><polyline points="472.804,119.741 472.336,119.652 471.617,119.320 471.472,119.264 471.267,119.298 471.264,119.236 471.089,119.244 470.832,119.267 470.830,119.391 470.980,119.394 471.194,119.415 471.342,119.431 471.755,119.520 471.976,119.647 472.279,119.931 472.314,119.951 472.411,120.057 472.773,120.200 473.158,120.377 473.151,120.530 473.244,120.663 473.524,120.731 474.215,120.902 474.096,121.115 474.062,121.402 474.103,121.669 474.123,121.843 473.932,121.958 473.916,121.953 473.513,121.838 473.502,121.878 473.407,122.113 473.438,122.286 472.600,122.382 472.592,122.416 472.546,122.396 471.959,122.367 471.937,122.698 471.782,122.860 471.739,123.085 471.666,123.287 471.584,123.266 471.343,123.174 470.970,123.290 470.946,123.245 470.955,122.998 470.932,122.838 470.784,122.793 470.410,122.667 469.910,122.650 469.782,122.781 468.733,122.431 468.320,122.747 468.213,122.747 467.379,122.889 467.076,122.991 466.778,123.021 " admin_lvl="4"/><polyline points="470.777,115.146 472.079,117.160 472.317,117.154 472.804,119.741 " admin_lvl="4"/><polyline points="505.941,199.339 506.615,199.998 507.346,201.549 507.243,202.330 " admin_lvl="4"/><polyline points="484.691,169.085 484.647,169.323 484.697,169.330 484.727,169.342 484.757,169.387 487.221,170.150 487.255,170.279 488.095,172.214 488.337,173.633 488.484,173.813 488.472,173.909 488.607,174.202 " admin_lvl="4"/><polyline points="488.607,174.202 482.225,178.598 481.150,180.001 480.766,180.612 " admin_lvl="4"/><polyline points="469.831,149.727 469.481,149.962 468.523,150.269 467.977,150.536 " admin_lvl="4"/><polyline points="473.430,143.873 473.340,143.870 470.818,147.026 469.169,147.721 " admin_lvl="4"/><polyline points="497.500,194.289 498.156,194.884 498.796,194.951 498.820,195.041 " admin_lvl="4"/><polyline points="224.269,85.421 222.199,85.114 222.195,84.403 221.107,83.673 220.964,82.999 220.902,82.971 219.662,82.122 219.652,82.114 218.502,82.018 217.066,81.925 216.622,82.003 215.972,82.892 215.930,82.971 215.753,83.230 213.867,83.136 213.748,83.156 213.691,83.187 213.438,83.380 " admin_lvl="4"/><polyline points="255.749,90.652 255.904,90.425 252.675,85.676 252.516,84.877 " admin_lvl="4"/><polyline points="270.884,95.233 270.625,95.424 270.436,95.628 270.428,95.760 269.858,96.187 269.574,97.326 269.687,97.566 269.737,97.656 269.764,97.743 269.587,97.550 269.379,97.508 269.257,97.435 268.053,97.242 268.036,97.203 267.581,97.146 267.413,97.136 267.393,97.124 267.197,96.995 267.121,96.915 266.788,96.522 266.542,96.474 266.308,96.456 266.100,96.450 265.935,96.424 " admin_lvl="4"/><polyline points="265.935,96.424 265.207,96.943 265.001,97.045 " admin_lvl="4"/><polyline points="239.625,77.724 239.122,78.406 239.162,78.618 " admin_lvl="4"/><polyline points="280.567,118.016 279.957,118.904 279.766,119.172 279.453,119.585 278.294,120.562 277.842,120.862 277.538,120.963 277.475,120.957 277.432,120.949 277.367,120.932 276.690,120.558 276.594,120.465 276.231,120.034 276.067,119.523 275.644,118.801 275.329,118.597 275.232,118.544 274.999,118.466 274.623,118.412 274.415,118.425 274.234,118.509 273.958,118.994 273.776,120.009 273.575,120.406 273.325,120.884 273.029,120.750 272.871,120.910 272.377,120.750 272.298,120.742 272.212,120.710 272.139,120.474 271.996,120.343 271.693,120.102 271.489,119.958 271.347,119.739 271.209,119.721 271.126,119.615 271.039,119.543 270.961,119.490 270.652,119.158 271.176,118.828 271.240,118.768 270.339,118.084 270.266,117.958 270.207,117.809 " admin_lvl="4"/><polyline points="274.866,109.027 274.261,107.780 273.609,107.477 " admin_lvl="4"/><polyline points="283.486,116.101 282.749,116.590 282.258,116.816 " admin_lvl="4"/><polyline points="498.820,195.041 498.845,195.049 498.904,195.016 498.923,195.046 498.936,195.120 498.990,195.119 499.015,195.125 499.053,195.147 499.150,195.170 499.160,195.151 499.062,195.073 499.055,195.048 499.098,194.998 499.149,195.003 499.304,195.156 499.366,195.122 499.360,195.100 499.318,195.024 499.305,195.008 499.287,194.986 499.310,194.804 499.340,194.697 499.193,193.947 499.270,193.950 499.429,194.177 499.580,194.230 499.805,194.674 499.769,193.957 499.971,193.626 500.059,193.641 500.476,194.053 500.521,194.229 501.031,194.532 500.703,193.829 500.932,194.213 501.417,194.401 501.543,194.355 501.578,194.360 501.643,194.369 501.973,194.295 501.982,194.309 502.094,194.276 502.132,194.370 502.450,194.610 502.455,194.802 502.548,194.907 502.519,195.038 502.517,195.082 502.509,195.118 502.486,195.218 502.535,195.353 502.667,195.327 502.602,195.652 501.949,196.273 503.012,197.005 503.213,196.952 503.139,197.157 503.355,197.925 503.443,197.948 503.422,197.980 503.227,198.319 503.184,198.561 503.157,198.781 503.109,198.941 503.106,198.977 503.099,199.044 503.196,199.073 503.468,199.118 503.662,199.070 503.806,199.208 504.441,199.241 504.698,199.246 504.795,199.247 505.052,199.278 505.271,199.283 505.311,199.315 505.399,199.341 505.736,199.350 505.781,199.349 505.941,199.339 " admin_lvl="4"/><polyline points="512.934,208.168 514.677,209.651 514.873,210.927 516.839,211.327 " admin_lvl="4"/><polyline points="514.613,230.812 514.085,231.658 " admin_lvl="4"/><polyline points="513.310,218.742 513.267,218.747 513.232,218.756 513.186,218.777 513.227,218.866 513.291,218.834 513.448,218.825 513.554,218.962 514.349,219.812 514.432,219.835 516.475,220.811 516.644,220.927 517.106,221.279 517.516,221.351 517.407,221.783 517.728,221.838 517.724,221.861 517.887,221.898 518.016,221.961 517.535,223.405 517.433,223.623 517.361,223.600 516.840,223.724 517.248,224.199 517.045,224.512 " admin_lvl="4"/><polyline points="510.543,206.685 510.555,206.685 510.690,206.687 " admin_lvl="4"/><polyline points="507.243,202.330 508.328,202.206 509.219,202.285 511.663,204.532 511.609,204.516 " admin_lvl="4"/><polyline points="513.977,232.586 514.041,232.587 514.182,232.564 514.338,232.529 514.638,232.545 514.747,232.574 515.346,232.908 515.842,232.959 515.838,232.980 516.572,233.328 517.162,233.633 517.207,233.696 517.227,233.807 517.377,233.922 517.303,234.144 517.307,234.186 517.302,234.209 517.228,234.403 517.194,235.085 517.228,235.578 517.315,235.879 517.038,236.513 517.099,236.624 517.097,237.118 517.075,237.183 517.037,237.242 517.032,237.306 517.256,237.595 517.615,237.733 517.349,237.918 517.367,237.950 517.277,237.996 517.145,238.058 " admin_lvl="4"/><polyline points="510.690,206.687 510.777,206.684 511.276,206.690 512.048,206.239 512.176,206.255 513.000,206.337 512.984,206.396 513.610,207.836 513.209,207.757 512.978,208.072 512.934,208.168 " admin_lvl="4"/><polyline points="517.145,238.058 516.588,238.279 516.241,238.643 " admin_lvl="4"/><polyline points="216.825,146.635 214.105,148.839 " admin_lvl="4"/><polyline points="207.238,162.743 207.070,163.098 206.713,163.699 " admin_lvl="4"/><polyline points="204.977,174.672 204.577,176.814 " admin_lvl="4"/><polyline points="205.877,169.923 205.673,171.072 205.620,171.338 " admin_lvl="4"/><polyline points="517.045,224.512 517.130,224.617 517.905,225.305 " admin_lvl="4"/><polyline points="110.430,327.480 109.761,321.628 110.002,320.425 " admin_lvl="2"/><polyline points="111.526,331.995 111.120,330.307 110.430,327.480 " admin_lvl="2"/><polyline points="203.883,180.001 202.611,182.162 " admin_lvl="4"/><polyline points="202.611,182.162 201.565,183.437 201.103,183.902 " admin_lvl="4"/><polyline points="206.713,163.699 205.214,167.646 205.516,168.355 " admin_lvl="4"/><polyline points="195.000,195.782 194.920,196.120 194.915,196.140 " admin_lvl="4"/><polyline points="209.569,151.674 209.281,151.953 " admin_lvl="4"/><polyline points="162.537,240.124 162.721,239.942 162.957,239.704 " admin_lvl="2"/><polyline points="167.921,227.786 168.233,226.940 " admin_lvl="2"/><polyline points="194.811,196.600 194.690,196.982 194.623,197.190 " admin_lvl="4"/><polyline points="207.815,156.249 208.118,156.255 208.989,155.120 210.670,155.784 210.715,156.515 210.266,157.515 208.249,159.972 207.913,160.382 " admin_lvl="4"/><polyline points="193.747,199.243 192.435,201.231 191.597,202.029 " admin_lvl="4"/><polyline points="175.156,215.274 175.270,215.144 " admin_lvl="2"/><polyline points="190.932,202.548 189.224,203.802 " admin_lvl="4"/><polyline points="207.464,161.747 207.424,161.956 207.238,162.743 " admin_lvl="4"/><polyline points="165.851,234.686 165.921,234.267 " admin_lvl="2"/><polyline points="205.620,171.338 205.117,173.931 " admin_lvl="4"/><polyline points="174.267,216.328 174.855,215.599 175.156,215.274 " admin_lvl="2"/><polyline points="488.375,264.023 488.373,264.042 488.382,264.109 488.965,265.056 489.527,265.612 488.163,266.768 488.137,267.077 489.568,268.021 489.746,267.994 489.816,268.019 490.017,268.463 " admin_lvl="4"/><polyline points="496.100,283.575 496.474,284.267 496.609,285.456 " admin_lvl="4"/><polyline points="494.632,279.601 494.281,280.005 494.260,280.207 493.960,282.041 494.423,282.207 495.945,283.251 496.100,283.575 " admin_lvl="4"/><polyline points="488.911,268.685 493.140,272.741 " admin_lvl="4"/><polyline points="497.948,262.249 497.910,262.246 497.770,262.255 497.589,262.275 497.749,262.518 497.766,262.570 497.773,262.632 497.806,263.060 497.746,263.305 497.689,263.364 496.955,263.154 496.133,262.674 495.974,262.601 495.485,262.778 495.309,262.523 495.498,262.218 494.957,261.821 493.893,261.313 493.677,261.171 493.659,260.993 493.206,260.495 492.413,259.871 492.380,259.840 491.789,259.696 491.051,259.454 490.595,259.324 490.463,259.308 490.322,259.270 490.266,260.000 490.284,260.247 490.331,260.473 490.396,260.715 490.529,261.191 490.538,261.252 490.748,262.074 490.810,262.508 490.843,262.660 490.879,262.754 490.888,262.778 490.939,262.842 " admin_lvl="4"/><polyline points="490.734,296.427 488.474,296.131 487.146,298.022 486.146,297.731 484.632,297.903 " admin_lvl="4"/><polyline points="82.340,435.648 84.459,429.591 " admin_lvl="2"/><polyline points="165.921,234.267 166.156,233.207 166.293,232.556 " admin_lvl="2"/><polyline points="168.233,226.940 169.214,224.482 " admin_lvl="2"/><polyline points="459.981,350.106 461.612,356.585 " admin_lvl="4"/><polyline points="458.560,342.662 459.861,343.733 " admin_lvl="4"/><polyline points="480.617,303.305 479.404,303.913 478.823,304.201 478.282,304.479 477.459,305.201 476.583,305.942 476.582,306.962 476.627,307.324 476.330,307.411 476.037,307.839 476.059,307.851 476.080,307.897 473.703,308.307 471.862,308.647 471.497,308.688 471.162,308.743 470.865,308.828 470.332,308.989 470.108,309.064 " admin_lvl="4"/><polyline points="462.524,360.838 462.599,361.314 " admin_lvl="4"/><polyline points="481.747,302.759 481.102,303.078 480.617,303.305 " admin_lvl="4"/><polyline points="454.699,314.760 453.022,316.022 " admin_lvl="4"/><polyline points="452.530,334.564 455.558,338.692 " admin_lvl="4"/><polyline points="459.321,345.602 459.457,348.105 " admin_lvl="4"/><polyline points="462.821,362.382 462.831,362.433 " admin_lvl="4"/><polyline points="463.559,364.326 463.703,364.822 " admin_lvl="4"/><polyline points="145.475,248.880 146.234,248.117 " admin_lvl="2"/><polyline points="504.172,269.445 504.048,269.357 " admin_lvl="4"/><polyline points="145.047,251.537 145.226,249.759 " admin_lvl="2"/><polyline points="490.939,262.842 490.062,263.887 488.971,263.902 488.375,264.023 " admin_lvl="4"/><polyline points="502.684,269.057 502.684,268.957 502.633,268.915 502.813,268.528 502.672,268.240 502.478,268.211 502.415,268.220 502.232,267.228 502.108,266.880 502.215,266.925 502.754,266.901 502.739,266.801 502.654,266.629 502.567,266.387 502.192,264.715 502.180,264.643 502.127,264.488 502.087,264.261 502.078,264.131 501.952,263.998 501.815,263.826 501.766,263.765 501.580,263.624 500.911,262.930 500.592,262.727 500.635,262.446 500.718,262.323 500.553,262.238 500.426,262.272 499.987,262.062 499.620,261.913 499.452,261.845 499.122,261.922 498.754,261.931 498.468,262.034 498.440,262.073 498.427,262.127 498.428,262.185 498.466,262.297 498.390,262.432 498.289,262.469 498.131,262.536 498.086,262.517 498.022,262.453 498.019,262.375 498.009,262.324 497.948,262.249 " admin_lvl="4"/><polyline points="496.794,276.874 498.059,278.903 " admin_lvl="4"/><polyline points="497.662,279.127 496.060,279.744 " admin_lvl="4"/><polyline points="495.603,290.363 496.529,294.145 " admin_lvl="4"/><polyline points="494.979,296.368 494.477,296.653 " admin_lvl="4"/><polyline points="147.837,247.783 152.101,247.825 152.558,247.496 " admin_lvl="2"/><polyline points="519.753,265.864 516.488,266.738 514.037,267.245 511.636,267.796 " admin_lvl="4"/><polyline points="511.636,267.796 511.564,267.785 511.519,267.740 511.502,267.679 511.491,267.534 511.450,267.203 511.741,267.162 511.653,267.051 511.410,267.065 511.121,266.994 511.116,266.968 511.284,266.467 512.102,266.234 512.191,266.179 512.353,266.067 512.215,265.868 512.673,265.494 512.980,265.936 513.228,265.945 513.479,265.833 513.700,265.780 513.767,265.714 513.780,265.607 513.802,265.564 513.821,265.521 513.845,265.478 513.898,265.402 513.920,265.325 513.898,265.250 513.925,265.121 513.645,264.995 513.610,264.967 513.596,264.891 513.545,264.974 513.491,265.155 513.438,265.098 513.523,264.784 513.523,264.389 513.514,264.127 512.910,263.545 512.807,263.478 513.185,263.287 513.319,263.180 513.360,263.078 513.397,262.842 513.408,262.736 513.305,262.323 513.380,262.188 513.434,262.050 513.412,261.898 514.022,262.335 514.084,262.608 514.165,262.589 514.362,262.565 514.494,262.789 514.556,262.734 514.669,262.658 514.537,262.536 514.760,262.451 514.796,262.570 515.140,262.229 515.289,262.177 515.226,262.022 515.102,261.844 515.229,261.832 515.385,261.815 515.843,261.655 515.878,261.564 515.849,261.548 515.821,261.527 515.878,261.381 515.875,261.224 515.848,261.103 515.818,261.106 515.767,260.908 515.586,260.763 515.469,260.617 515.397,260.646 515.317,260.672 515.044,260.524 514.820,260.366 514.664,260.139 514.386,260.202 514.332,260.268 514.281,260.368 514.246,260.573 514.031,260.728 513.990,260.752 513.732,260.909 513.710,260.871 513.632,260.933 513.026,261.046 512.801,260.831 512.747,260.741 512.615,260.608 512.496,260.579 512.224,260.392 511.995,260.185 511.922,260.121 511.604,260.342 511.488,260.261 511.197,260.264 510.927,260.343 510.906,260.400 510.887,260.474 510.852,260.605 510.836,260.645 510.785,260.710 510.817,260.731 511.090,261.097 510.971,261.109 510.680,261.155 510.624,261.155 510.589,261.103 510.244,261.330 510.484,261.563 510.538,261.606 510.233,261.573 509.821,261.749 509.318,262.118 509.013,262.160 508.844,262.479 508.801,262.578 508.782,262.750 508.780,262.854 508.801,262.886 508.820,262.923 508.894,263.337 508.784,263.550 508.763,263.742 508.814,264.177 508.494,264.483 508.608,264.666 508.673,264.898 508.579,265.075 508.005,265.275 508.032,265.521 508.413,265.793 508.313,265.934 508.419,266.414 508.384,266.575 507.574,266.630 507.388,266.953 507.113,266.813 507.078,266.771 506.884,266.719 506.847,266.726 506.731,266.820 506.153,267.306 505.803,267.330 505.779,267.380 505.447,267.261 505.552,267.354 505.517,267.404 505.256,267.250 505.008,267.564 504.995,267.700 504.966,267.791 504.977,267.869 504.886,268.489 504.884,268.564 504.860,268.667 504.709,268.591 504.693,268.617 504.510,268.918 504.354,268.915 504.284,268.928 504.234,269.306 504.212,269.313 504.198,269.321 504.180,269.372 504.180,269.418 504.172,269.445 " admin_lvl="4"/><polyline points="470.908,459.261 470.914,459.283 470.946,459.468 470.891,459.665 470.898,459.772 470.917,460.000 470.929,460.306 470.356,460.802 470.075,461.029 469.754,461.352 469.749,461.409 469.222,461.857 469.430,462.103 469.503,462.237 469.547,462.334 469.566,462.408 469.573,462.543 469.721,462.697 469.889,462.936 469.917,463.011 469.908,463.082 469.565,463.928 469.600,464.110 469.490,464.439 469.522,464.548 469.494,464.661 469.457,464.740 469.420,464.793 469.379,464.813 469.332,464.827 468.994,464.860 468.845,465.018 468.752,465.075 468.651,465.106 468.530,465.302 468.493,465.349 468.409,465.420 467.988,465.594 467.919,465.633 467.386,466.041 467.185,466.060 467.017,466.103 467.007,466.231 467.031,466.322 467.080,466.778 466.955,466.770 466.851,466.725 466.736,466.768 465.884,466.550 464.856,466.318 464.318,465.851 463.700,465.224 463.660,465.244 463.498,465.318 463.485,465.324 463.454,465.344 463.584,465.512 463.613,465.549 463.645,465.590 463.678,465.633 463.829,465.827 463.856,465.863 463.904,465.912 464.134,466.220 464.119,466.243 463.893,466.476 464.074,466.640 464.099,466.730 463.854,467.452 463.608,467.411 463.273,467.444 463.270,467.475 463.290,467.504 463.361,467.606 463.463,467.893 463.411,468.085 463.277,468.170 463.208,468.195 463.174,468.227 463.153,468.288 463.078,468.362 462.487,468.920 462.263,469.189 462.308,469.349 462.438,470.135 462.301,470.190 462.150,470.097 462.042,470.236 461.893,470.538 462.203,470.480 462.191,470.688 461.732,471.227 461.654,471.304 461.462,471.487 461.421,471.544 461.403,471.580 461.400,471.642 461.419,471.670 461.507,471.690 461.544,471.703 461.573,471.736 461.632,471.759 461.667,471.779 461.715,471.913 461.653,472.060 461.557,472.179 " admin_lvl="4"/><polyline points="467.736,449.813 467.418,450.709 466.936,451.943 467.028,452.384 " admin_lvl="4"/><polyline points="470.762,381.557 470.269,383.478 470.285,383.600 471.609,385.209 471.495,385.710 471.502,385.936 471.212,387.341 " admin_lvl="4"/><polyline points="471.212,387.341 470.952,389.278 470.386,391.294 " admin_lvl="4"/><polyline points="466.567,416.476 466.433,416.869 " admin_lvl="4"/><polyline points="464.946,427.239 465.146,427.106 465.317,426.933 465.330,426.916 465.412,427.037 465.506,427.126 465.547,427.112 465.637,427.066 465.773,427.127 465.807,427.183 465.755,427.260 465.749,427.302 465.777,427.372 465.844,427.465 465.841,427.485 465.789,427.768 465.749,427.864 465.699,427.918 465.763,428.128 465.706,428.477 465.708,428.503 465.764,428.783 465.464,428.799 465.271,429.041 464.511,429.235 464.781,429.385 465.000,429.497 464.895,429.597 464.125,430.096 464.210,430.130 464.176,430.237 464.230,430.343 464.531,430.305 464.664,430.565 464.859,430.769 464.812,430.797 464.765,430.814 464.835,430.994 464.923,430.996 464.931,430.861 465.243,430.131 466.177,429.625 466.221,430.141 466.455,430.525 466.496,430.595 466.415,430.680 465.352,431.417 465.321,431.436 465.513,431.628 465.601,431.756 466.229,431.930 466.862,432.582 466.913,432.568 467.938,434.383 468.017,434.414 468.223,434.463 468.359,434.619 468.490,434.587 468.581,434.640 468.591,434.724 468.675,435.105 468.745,435.211 468.764,435.346 468.782,435.380 468.837,435.446 468.900,435.471 468.987,435.479 469.101,435.475 469.413,435.470 469.617,435.503 469.801,435.995 " admin_lvl="4"/><polyline points="396.751,481.818 393.441,482.242 393.249,482.583 392.992,483.326 " admin_lvl="4"/><polyline points="409.288,478.475 409.097,478.663 409.057,478.629 408.408,478.463 408.030,478.429 407.743,478.442 406.924,478.741 406.003,479.652 405.803,479.673 405.728,479.680 405.000,479.429 403.883,478.538 403.880,478.087 403.868,478.020 403.818,477.939 " admin_lvl="4"/><polyline points="411.353,477.997 410.956,477.328 " admin_lvl="4"/><polyline points="419.867,470.977 419.840,471.452 415.681,475.275 " admin_lvl="4"/><polyline points="438.892,468.950 438.052,468.287 " admin_lvl="4"/><polyline points="435.553,467.884 433.609,467.019 431.845,465.235 " admin_lvl="4"/><polyline points="444.518,469.276 440.671,468.939 " admin_lvl="4"/><polyline points="452.807,462.962 450.000,463.534 449.830,463.700 " admin_lvl="4"/><polyline points="514.604,244.193 514.766,244.243 514.799,244.320 514.840,244.372 514.916,244.435 515.002,244.518 515.078,244.601 515.118,244.674 515.142,244.745 514.527,244.671 514.484,244.648 514.501,244.781 514.488,245.167 514.307,245.347 514.420,245.405 514.541,245.532 514.512,246.004 514.325,245.952 514.355,245.853 514.117,245.577 513.337,245.471 512.789,245.475 512.741,245.318 512.840,245.122 512.999,245.059 513.032,244.998 513.030,244.763 512.614,244.715 512.561,244.709 512.317,244.960 512.339,245.073 512.358,245.154 512.337,245.276 512.385,245.601 511.875,245.632 511.832,245.701 511.806,245.759 511.807,245.807 511.810,245.888 511.811,245.914 512.527,246.424 512.761,247.294 514.086,248.828 513.669,248.910 513.704,248.961 513.410,249.383 513.211,249.302 513.193,249.377 513.176,249.422 512.547,249.796 512.609,249.909 512.730,249.910 512.772,249.936 512.853,250.194 513.178,250.146 513.347,250.411 512.591,250.349 512.390,250.342 512.389,250.377 512.402,250.418 513.073,250.708 513.201,250.697 513.237,250.674 513.296,250.651 513.414,250.646 513.611,250.644 513.666,250.801 513.747,250.891 513.677,251.000 513.572,251.159 " admin_lvl="4"/><polyline points="518.884,254.167 519.049,254.159 519.272,254.117 519.736,254.448 519.743,254.578 519.759,254.826 519.761,255.034 519.289,255.506 519.529,255.545 520.055,255.645 520.103,255.988 521.001,257.471 521.446,257.600 522.227,257.480 522.285,257.602 522.346,257.825 522.344,257.865 522.262,258.041 522.308,258.111 522.460,258.400 520.764,259.002 520.719,259.276 520.712,259.410 521.161,259.458 521.432,259.563 521.520,259.569 521.899,260.196 521.929,260.640 521.884,260.780 521.880,260.831 521.906,260.848 521.908,261.039 522.099,260.944 522.567,260.657 523.061,260.645 " admin_lvl="4"/><polyline points="516.241,238.643 516.219,238.652 516.181,238.681 516.172,238.723 516.176,238.801 516.167,238.931 516.113,238.995 515.885,239.216 515.822,239.331 515.618,239.445 514.123,239.894 513.938,239.844 513.711,239.834 513.469,239.970 513.417,239.979 513.373,239.976 513.297,239.954 513.246,240.039 513.196,240.149 513.182,240.226 513.230,240.357 513.102,240.870 513.418,241.104 513.790,241.002 514.622,241.310 514.646,242.058 514.874,241.940 514.946,241.984 514.615,242.371 514.418,242.390 514.351,242.590 514.181,242.952 514.403,243.358 514.347,243.535 514.059,243.801 514.056,243.937 514.224,244.297 514.328,244.308 514.409,244.453 514.494,244.305 514.492,244.236 " admin_lvl="4"/><polyline points="517.905,225.305 517.644,225.528 517.883,225.746 517.854,225.990 517.749,226.437 517.268,226.832 517.137,227.302 518.072,227.936 517.902,229.245 517.894,229.387 517.730,229.417 517.695,229.412 517.663,229.421 517.600,229.433 515.588,230.500 515.196,230.577 515.145,230.591 515.021,230.640 514.838,230.704 514.838,230.731 514.613,230.812 " admin_lvl="4"/><polyline points="517.206,212.017 517.150,212.249 517.289,212.239 517.659,212.234 517.706,212.504 517.125,212.674 515.901,213.050 515.866,213.093 515.650,213.276 515.640,213.331 515.637,213.435 516.176,213.763 517.335,214.699 517.407,214.796 518.155,215.508 518.210,215.571 518.522,216.586 518.042,216.974 " admin_lvl="4"/><polyline points="515.406,218.308 513.508,218.725 " admin_lvl="4"/><polyline points="484.347,302.274 483.796,302.286 " admin_lvl="4"/><polyline points="387.406,492.815 382.585,492.565 " admin_lvl="2"/><polyline points="110.536,336.107 111.258,335.347 111.657,334.603 111.783,333.028 " admin_lvl="2"/><polyline points="280.659,459.044 277.771,459.169 277.326,459.306 " admin_lvl="2"/><polyline points="280.936,459.238 280.848,459.160 280.659,459.044 " admin_lvl="2"/><polyline points="281.317,468.763 281.317,468.749 " admin_lvl="2"/><polyline points="265.385,458.630 268.584,458.951 268.722,458.973 269.024,459.144 " admin_lvl="2"/><polyline points="260.448,456.757 258.816,455.999 257.689,455.688 " admin_lvl="2"/><polyline points="261.041,449.465 260.990,449.403 260.903,449.354 260.830,449.334 260.455,449.202 260.249,448.962 259.657,448.591 259.436,448.337 259.540,448.224 259.679,448.056 259.105,447.541 258.503,447.422 258.353,447.189 257.977,447.228 257.975,447.195 257.593,447.085 257.568,447.140 257.108,446.930 256.960,447.000 256.769,447.046 254.674,448.541 254.331,448.782 254.306,448.824 254.137,448.825 253.891,448.739 253.392,448.367 253.194,448.163 253.158,447.935 253.225,447.819 253.288,447.665 " admin_lvl="2"/><polyline points="270.983,452.316 270.693,452.626 269.865,454.577 " admin_lvl="2"/><polyline points="253.260,445.283 253.105,445.165 252.929,445.013 252.816,444.929 252.637,444.739 252.512,444.566 252.478,444.466 252.442,444.236 252.466,444.164 252.499,444.085 252.502,443.898 252.272,443.406 252.318,443.264 252.208,443.110 252.037,443.000 252.041,442.905 251.584,442.812 251.355,442.839 250.838,442.551 250.659,442.485 250.461,442.526 250.241,442.496 249.933,442.254 249.771,442.000 249.664,441.920 249.381,441.745 249.302,441.683 249.010,441.620 248.823,441.632 248.763,441.636 248.671,441.513 249.115,441.169 249.004,440.769 248.424,439.913 247.935,440.015 247.393,440.283 247.373,440.412 247.345,440.753 247.323,440.989 247.044,441.052 246.991,441.251 246.988,441.383 246.951,441.569 246.811,442.167 247.316,443.135 247.450,443.424 247.462,443.503 247.427,444.050 247.413,444.118 247.240,444.762 247.197,445.212 247.432,445.160 247.507,445.160 247.604,445.150 247.938,445.334 247.863,445.421 247.830,445.460 247.453,445.894 247.391,445.952 246.855,446.354 246.924,446.425 247.058,446.535 247.073,446.708 246.809,447.010 " admin_lvl="2"/><polyline points="392.992,483.326 392.537,483.719 " admin_lvl="4"/><polyline points="392.067,484.038 391.514,483.353 390.608,483.019 " admin_lvl="4"/><polyline points="466.440,373.814 466.601,374.159 " admin_lvl="4"/><polyline points="470.503,379.557 470.594,379.965 470.898,380.199 " admin_lvl="4"/><polyline points="95.383,361.260 95.537,360.903 95.567,360.839 " admin_lvl="2"/><polyline points="101.842,349.636 101.968,349.183 " admin_lvl="2"/><polyline points="125.146,482.790 125.124,482.776 125.052,482.763 124.996,482.724 123.299,482.424 122.919,482.547 122.855,482.585 122.817,482.623 122.450,483.250 122.229,483.791 121.686,486.063 121.654,486.118 120.801,486.762 120.657,486.862 119.839,487.680 119.614,488.144 119.532,488.235 119.465,488.368 119.422,488.453 119.388,488.500 119.353,488.524 119.196,488.569 118.385,488.996 118.335,489.049 115.593,489.690 113.846,490.285 113.743,490.328 113.662,490.359 113.416,490.542 113.178,490.856 113.121,490.915 112.926,491.000 " admin_lvl="2"/><polyline points="108.210,491.575 107.584,491.733 107.020,492.043 " admin_lvl="2"/><polyline points="450.547,320.238 449.952,320.575 448.394,321.294 " admin_lvl="4"/><polyline points="449.913,327.254 450.000,327.761 449.198,328.869 " admin_lvl="4"/><polyline points="455.235,313.398 456.366,313.270 " admin_lvl="4"/><polyline points="445.579,323.961 445.436,324.073 445.505,324.334 445.641,324.576 445.274,324.940 445.742,326.474 445.928,326.720 446.110,326.954 446.340,327.210 446.445,327.295 446.540,327.359 446.789,327.493 446.963,327.523 447.215,327.526 447.478,326.273 448.067,325.937 448.217,325.901 448.904,326.263 448.935,326.304 449.042,327.295 449.266,327.196 449.379,327.192 449.611,327.175 449.762,327.202 449.913,327.254 " admin_lvl="4"/><polyline points="448.394,321.294 445.900,323.889 445.814,323.911 445.579,323.961 " admin_lvl="4"/><polyline points="452.593,316.357 452.470,316.670 " admin_lvl="4"/><polyline points="388.527,485.598 382.585,492.565 " admin_lvl="4"/><polyline points="175.270,215.144 176.179,214.012 178.085,210.992 " admin_lvl="2"/><polyline points="171.569,220.207 174.005,216.707 174.267,216.328 " admin_lvl="2"/><polyline points="162.957,239.704 163.776,238.786 " admin_lvl="2"/><polyline points="152.558,247.496 152.673,247.385 152.910,247.144 153.447,246.264 153.548,245.997 153.633,245.589 153.917,243.406 154.025,243.137 154.074,243.058 154.212,242.877 154.356,242.726 154.560,242.549 154.734,242.425 154.938,242.300 155.211,242.158 156.853,241.828 157.072,241.843 157.320,241.880 158.890,242.210 159.393,242.143 160.347,241.821 160.947,241.459 161.183,241.286 161.509,241.027 161.904,240.698 162.537,240.124 " admin_lvl="2"/><polyline points="322.375,466.483 320.710,467.103 " admin_lvl="2"/><polyline points="319.068,466.561 318.908,466.538 " admin_lvl="2"/><polyline points="226.142,113.914 225.319,115.750 " admin_lvl="4"/><polyline points="213.553,91.878 213.928,93.051 " admin_lvl="4"/><polyline points="228.739,90.196 227.554,88.973 " admin_lvl="4"/><polyline points="218.983,107.093 218.920,107.131 " admin_lvl="4"/><polyline points="215.477,98.109 216.042,100.000 " admin_lvl="4"/><polyline points="218.442,103.826 218.523,103.920 " admin_lvl="4"/><polyline points="252.959,76.268 252.308,76.636 " admin_lvl="4"/><polyline points="253.247,76.117 253.995,75.405 253.921,75.314 253.730,75.257 " admin_lvl="4"/><polyline points="468.172,376.268 469.913,377.321 " admin_lvl="4"/><polyline points="470.898,380.199 471.040,380.970 " admin_lvl="4"/><polyline points="216.313,108.815 216.228,109.266 " admin_lvl="4"/><polyline points="241.196,94.345 239.646,93.732 239.006,94.800 238.924,95.288 " admin_lvl="4"/><polyline points="238.924,95.288 238.240,95.511 237.412,95.702 " admin_lvl="4"/><polyline points="220.537,472.202 220.827,472.307 220.955,472.335 221.015,472.339 221.113,472.151 221.394,472.110 221.665,472.043 221.365,471.902 221.324,471.869 221.258,471.813 220.931,471.832 220.828,471.802 220.732,471.476 221.327,471.264 221.424,470.696 221.371,470.684 220.983,470.469 220.944,470.202 221.006,470.120 221.055,470.075 221.111,470.058 221.442,469.989 221.517,470.005 221.820,470.088 222.054,470.154 222.309,470.511 222.315,470.613 223.348,471.219 223.556,471.534 223.843,471.588 224.059,471.144 224.094,470.678 225.021,470.771 224.935,470.574 226.249,470.638 226.568,470.584 226.599,470.581 226.630,470.539 226.780,470.491 227.853,470.820 227.996,470.889 228.276,470.986 228.976,470.945 229.373,470.865 229.616,470.861 229.688,470.886 229.697,470.875 229.716,470.852 229.745,470.825 229.776,470.832 " admin_lvl="2"/><polyline points="229.776,470.832 229.908,470.615 230.199,470.072 229.035,467.903 " admin_lvl="2"/><polyline points="212.778,463.436 212.770,463.458 212.760,463.488 212.606,463.847 212.432,464.061 212.407,464.006 211.902,464.138 211.481,464.184 211.403,464.204 210.945,464.829 210.844,465.211 211.080,465.502 211.102,465.521 211.216,465.704 211.459,466.163 212.209,466.778 213.730,466.831 214.894,467.675 214.934,467.721 215.211,468.005 216.246,468.836 216.458,468.979 216.535,469.033 216.791,469.231 217.303,469.085 217.346,469.071 " admin_lvl="2"/><polyline points="212.517,458.004 212.210,458.500 212.058,458.683 211.721,459.002 211.636,459.083 210.960,460.000 210.725,460.409 210.813,460.482 210.845,460.544 212.022,461.421 212.721,462.336 212.810,462.597 212.862,462.806 212.915,462.901 213.130,463.213 " admin_lvl="2"/><polyline points="135.867,484.415 135.066,483.591 " admin_lvl="2"/><polyline points="171.537,481.432 170.715,482.653 " admin_lvl="2"/><polyline points="178.660,477.444 178.571,477.563 " admin_lvl="2"/><polyline points="155.500,489.418 152.096,489.710 151.796,489.542 151.229,489.093 " admin_lvl="2"/><polyline points="202.955,485.933 201.781,485.878 " admin_lvl="2"/><polyline points="187.751,477.163 184.250,478.965 " admin_lvl="2"/><polyline points="166.603,483.411 165.315,486.145 165.124,487.016 164.551,487.825 " admin_lvl="2"/><polyline points="178.085,210.992 178.154,210.858 " admin_lvl="2"/><polyline points="178.154,210.858 178.535,210.100 181.270,207.803 183.431,207.188 184.878,206.711 " admin_lvl="2"/><polyline points="91.967,408.348 92.290,407.779 93.301,405.219 92.879,403.158 92.633,402.430 91.815,400.702 91.350,399.980 " admin_lvl="2"/><polyline points="148.541,488.800 144.801,488.612 " admin_lvl="2"/><polyline points="277.212,459.141 277.002,458.780 276.993,458.754 276.939,458.590 276.868,458.481 276.842,458.176 276.822,457.770 276.452,457.559 276.082,457.469 276.053,457.430 275.932,457.427 274.663,457.310 274.079,457.690 273.773,457.788 273.448,457.684 273.523,457.566 273.354,457.515 272.852,457.445 272.839,457.336 272.909,457.290 273.239,457.067 273.373,456.933 272.300,455.761 271.466,455.113 271.360,455.103 270.727,455.106 270.723,454.994 270.738,454.949 271.727,454.173 271.380,453.795 271.241,453.748 271.232,453.708 271.167,453.451 271.092,453.310 271.052,453.063 271.073,452.868 271.127,452.582 270.983,452.316 " admin_lvl="2"/><polyline points="269.865,454.577 269.746,454.564 269.429,454.467 268.288,454.454 268.169,454.491 267.973,454.734 267.724,454.522 265.529,456.182 265.468,456.418 265.437,458.207 265.417,458.530 265.385,458.630 " admin_lvl="2"/><polyline points="269.024,459.144 269.137,459.245 269.334,459.298 269.388,459.373 269.768,459.921 269.793,459.975 269.782,460.212 269.691,460.478 269.840,460.624 271.201,460.955 271.423,461.246 271.496,461.335 271.406,461.406 270.948,461.660 270.877,461.689 270.746,461.680 269.418,462.826 269.403,462.887 269.272,463.240 269.047,463.904 269.031,464.155 269.063,464.253 269.134,464.430 269.204,464.556 269.342,464.828 269.377,464.937 " admin_lvl="2"/><polyline points="252.533,445.872 253.036,445.532 253.098,445.444 253.260,445.283 " admin_lvl="2"/><polyline points="252.533,445.872 253.147,447.566 " admin_lvl="2"/><polyline points="224.447,119.598 224.447,119.604 " admin_lvl="4"/><polyline points="406.620,54.641 407.519,58.570 409.144,61.805 " admin_lvl="4"/><polyline points="230.519,473.823 228.113,473.137 227.478,473.590 " admin_lvl="2"/><polyline points="239.260,480.388 239.247,480.271 239.362,478.883 " admin_lvl="4"/><polyline points="233.492,480.438 232.566,481.547 " admin_lvl="4"/><polyline points="250.220,464.473 250.413,463.025 " admin_lvl="4"/><polyline points="249.513,462.835 249.469,462.939 246.319,461.106 " admin_lvl="4"/><polyline points="236.620,482.445 236.717,482.195 238.102,481.132 " admin_lvl="4"/><polyline points="240.939,466.226 241.211,465.479 241.551,465.047 243.593,464.732 " admin_lvl="4"/><polyline points="238.102,481.132 238.939,480.880 " admin_lvl="4"/><polyline points="212.807,486.974 213.845,486.432 " admin_lvl="4"/><polyline points="212.609,490.823 212.539,489.946 212.807,486.974 " admin_lvl="4"/><polyline points="218.502,479.537 218.554,480.524 218.886,480.784 219.001,480.997 219.078,482.324 219.404,482.398 220.028,483.150 222.154,482.959 222.262,482.797 223.089,482.516 " admin_lvl="2"/><polyline points="224.204,483.777 223.502,484.078 223.291,484.241 223.097,484.416 " admin_lvl="2"/><polyline points="222.576,484.585 223.097,484.416 " admin_lvl="2"/><polyline points="222.689,477.055 221.790,477.350 221.783,477.552 " admin_lvl="2"/><polyline points="223.089,482.516 223.304,482.434 224.204,483.777 " admin_lvl="2"/><polyline points="234.460,480.110 233.972,480.193 233.766,480.319 " admin_lvl="4"/><polyline points="97.896,487.645 97.241,488.014 95.260,487.478 95.093,487.755 " admin_lvl="2"/><polyline points="94.889,487.699 92.643,488.270 93.400,489.896 93.428,489.992 " admin_lvl="4"/><polyline points="269.829,464.750 269.583,464.885 269.377,464.937 " admin_lvl="4"/><polyline points="95.093,487.755 94.889,487.699 " admin_lvl="4"/><polyline points="102.199,483.804 103.337,485.515 " admin_lvl="2"/><polyline points="258.972,461.444 259.183,461.452 " admin_lvl="4"/><polyline points="93.682,484.117 95.229,482.647 95.310,482.539 " admin_lvl="2"/><polyline points="279.793,468.786 281.319,469.049 " admin_lvl="4"/><polyline points="110.102,493.743 110.090,493.705 107.020,492.043 " admin_lvl="4"/><polyline points="270.540,464.328 269.829,464.750 " admin_lvl="4"/><polyline points="330.375,468.907 336.595,468.294 " admin_lvl="2"/><polyline points="281.319,469.049 281.540,468.999 281.689,469.019 281.853,469.103 283.377,469.761 283.534,469.908 286.676,469.732 289.087,469.044 290.608,468.894 290.874,468.872 291.135,468.813 295.702,466.338 302.977,462.732 303.414,462.698 303.558,462.692 305.130,462.978 305.668,463.117 " admin_lvl="2"/><polyline points="336.595,468.294 340.155,468.753 367.940,481.961 375.415,490.557 " admin_lvl="2"/><polyline points="189.149,477.187 189.077,477.058 " admin_lvl="2"/><polyline points="210.400,484.795 210.321,484.765 " admin_lvl="2"/><polyline points="198.602,485.445 197.507,484.293 197.459,484.231 " admin_lvl="2"/><polyline points="208.480,485.374 207.995,486.486 207.738,486.840 207.468,486.947 204.287,486.140 204.264,486.133 " admin_lvl="2"/><polyline points="193.165,477.913 189.923,478.113 " admin_lvl="2"/><polyline points="183.195,476.885 183.172,476.822 183.096,476.681 182.986,476.542 180.858,475.802 180.711,475.816 180.505,475.845 180.327,475.885 178.809,477.107 178.732,477.312 178.680,477.419 178.660,477.444 " admin_lvl="2"/><polyline points="177.025,479.311 175.808,480.000 " admin_lvl="2"/><polyline points="204.264,486.133 203.430,485.992 " admin_lvl="2"/><polyline points="197.459,484.231 196.876,483.545 196.113,483.087 194.604,482.059 194.558,481.961 194.301,480.831 194.646,478.936 194.534,478.734 194.183,478.433 " admin_lvl="2"/><polyline points="183.552,478.441 183.253,477.045 183.195,476.885 " admin_lvl="2"/><polyline points="150.410,488.800 150.000,488.710 " admin_lvl="2"/><polyline points="166.794,483.325 166.603,483.411 " admin_lvl="2"/><polyline points="173.755,481.104 173.243,480.944 " admin_lvl="2"/><polyline points="151.229,489.093 151.215,489.082 " admin_lvl="2"/><polyline points="144.461,488.468 144.159,488.364 " admin_lvl="2"/><polyline points="140.676,490.911 140.589,490.864 " admin_lvl="2"/><polyline points="164.551,487.825 164.259,488.039 164.059,488.151 163.906,488.254 163.403,488.474 163.275,488.495 162.481,488.498 162.040,488.325 161.746,488.131 161.458,487.906 161.205,487.681 160.430,487.104 160.167,487.082 160.080,487.100 159.876,487.156 159.625,487.281 159.328,487.365 158.838,487.365 158.209,487.962 157.893,488.266 157.712,488.367 157.195,488.746 157.103,488.828 157.030,488.878 156.916,488.937 156.908,488.940 " admin_lvl="2"/><polyline points="156.908,488.940 156.381,489.136 155.500,489.418 " admin_lvl="2"/><polyline points="136.142,487.665 136.652,485.971 " admin_lvl="2"/><polyline points="134.688,483.199 134.481,483.021 134.266,482.848 " admin_lvl="2"/><polyline points="125.596,483.381 125.463,483.288 125.146,482.790 " admin_lvl="2"/><polyline points="112.926,491.000 112.596,491.145 " admin_lvl="2"/><polyline points="107.020,492.043 105.400,492.918 105.087,493.109 " admin_lvl="2"/><polyline points="251.805,78.095 251.747,78.077 " admin_lvl="4"/><polyline points="252.533,76.233 252.601,76.099 " admin_lvl="4"/><polyline points="251.829,77.587 252.382,76.644 " admin_lvl="4"/><polyline points="250.374,77.456 250.374,77.361 " admin_lvl="4"/><polyline points="250.743,76.563 253.002,76.136 " admin_lvl="4"/><polyline points="250.413,463.025 249.513,462.835 " admin_lvl="2"/><polyline points="242.182,467.686 241.923,467.839 240.939,466.226 " admin_lvl="2"/><polyline points="244.237,470.330 244.328,470.069 244.339,469.653 242.182,467.686 " admin_lvl="2"/><polyline points="240.516,477.811 240.707,477.432 240.741,477.313 239.320,471.536 " admin_lvl="2"/><polyline points="234.460,480.110 234.583,480.301 236.189,480.867 238.882,478.774 239.362,478.883 " admin_lvl="2"/><polyline points="239.362,478.883 240.516,477.811 " admin_lvl="2"/><polyline points="239.320,471.536 239.332,471.456 239.583,471.185 239.948,471.023 240.393,470.575 240.434,470.412 240.486,470.124 240.794,469.588 241.134,469.511 241.538,469.708 241.772,469.915 242.098,471.116 242.024,471.295 241.605,471.628 240.511,472.261 240.561,472.327 240.714,472.469 242.482,472.422 242.841,472.299 242.967,472.244 243.730,471.480 244.126,470.527 244.237,470.330 " admin_lvl="2"/><polyline points="219.625,485.561 221.687,484.399 " admin_lvl="2"/><polyline points="213.845,486.432 219.107,485.587 219.625,485.561 " admin_lvl="2"/><polyline points="220.644,478.701 220.312,478.903 218.502,479.537 " admin_lvl="2"/><polyline points="227.478,473.590 227.233,474.344 226.247,476.211 222.689,477.055 " admin_lvl="2"/><polyline points="231.437,474.590 230.848,474.482 230.893,474.336 " admin_lvl="2"/><polyline points="231.437,474.590 231.586,474.893 232.892,475.046 233.801,475.377 233.982,475.774 234.194,475.838 234.297,476.146 234.309,476.310 235.459,476.638 235.551,476.845 235.533,477.048 235.728,477.207 235.734,477.263 236.144,477.670 234.961,478.273 234.901,478.961 234.754,479.113 234.488,479.524 234.246,479.739 234.460,480.110 " admin_lvl="2"/><polyline points="96.870,489.645 95.596,488.008 95.093,487.755 " admin_lvl="2"/><polyline points="101.064,493.199 99.575,492.025 " admin_lvl="2"/><polyline points="102.173,493.452 101.558,493.364 " admin_lvl="2"/><polyline points="323.585,466.828 324.219,467.650 " admin_lvl="2"/><polyline points="305.668,463.117 314.439,464.379 314.766,464.449 " admin_lvl="2"/><polyline points="325.779,468.935 326.619,469.061 " admin_lvl="2"/><polyline points="314.766,464.449 315.332,464.620 315.486,464.695 318.908,466.538 " admin_lvl="2"/><polyline points="252.345,462.003 251.451,462.608 250.413,463.025 " admin_lvl="2"/><polyline points="281.317,468.749 281.318,468.661 281.306,467.924 281.022,465.941 280.999,465.931 280.031,464.685 278.963,463.863 278.915,463.859 278.334,463.872 277.988,463.783 277.743,463.767 " admin_lvl="2"/><polyline points="88.237,482.297 88.356,482.021 " admin_lvl="2"/><polyline points="104.069,479.846 101.607,481.728 100.962,482.367 102.199,483.804 " admin_lvl="2"/><polyline points="88.356,482.021 88.975,482.205 90.732,484.425 93.682,484.117 " admin_lvl="2"/><polyline points="96.952,480.639 97.352,480.755 100.829,481.620 103.999,479.817 104.069,479.846 " admin_lvl="2"/><polyline points="103.337,485.515 97.896,487.645 " admin_lvl="2"/><polyline points="218.567,454.173 218.167,455.099 218.137,455.301 " admin_lvl="2"/><polyline points="246.809,447.010 246.694,447.141 246.249,447.094 245.070,447.967 " admin_lvl="2"/><polyline points="213.130,463.213 212.778,463.436 " admin_lvl="2"/><polyline points="233.171,466.126 233.296,466.132 234.563,465.990 " admin_lvl="2"/><polyline points="245.070,447.967 242.893,446.496 243.326,444.533 243.059,444.473 " admin_lvl="2"/><polyline points="242.471,442.604 242.800,440.537 242.084,439.756 " admin_lvl="2"/><polyline points="216.922,455.381 215.593,456.337 212.517,458.004 " admin_lvl="2"/><polyline points="217.346,469.071 219.904,471.243 220.373,472.014 220.537,472.202 " admin_lvl="2"/><polyline points="229.035,467.903 230.161,468.129 230.970,467.140 " admin_lvl="2"/><polyline points="254.734,457.056 255.927,458.065 257.636,461.417 " admin_lvl="2"/><polyline points="234.947,444.394 234.853,444.335 234.418,444.338 234.432,444.185 233.488,443.296 233.164,443.209 232.735,443.194 232.353,443.350 231.175,443.725 231.103,443.735 230.344,444.049 229.808,444.439 228.393,445.029 228.166,445.546 228.085,445.659 228.053,445.900 " admin_lvl="2"/><polyline points="257.689,455.688 257.387,455.160 257.302,454.973 257.262,454.883 257.183,454.710 256.667,453.982 257.154,452.502 257.161,452.285 257.690,451.980 257.940,451.835 258.110,451.546 258.215,451.248 260.717,450.690 260.932,450.691 260.959,450.613 261.226,450.330 261.186,450.267 261.115,450.106 261.041,449.465 " admin_lvl="2"/><polyline points="234.563,465.990 234.522,466.298 234.516,466.372 235.927,467.311 236.450,467.536 236.534,467.587 236.639,467.695 236.730,467.650 236.971,467.521 237.026,467.483 239.387,466.159 240.434,465.494 241.006,465.579 240.983,465.706 240.939,466.226 " admin_lvl="2"/><polyline points="228.053,445.900 227.865,445.874 227.850,445.858 226.523,444.777 " admin_lvl="2"/><polyline points="236.587,443.667 235.933,443.978 235.204,444.234 234.947,444.394 " admin_lvl="2"/><polyline points="250.374,77.361 251.046,77.078 251.209,77.120 " admin_lvl="4"/><polyline points="497.297,288.968 497.007,289.274 " admin_lvl="4"/><polyline points="460.104,443.540 460.389,443.621 460.543,443.609 460.743,443.701 462.747,444.865 462.359,445.765 467.261,447.740 467.427,447.731 467.493,447.790 467.754,448.022 467.441,448.865 467.557,449.650 467.736,449.813 " admin_lvl="4"/><polyline points="463.624,428.151 464.257,427.768 " admin_lvl="4"/><polyline points="461.198,441.666 460.003,442.810 460.333,443.048 460.104,443.540 " admin_lvl="4"/><polyline points="464.393,439.088 461.607,441.323 " admin_lvl="4"/><polyline points="449.585,329.664 449.694,329.941 " admin_lvl="4"/><polyline points="323.496,466.797 323.585,466.828 " admin_lvl="2"/><polyline points="281.319,469.049 281.317,468.763 " admin_lvl="2"/><polyline points="95.310,482.539 95.466,482.326 " admin_lvl="2"/><polyline points="95.945,481.927 96.952,480.639 " admin_lvl="2"/><polyline points="144.159,488.364 143.102,488.779 142.756,489.500 " admin_lvl="2"/><polyline points="136.610,489.635 136.409,489.289 " admin_lvl="2"/><polyline points="238.413,79.103 238.533,79.722 " admin_lvl="4"/><polyline points="246.803,76.172 245.835,76.354 244.236,76.637 " admin_lvl="4"/><polyline points="240.901,77.446 240.390,77.605 239.723,77.773 239.695,77.735 " admin_lvl="4"/><polyline points="243.291,76.826 242.047,77.132 " admin_lvl="4"/><polyline points="239.665,77.701 239.625,77.724 " admin_lvl="4"/><polyline points="241.270,77.361 241.072,77.393 " admin_lvl="4"/><polyline points="241.330,77.353 241.270,77.361 " admin_lvl="4"/><polyline points="239.673,77.699 239.665,77.701 " admin_lvl="4"/><polyline points="239.695,77.735 239.673,77.699 " admin_lvl="4"/><polyline points="240.986,77.419 240.901,77.446 " admin_lvl="4"/><polyline points="241.072,77.393 240.986,77.419 " admin_lvl="4"/><polyline points="240.000,81.307 240.491,81.233 " admin_lvl="4"/><polyline points="252.537,83.817 252.550,82.889 " admin_lvl="4"/><polyline points="121.007,281.077 122.074,279.707 " admin_lvl="2"/></g></svg>