<?xml version="1.0" encoding="utf-8"?>
<!-- Generator: Adobe Illustrator 14.0.0, SVG Export Plug-In . SVG Version: 6.00 Build 43363)  -->
<!DOCTYPE svg PUBLIC "-//W3C//DTD SVG 1.1//EN" "http://www.w3.org/Graphics/SVG/1.1/DTD/svg11.dtd">
<svg version="1.1" id="Layer_1" xmlns="http://www.w3.org/2000/svg" xmlns:xlink="http://www.w3.org/1999/xlink" x="0px" y="0px"
	 width="95.421px" height="90.213px" viewBox="0 0 95.421 90.213" enable-background="new 0 0 95.421 90.213" xml:space="preserve">
<path fill="#FFFFFF" d="M6.301,90.211C2.818,90.209,0.002,87.394,0,83.913l0,0V18.394c0.002-3.481,2.818-6.297,6.301-6.299l0,0
	h33.782l-9.003,9H9v60.117l57.469,0.002V69.125l9.002-9l-0.002,23.788c-0.003,3.479-2.818,6.296-6.3,6.3l0,0L6.301,90.211
	L6.301,90.211z"/>
<path fill="#FFFFFF" d="M66.171,17.301V4l30.25,25.25L66.046,54.625v-13.75c0,0-14.586,3.106-29.583,12.458
	c-8.209,5.084-13.752,11.773-17.167,17.042c0,0,1.11-18.25,11.61-34.875C44.033,14.716,66.171,17.301,66.171,17.301z"/>
</svg>
