<?xml version="1.0" encoding="utf-8"?>
<!-- Generator: Adobe Illustrator 14.0.0, SVG Export Plug-In . SVG Version: 6.00 Build 43363)  -->
<!DOCTYPE svg PUBLIC "-//W3C//DTD SVG 1.1//EN" "http://www.w3.org/Graphics/SVG/1.1/DTD/svg11.dtd">
<svg version="1.1" id="Layer_1" xmlns="http://www.w3.org/2000/svg" xmlns:xlink="http://www.w3.org/1999/xlink" x="0px" y="0px"
	 width="95.421px" height="90.213px" viewBox="0 0 95.421 90.213" enable-background="new 0 0 95.421 90.213" xml:space="preserve">
<path fill="#FFFFFF" d="M89.121,90.211l-62.869,0.002l0,0c-3.481-0.004-6.297-2.821-6.3-6.3L19.95,60.125l9.002,9v12.089
	l57.47-0.002V21.095h-22.08l-9.004-9h33.783l0,0c3.482,0.002,6.299,2.818,6.301,6.299v65.519l0,0
	C95.419,87.394,92.603,90.209,89.121,90.211L89.121,90.211z"/>
<path fill="#FFFFFF" d="M60.099,36.317l12.054-5.622l-10.1,38.087L26.218,51.978l12.462-5.811c0,0-8.979-11.907-23.793-21.547
	c-8.077-5.291-16.482-7.488-22.7-8.356c0,0,17.009-6.707,36.514-4.217C53.085,15.16,60.099,36.317,60.099,36.317z"/>
</svg>
