<?xml version="1.0" encoding="utf-8"?>
<!-- Generator: Adobe Illustrator 14.0.0, SVG Export Plug-In . SVG Version: 6.00 Build 43363)  -->
<!DOCTYPE svg PUBLIC "-//W3C//DTD SVG 1.1//EN" "http://www.w3.org/Graphics/SVG/1.1/DTD/svg11.dtd">
<svg version="1.1" id="Layer_1" xmlns="http://www.w3.org/2000/svg" xmlns:xlink="http://www.w3.org/1999/xlink" x="0px" y="0px"
	 width="100px" height="70px" viewBox="0 15 100 70" enable-background="new 0 15 100 70" xml:space="preserve">
<path fill="#FFFFFF" d="M35.859,36.629c-1.562-1.562-1.562-4.094,0-5.656l11.312-11.314c1.562-1.562,4.095-1.562,5.656,0
	l11.313,11.314c1.561,1.562,1.561,4.094,0,5.656c-1.561,1.563-4.097,1.563-5.657,0l-4.482-4.484v23.657
	c0,2.208-1.793,3.998-4.002,3.998c-2.208,0-3.998-1.79-3.998-3.998V32.145l-4.487,4.484C39.952,38.192,37.42,38.192,35.859,36.629z"
	/>
<path fill="#FFFFFF" d="M72.689,33.147c0.273,2.736-0.438,5.546-2.114,7.87c8.543,0.333,15.368,7.346,15.368,15.97
	c0,8.013-5.897,14.63-13.588,15.799c-2.562,0.854-26.73,0.776-37.772,0.339c-1.711-0.414-6.653-2.399-7.8-2.9
	c-7.63-4.016-12.838-12.013-12.838-21.238c0-10.656,6.945-19.683,16.554-22.816l9.125-9.126c-0.558-0.029-1.115-0.058-1.68-0.058
	c-17.674,0-32,14.328-32,32c0,16.357,12.277,29.821,28.113,31.74c1.859,0,34.851,0.26,35.888,0.26
	c13.255,0,23.999-10.748,23.999-23.995C93.944,44.661,84.651,34.51,72.689,33.147z"/>
</svg>
