<?xml version="1.0" encoding="utf-8"?>
<!-- Generator: Adobe Illustrator 14.0.0, SVG Export Plug-In . SVG Version: 6.00 Build 43363)  -->
<!DOCTYPE svg PUBLIC "-//W3C//DTD SVG 1.1//EN" "http://www.w3.org/Graphics/SVG/1.1/DTD/svg11.dtd">
<svg version="1.1" id="Layer_1" xmlns="http://www.w3.org/2000/svg" xmlns:xlink="http://www.w3.org/1999/xlink" x="0px" y="0px"
	 width="100px" height="100px" viewBox="0 0 100 100" enable-background="new 0 0 100 100" xml:space="preserve">
<path fill="#FFFFFF" stroke="#FFFFFF" stroke-width="6" d="M16.466,59.363c11.846,11.845,31.049,11.845,42.895,0
	c11.846-11.847,11.846-31.051,0-42.896c-11.846-11.846-31.049-11.846-42.895,0S4.621,47.517,16.466,59.363z M19.853,19.854
	c9.975-9.975,26.147-9.974,36.122,0c9.975,9.975,9.975,26.147,0,36.123c-9.975,9.975-26.147,9.975-36.122,0
	C9.878,46,9.878,29.83,19.853,19.854z"/>
<rect x="75.671" y="61.7" transform="matrix(0.7071 -0.7071 0.7071 0.7071 -33.8215 81.663)" fill="#FFFFFF" width="11.973" height="39.909"/>
</svg>
