<?xml version="1.0" encoding="UTF-8"?>
<svg style="position:absolute;" xmlns:xlink="http://www.w3.org/1999/xlink" xmlns="http://www.w3.org/2000/svg">
<g id="canals" fill="none" stroke="black" stroke-width="1">
<polyline points="188.271,151.672 188.210,151.480 " name="Saalbach"/>
<polyline points="52.091,266.536 54.805,261.929 " name="Rheinhafen Kehl"/>
<polyline points="53.189,265.818 54.716,263.325 " name="Rheinhafen Kehl"/>
<polyline points="54.672,264.581 54.716,263.325 54.805,261.929 " name="Rheinhafen Kehl"/>
<polyline points="51.060,264.792 50.766,264.935 " name="Canal de la Marne au Rhin"/>
<polyline points="296.183,231.681 295.960,231.564 295.611,231.402 295.564,231.406 295.494,231.434 295.366,231.485 " name="Rossneckar"/>
<polyline points="297.110,232.540 296.757,232.316 296.318,231.814 296.183,231.681 " name="Wehrneckarkanal"/>
<polyline points="296.842,232.183 296.247,231.642 296.183,231.681 " name="Rossneckar"/>
<polyline points="296.421,231.748 296.183,231.681 " name="Rossneckar"/>
<polyline points="295.611,231.402 295.572,231.365 " name="Rossneckar"/>
<polyline points="26.986,347.446 27.566,346.404 30.354,338.922 30.837,336.101 " name="Grand Canal d'Alsace"/>
<polyline points="6.661,441.942 6.711,441.166 9.348,435.047 11.605,428.583 11.059,420.685 11.400,419.785 " name="Grand Canal d'Alsace"/>
<polyline points="297.631,379.116 299.273,378.464 300.696,379.273 " name="Donaukanal"/>
<polyline points="426.960,363.918 427.025,363.843 427.276,363.239 427.251,362.620 424.895,355.332 423.150,346.787 422.113,343.407 420.792,342.046 420.686,341.884 420.515,341.366 420.799,338.586 " name="Illerkanal"/>
<polyline points="423.167,401.436 423.140,401.344 423.166,401.181 423.682,400.307 424.635,399.481 424.740,399.330 425.816,397.580 425.900,397.372 427.117,393.493 428.474,392.248 428.724,392.057 429.204,391.606 429.791,390.257 429.890,388.865 429.836,388.575 428.848,384.885 428.598,383.667 428.627,383.473 429.024,381.532 429.028,381.513 429.149,381.151 429.480,380.741 430.219,380.112 430.262,380.076 430.919,379.433 431.848,378.331 432.068,377.809 432.077,377.724 432.092,377.582 432.031,374.498 431.988,373.233 431.988,373.222 431.985,373.156 " name="Illerkanal"/>
<polyline points="18.367,358.671 19.288,357.986 20.631,357.282 " name="Grand Canal d'Alsace"/>
<polyline points="156.508,64.273 156.511,64.272 " name="Hafenschleuse"/>
<polyline points="431.985,373.156 431.012,369.383 430.812,369.207 429.030,367.501 427.399,365.806 " name="Illerkanal"/>
<polyline points="281.626,143.773 281.746,143.586 " name="Neckar"/>
<polyline points="281.119,143.171 281.091,143.040 " name="Kaiser-Willhelm-Kanal"/>
<polyline points="401.413,378.148 401.381,378.128 " name="Rottum"/>
<polyline points="386.817,327.740 387.083,327.369 387.514,326.737 387.876,326.210 389.067,324.602 389.131,324.574 389.447,324.507 389.592,324.502 390.361,324.311 390.693,324.362 390.995,324.456 391.101,324.511 391.706,324.684 392.682,324.874 393.574,324.239 393.687,323.850 393.770,323.559 394.021,323.245 394.407,323.079 396.864,322.740 397.036,322.669 " name="Donau"/>
<polyline points="51.040,271.973 51.278,272.217 " name="Écluse No"/>
<polyline points="338.977,342.031 340.295,341.173 " name="Donaukanal"/>
<polyline points="44.070,361.499 43.897,360.461 43.875,360.316 " name="Elz"/>
<polyline points="341.235,179.552 341.174,179.531 341.047,179.492 " name="Murr"/>
<polyline points="51.040,271.973 48.711,269.375 " name="Bassin René Graff"/>
<polyline points="33.289,473.365 33.031,473.230 29.100,475.117 " name="Wiesekanal"/>
<polyline points="297.110,232.540 297.092,232.514 " name="Rossneckar"/>
<polyline points="297.622,233.760 297.329,232.990 297.110,232.540 " name="Hammerkanal"/>
<polyline points="170.449,142.905 166.892,140.205 165.695,139.080 161.175,137.395 156.381,136.020 " name="Saalbachkanal"/>
<polyline points="156.362,134.123 156.426,132.438 155.526,130.079 156.308,121.944 " name="Verlängerter Pfinzkanal"/>
<polyline points="301.800,214.600 301.428,214.349 " name="Mühlkanal"/>
<polyline points="298.187,212.071 298.278,211.905 298.459,211.683 " name="Mühlkanal"/>
<polyline points="144.922,148.145 144.833,147.836 144.851,147.680 144.993,146.967 145.142,146.243 145.570,145.932 145.816,145.720 148.005,143.744 148.228,143.540 148.438,143.442 148.798,143.335 148.674,141.771 148.536,139.843 149.239,138.113 150.251,135.741 150.867,134.305 150.966,134.234 151.051,134.177 " name="Rheinniederungskanal"/>
<polyline points="162.699,162.582 163.772,160.779 163.761,160.739 " name="Pfinz"/>
<polyline points="182.969,148.692 182.711,148.598 " name="Saalbach"/>
<polyline points="182.711,148.598 182.124,148.423 181.881,148.291 " name="Saalbach"/>
<polyline points="189.812,154.211 189.489,153.024 188.271,151.672 " name="Saalbach"/>
<polyline points="188.210,151.480 188.194,151.402 188.213,151.306 " name="Saalbach"/>
<polyline points="180.620,148.419 180.357,148.284 180.010,148.143 " name="Saalbach"/>
<polyline points="171.458,143.449 171.469,143.399 " name="Saalbach"/>
<polyline points="171.469,143.399 171.477,143.374 " name="Saalbach"/>
<polyline points="392.789,366.904 392.814,366.831 " name="Dürnach"/>
<polyline points="322.707,363.471 324.065,360.835 324.663,360.402 " name="Donau-Kanal"/>
<polyline points="176.845,184.794 176.365,184.856 " name="Kämpfelbach"/>
<polyline points="44.633,305.115 44.842,304.965 44.885,304.940 44.958,304.915 45.255,304.712 45.325,304.707 45.522,304.563 45.707,304.478 45.753,304.454 45.805,304.427 47.036,303.750 47.318,303.552 47.397,303.232 46.894,302.299 46.710,301.940 46.650,301.954 46.691,301.842 46.900,301.584 46.942,301.518 47.044,301.303 47.359,301.140 47.804,300.614 47.817,300.538 47.817,300.387 47.352,299.566 47.124,299.425 46.398,298.984 46.065,298.818 46.067,298.765 46.168,298.584 46.299,298.470 46.578,298.287 46.866,297.858 46.875,297.356 47.145,297.158 47.648,296.605 47.617,296.132 47.648,296.041 47.644,296.025 " name="Mühlbach"/>
<polyline points="242.707,279.092 242.758,279.099 243.269,279.119 " name="Mühlkanal"/>
<polyline points="154.436,130.437 155.526,130.079 " name="Jägerschrittkanal"/>
<polyline points="166.439,133.383 166.419,133.339 " name="Saalbach"/>
<polyline points="166.419,133.339 166.143,132.536 166.136,132.462 " name="Saalbach"/>
<polyline points="17.047,485.064 17.437,484.079 " name="Hafenbecken 1"/>
<polyline points="17.976,484.163 19.043,484.725 " name="Hafenbecken 2"/>
<polyline points="195.679,296.813 196.945,296.929 197.115,296.811 " name="Mühlkanal"/>
<polyline points="203.194,295.560 203.473,295.799 " name="Mühlkanal"/>
<polyline points="125.806,212.335 124.761,211.692 " name="Kraftwerkskanal"/>
<polyline points="230.523,189.699 230.769,189.720 230.821,189.740 " name="Kraftwerkkanal"/>
<polyline points="57.626,317.819 57.584,317.825 52.716,318.522 46.900,316.789 45.332,316.267 41.534,313.698 41.450,313.655 41.355,313.599 " name="Schutterentlastungskanal"/>
<polyline points="168.203,162.402 165.038,163.297 164.919,163.235 " name="Walzbachkanal"/>
<polyline points="2.993,458.488 3.154,459.604 3.759,462.442 3.396,466.716 3.452,466.880 5.480,470.175 6.235,471.402 10.017,476.901 11.164,478.471 12.479,480.270 15.659,483.414 16.213,483.826 16.414,483.959 16.751,484.155 " name="Canal de Huningue"/>
<polyline points="13.209,476.956 8.306,471.666 " name="Grand Canal d'Alsace"/>
<polyline points="8.306,471.666 7.039,470.060 " name="Grand Canal d'Alsace"/>
<polyline points="5.558,468.299 4.826,466.527 4.009,460.489 4.147,459.098 4.581,458.235 4.956,457.753 5.495,457.249 8.140,454.690 9.161,452.866 7.549,447.363 " name="Grand Canal d'Alsace"/>
<polyline points="5.558,468.299 5.810,469.337 8.306,471.666 " name="Grand Canal d'Alsace"/>
<polyline points="3.648,458.256 3.730,458.752 " name="Canal du Rhône au Rhin"/>
<polyline points="7.549,447.363 7.003,445.102 " name="Grand Canal d'Alsace"/>
<polyline points="6.661,441.942 6.271,443.349 7.549,447.363 " name="Grand Canal d'Alsace"/>
<polyline points="14.608,411.101 15.658,407.901 20.440,401.642 20.920,399.853 20.300,395.868 18.078,392.830 " name="Grand Canal d'Alsace"/>
<polyline points="18.078,392.830 16.506,390.872 15.891,390.208 " name="Grand Canal d'Alsace"/>
<polyline points="18.078,392.830 14.149,388.946 13.578,387.484 " name="Grand Canal d'Alsace"/>
<polyline points="13.578,387.484 13.364,387.166 " name="Canal de Neuf-Brisach"/>
<polyline points="15.447,371.936 14.252,369.244 14.092,368.599 15.532,364.155 " name="Grand Canal d'Alsace"/>
<polyline points="15.532,364.155 16.361,362.101 18.367,358.671 " name="Grand Canal d'Alsace"/>
<polyline points="31.949,329.566 33.379,327.178 35.258,326.363 " name="Grand Canal d'Alsace"/>
<polyline points="30.837,336.101 31.177,334.918 31.605,332.988 " name="Grand Canal d'Alsace"/>
<polyline points="115.223,331.136 113.110,331.424 " name="Kanal"/>
<polyline points="112.402,331.642 112.201,331.645 " name="Kanal"/>
<polyline points="397.688,304.985 397.750,305.041 397.971,305.213 399.954,306.259 401.264,306.930 401.392,307.013 401.734,307.115 401.743,307.114 403.203,306.746 403.235,306.689 " name="Blaukanal"/>
<polyline points="397.625,304.943 397.688,304.985 " name="Kraftwerk Glaeser"/>
<polyline points="349.598,181.686 349.548,181.581 " name="Murr"/>
<polyline points="349.548,181.581 349.518,181.526 " name="Murr"/>
<polyline points="162.601,168.181 164.528,164.337 165.038,163.399 165.038,163.297 " name="Weidgraben"/>
<polyline points="396.956,304.308 397.165,304.566 397.263,304.616 397.625,304.943 " name="Blaukanal"/>
<polyline points="396.956,304.308 397.532,304.064 " name="Blaukanal"/>
<polyline points="164.919,163.235 164.837,163.193 " name="Walzbachkanal"/>
<polyline points="164.837,163.193 164.072,162.536 163.761,160.739 " name="Walzbachkanal"/>
<polyline points="163.761,160.739 164.067,157.944 166.395,154.470 " name="Pfinz"/>
<polyline points="108.416,224.721 108.450,224.694 109.007,221.780 " name="Sandbach"/>
<polyline points="107.240,227.666 107.234,227.666 " name="Sandbach"/>
<polyline points="114.302,222.052 114.100,222.075 114.010,222.086 " name="Ooskanal"/>
<polyline points="113.958,222.091 112.813,222.232 111.833,222.346 " name="Ooskanal"/>
<polyline points="109.007,221.780 108.980,221.729 " name="Sandbach"/>
<polyline points="108.558,221.441 108.532,221.437 104.032,214.530 " name="Sandbach"/>
<polyline points="115.889,222.548 114.302,222.052 " name="Ooskanal"/>
<polyline points="197.115,296.811 197.164,296.805 " name="Mühlkanal"/>
<polyline points="197.164,296.805 197.231,296.775 " name="Mühlkanal"/>
<polyline points="420.891,332.481 420.801,332.295 420.339,331.614 419.864,330.800 419.901,330.454 419.314,329.950 419.122,329.822 418.942,329.743 414.186,322.819 414.076,322.771 412.124,320.399 411.861,319.688 411.501,318.618 411.426,318.269 411.374,316.321 410.948,315.272 409.436,312.750 408.467,310.709 408.447,310.593 408.258,310.057 408.068,309.914 " name="Illerkanal"/>
<polyline points="230.085,189.675 230.129,189.678 " name="Kraftwerkkanal"/>
<polyline points="205.291,294.467 206.291,294.489 " name="Mühlkanal"/>
<polyline points="166.395,154.470 166.590,154.270 " name="Pfinz"/>
<polyline points="166.590,154.270 167.253,153.405 167.690,152.548 168.287,146.768 " name="Pfinz"/>
<polyline points="349.710,181.798 349.598,181.686 " name="Murr"/>
<polyline points="156.020,135.918 152.163,135.399 151.110,134.139 " name="Saalbachkanal"/>
<polyline points="156.381,136.020 156.020,135.918 " name="Saalbachkanal"/>
<polyline points="117.722,206.961 117.691,206.954 " name="Schachtelbach"/>
<polyline points="129.657,212.481 129.643,212.483 129.053,212.225 128.784,212.048 125.806,212.335 125.224,211.831 125.176,211.806 124.761,211.692 121.145,210.339 120.835,210.213 120.773,210.184 120.154,209.705 119.965,209.477 119.772,209.214 " name="Gewerbekanal"/>
<polyline points="382.469,463.139 381.592,463.558 381.229,463.856 " name="Argen Kanal"/>
<polyline points="46.466,352.809 46.494,351.736 " name="Kleine Elz"/>
<polyline points="350.678,196.743 350.685,196.851 " name="Lein"/>
<polyline points="192.084,70.907 192.032,70.935 " name="Mühlgraben"/>
<polyline points="382.311,71.039 383.370,71.642 " name="Mühlkanal"/>
<polyline points="168.287,146.768 170.423,142.957 170.449,142.905 " name="Pfinzkanal"/>
<polyline points="26.724,482.387 26.470,482.764 " name="Weilteich"/>
<polyline points="162.013,169.907 162.601,168.181 " name="Weidgraben"/>
<polyline points="27.687,482.162 27.599,482.362 " name="Gewerbekanal"/>
<polyline points="422.406,76.451 421.112,76.323 " name="Mühlbach"/>
<polyline points="275.736,150.292 275.886,150.264 " name="Mühlkanal"/>
<polyline points="421.021,76.348 420.995,76.359 " name="Mühlbach"/>
<polyline points="421.112,76.323 421.066,76.331 421.021,76.348 " name="Mühlbach"/>
<polyline points="28.214,480.881 27.769,481.749 27.687,482.162 " name="Gewerbekanal"/>
<polyline points="136.639,250.733 136.582,250.812 " name="Überleitung"/>
<polyline points="136.312,428.356 136.435,428.364 " name="Mühlenkanal"/>
<polyline points="70.480,470.983 70.404,471.582 " name="Hochwasserentlastung"/>
<polyline points="68.709,473.651 68.701,473.721 " name="Mühlenkanal"/>
<polyline points="230.129,189.678 230.523,189.699 " name="Kraftwerkkanal"/>
<polyline points="347.244,409.583 347.734,409.830 " name="Mühlenkanal"/>
<polyline points="295.778,231.622 295.366,231.485 " name="Rossneckar"/>
<polyline points="346.896,409.422 347.092,409.521 " name="Mühlenkanal"/>
<polyline points="323.269,452.836 323.173,452.975 " name="Rotach"/>
<polyline points="295.960,231.564 295.778,231.622 " name="Rossneckar"/>
<polyline points="295.508,231.335 295.384,231.344 " name="Rossneckar"/>
<polyline points="295.384,231.344 293.512,231.882 293.413,231.941 " name="Rossneckar"/>
<polyline points="296.928,232.309 296.909,232.262 296.842,232.183 " name="Rossneckar"/>
<polyline points="43.875,360.316 32.201,341.118 31.960,339.925 " name="Leopoldskanal"/>
<polyline points="311.355,286.038 311.404,285.982 " name="Erms"/>
<polyline points="311.453,285.872 311.456,285.865 " name="Erms"/>
<polyline points="38.416,336.583 38.406,336.578 " name="Fjord-Rafting"/>
<polyline points="338.977,191.304 338.998,191.309 338.977,191.304 " name="Biotop"/>
<polyline points="210.537,296.179 211.671,295.841 211.707,295.901 " name="Mühlkanal"/>
<polyline points="434.777,254.071 434.469,254.949 " name="Brenzseitenkanal"/>
<polyline points="107.169,213.257 107.314,213.165 107.383,213.130 107.564,213.026 107.585,213.013 107.608,212.998 108.540,212.421 109.234,211.996 110.804,211.029 110.819,211.020 110.873,210.987 111.012,210.861 111.622,210.528 111.644,210.513 113.005,209.668 113.133,209.536 113.162,209.482 113.582,208.618 113.621,208.486 113.664,208.299 113.680,207.280 113.665,207.022 113.579,206.649 113.584,206.591 113.650,206.481 113.875,206.330 113.907,206.297 113.973,206.081 114.477,205.040 114.648,204.738 114.583,204.604 114.494,204.495 114.146,203.678 114.018,203.572 113.854,203.416 113.172,202.984 113.084,202.898 113.055,202.816 113.088,202.737 113.121,202.639 113.151,202.522 113.175,202.242 112.779,201.214 112.782,200.987 112.817,200.930 113.152,200.537 113.163,200.525 113.191,200.497 113.913,199.666 114.106,199.315 114.103,199.304 113.394,198.186 113.244,197.949 113.107,197.661 113.101,197.644 112.858,197.066 112.649,196.632 111.714,195.993 111.658,195.941 111.633,195.793 " name="Riedkanal"/>
<polyline points="192.285,200.831 192.285,200.815 " name="Mühlkanal"/>
<polyline points="192.838,200.063 192.858,200.046 " name="Mühlkanal"/>
<polyline points="192.858,200.046 192.961,199.933 " name="Mühlkanal"/>
<polyline points="192.285,200.815 192.304,200.716 " name="Mühlkanal"/>
<polyline points="192.304,200.716 192.552,200.471 192.560,200.456 " name="Mühlkanal"/>
<polyline points="192.961,199.933 193.057,199.909 " name="Mühlkanal"/>
<polyline points="193.057,199.909 193.603,199.453 194.141,199.323 " name="Mühlkanal"/>
<polyline points="192.560,200.456 192.579,200.428 " name="Mühlkanal"/>
<polyline points="192.579,200.428 192.838,200.063 " name="Mühlkanal"/>
<polyline points="194.141,199.323 194.415,199.360 " name="Mühlkanal"/>
<polyline points="56.083,469.370 56.032,469.522 54.679,470.094 53.304,470.776 53.218,470.805 50.644,470.459 " name="Gewerbekanal"/>
<polyline points="56.064,469.300 56.083,469.370 " name="Kanal"/>
<polyline points="381.229,463.856 381.126,463.946 " name="Argen Kanal"/>
<polyline points="393.780,165.436 393.772,165.309 " name="Bühler"/>
<polyline points="394.720,167.086 394.706,167.015 " name="Bühler"/>
<polyline points="119.772,209.214 118.039,207.169 117.602,207.227 " name="Gewerbekanal"/>
<polyline points="352.700,146.720 353.024,147.262 " name="Mühlkanal"/>
<polyline points="315.524,130.055 315.273,129.747 " name="Mühlkanal_Neudecker_Mühle"/>
<polyline points="319.723,139.508 319.637,139.433 " name="Mühlkanal"/>
<polyline points="343.098,110.283 342.903,110.237 " name="Hornschuch_Kanal"/>
<polyline points="377.631,107.703 377.662,107.673 " name="Mühlkanal"/>
<polyline points="361.246,91.429 360.765,91.411 " name="Mühlkanal"/>
<polyline points="337.327,100.161 336.908,100.167 " name="Mühlkanal"/>
<polyline points="352.777,93.100 351.081,92.816 " name="Mühlkanal"/>
<polyline points="369.783,94.043 369.305,94.045 " name="Mühlkanal"/>
<polyline points="355.619,90.900 355.014,90.803 " name="Mühlkanal"/>
<polyline points="326.032,95.230 325.364,95.527 " name="Mühlkanal"/>
<polyline points="344.636,96.696 344.603,96.648 " name="Mühlkanal"/>
<polyline points="358.113,108.700 357.464,108.789 " name="Mühlkanal"/>
<polyline points="380.843,109.794 380.278,109.451 " name="Mühlkanal"/>
<polyline points="382.449,114.971 383.054,113.973 " name="Mühlkanal"/>
<polyline points="337.613,111.748 336.318,111.884 " name="Mühlkanal"/>
<polyline points="366.330,95.223 365.886,95.489 " name="Mühlkanal"/>
<polyline points="360.315,91.287 360.055,91.371 " name="Mühlkanal"/>
<polyline points="377.595,108.398 377.307,107.970 " name="Mühlkanal"/>
<polyline points="323.990,114.083 324.066,113.779 322.911,113.011 322.633,112.977 320.771,113.480 319.634,114.609 319.375,114.992 319.324,115.084 319.388,116.300 319.483,116.503 320.263,117.565 " name="EVS-Kanal"/>
<polyline points="340.893,179.396 340.838,179.367 " name="Murr"/>
<polyline points="341.047,179.492 340.893,179.396 " name="Murr"/>
<polyline points="413.037,198.152 412.992,198.155 " name="Kocherkanal"/>
<polyline points="175.335,90.093 175.346,90.083 " name="Leimbach"/>
<polyline points="243.269,279.119 243.329,279.131 " name="Mühlkanal"/>
<polyline points="243.329,279.131 245.532,279.681 " name="Mühlkanal"/>
<polyline points="254.563,207.348 254.608,207.351 " name="Döbach"/>
<polyline points="254.608,207.351 254.638,207.351 " name="Döbach"/>
<polyline points="252.139,207.379 252.176,207.387 " name="Döbach"/>
<polyline points="66.085,248.107 69.291,243.271 74.364,239.981 " name="Canal de Dérivation de L'Ill"/>
<polyline points="307.076,190.396 306.971,190.411 " name="Mühlkanal"/>
<polyline points="314.232,25.266 314.140,25.333 " name="Triebleitung"/>
<polyline points="314.480,24.716 314.428,24.830 " name="Zuleitung Widder"/>
<polyline points="315.743,26.258 314.140,25.333 " name="Steigleitung"/>
<polyline points="314.428,24.830 314.232,25.266 " name="Zuleitung Widder"/>
<polyline points="250.729,68.883 250.509,69.015 247.127,70.228 " name="Oberwasserkanal"/>
<polyline points="284.454,123.413 284.467,123.646 284.177,124.607 282.535,124.947 281.291,125.505 279.475,125.399 " name="Salinekanal"/>
<polyline points="50.895,277.335 50.916,277.207 51.281,274.921 51.512,273.661 " name="Canal d'Alsace"/>
<polyline points="367.709,116.476 367.647,116.536 " name="Steigungshilfe für Fische"/>
<polyline points="367.678,116.437 367.703,116.469 " name="Steigungshilfe für Fische"/>
<polyline points="367.703,116.469 367.709,116.476 " name="Steigungshilfe für Fische"/>
<polyline points="47.509,285.321 47.637,284.778 50.192,280.949 " name="Canal d'Alsace"/>
<polyline points="51.512,273.661 50.089,274.844 " name="Bassin Auguste Detœuf"/>
<polyline points="51.281,274.921 49.821,276.110 " name="Bassin Gaston Haelling"/>
<polyline points="421.141,339.411 421.452,336.491 421.075,333.656 " name="Illerkanal(Wielandkanal)"/>
<polyline points="290.708,212.548 290.693,212.520 " name="Uhlandstraße"/>
<polyline points="48.627,278.139 48.554,278.260 " name="Bassin Adrien Weirich"/>
<polyline points="377.635,106.715 377.681,106.619 " name="Kanal zur Mühle"/>
<polyline points="50.916,277.207 49.018,281.233 " name="Darse IV"/>
<polyline points="47.571,284.463 49.088,282.431 49.140,282.345 49.899,280.453 " name="Contre-Canal de Drainage"/>
<polyline points="49.860,280.432 49.714,280.290 " name="Contre-Canal de Drainage"/>
<polyline points="49.899,280.453 49.860,280.432 " name="Contre-Canal de Drainage"/>
<polyline points="314.572,371.585 314.142,373.885 314.031,374.000 " name="donau_new"/>
<polyline points="47.571,284.463 47.386,284.714 " name="Contre-Canal de Drainage"/>
<polyline points="47.386,284.714 47.341,284.748 " name="Contre-Canal de Drainage"/>
<polyline points="407.378,309.523 407.025,309.368 406.943,309.296 " name="Illerkanal"/>
<polyline points="406.943,309.296 406.891,309.111 " name="Illerkanal"/>
<polyline points="244.909,243.272 245.761,243.195 244.909,243.272 " name="Langer See"/>
<polyline points="158.470,107.157 159.142,107.494 " name="Werfthafen"/>
<polyline points="156.572,105.484 156.684,105.143 " name="Yachthafen (Marina)"/>
<polyline points="156.937,105.318 156.939,105.069 " name="Floßhafen"/>
<polyline points="187.283,365.174 187.388,365.064 " name="Kanal"/>
<polyline points="186.149,366.387 187.283,365.174 " name="Kanal"/>
<polyline points="185.469,366.870 185.654,366.790 " name="Mühlkanal"/>
<polyline points="187.388,365.064 187.475,364.855 187.501,364.796 " name="Kanal"/>
<polyline points="407.037,308.547 407.101,308.556 " name="Blaukanal"/>
<polyline points="260.049,190.190 259.886,189.464 " name="Alter Flößerkanal"/>
<polyline points="297.092,232.514 297.057,232.471 " name="Rossneckar"/>
<polyline points="297.057,232.471 296.928,232.309 " name="Rossneckar"/>
<polyline points="421.075,333.656 420.891,332.481 " name="Illerkanal(Wielandkanal)"/>
<polyline points="38.963,310.848 39.871,311.576 " name="Ancien Canal de l'Ill au Rhin"/>
<polyline points="31.736,328.610 33.686,326.442 34.519,326.069 38.956,324.659 39.697,324.451 39.882,324.381 40.353,324.163 41.018,323.712 41.225,323.523 41.926,322.506 42.052,322.204 42.119,321.951 42.177,320.914 42.103,320.605 41.827,319.537 " name="Canal de Drainage"/>
<polyline points="365.208,109.734 364.908,109.819 " name="Steinbach"/>
<polyline points="3.648,458.256 4.197,458.330 4.581,458.235 " name="Canal du Rhône au Rhin"/>
<polyline points="155.286,189.676 155.165,189.650 " name="Industriekanal Spinnerei"/>
<polyline points="156.973,200.494 156.873,199.757 156.954,200.025 " name="Industriekanal Gertrudenhof"/>
<polyline points="157.821,195.021 157.490,194.999 " name="Industriekanal kochmühle"/>
<polyline points="156.985,199.261 157.160,199.402 " name="Industriekanal Moosalb"/>
<polyline points="157.107,198.196 157.821,195.021 " name="Industriekanal Fischweier"/>
<polyline points="158.186,193.277 157.659,192.627 " name="Naturschwimmbad"/>
<polyline points="157.856,194.055 158.018,193.700 158.019,193.695 " name="Industriekanal kochmühle"/>
<polyline points="157.332,201.263 156.973,200.494 " name="Industriekanal Gertrudenhof"/>
<polyline points="393.246,336.976 393.264,336.845 " name="Rot"/>
<polyline points="273.584,159.852 273.082,159.416 " name="Neckar"/>
<polyline points="157.659,192.627 156.606,191.077 " name="Industriekanal Neurod/Spinnerei"/>
<polyline points="102.602,332.553 102.386,332.562 " name="Gewerbekanal"/>
<polyline points="101.035,332.875 100.677,332.875 " name="Gewerbekanal"/>
<polyline points="28.246,479.813 28.292,480.167 " name="Gewerbekanal"/>
<polyline points="278.985,358.297 279.070,358.442 " name="Lauchert"/>
<polyline points="33.223,473.798 33.169,473.814 32.939,473.743 " name="Feldteich"/>
<polyline points="34.430,473.725 34.292,473.941 " name="Feldteich"/>
<polyline points="36.473,473.291 35.586,473.307 " name="Feldteich"/>
<polyline points="246.010,70.603 243.977,72.137 244.029,72.265 " name="Oberwasserkanal"/>
<polyline points="246.492,70.532 246.010,70.603 " name="Oberwasserkanal"/>
<polyline points="247.127,70.228 246.492,70.532 " name="Oberwasserkanal"/>
<polyline points="177.032,145.859 176.863,145.805 " name="Saalbachkanal"/>
<polyline points="176.863,145.805 175.842,145.635 175.315,144.860 " name="Saalbachkanal"/>
<polyline points="178.940,147.744 178.233,147.586 " name="Saalbach"/>
<polyline points="175.272,144.711 172.855,143.634 171.488,143.350 170.449,142.905 " name="Saalbachkanal"/>
<polyline points="175.315,144.860 175.272,144.711 " name="Saalbachkanal"/>
<polyline points="136.121,280.139 136.179,280.130 " name="Mühlgraben"/>
<polyline points="171.477,143.374 171.488,143.350 171.499,143.326 " name="Saalbach"/>
<polyline points="171.499,143.326 171.663,143.093 171.830,142.758 171.369,140.527 171.349,140.485 170.531,138.626 170.302,138.109 170.286,138.039 170.232,137.953 168.467,136.234 167.966,135.562 167.808,135.310 167.247,134.732 167.153,134.478 167.022,134.235 166.771,133.880 166.675,133.782 166.495,133.528 166.439,133.383 " name="Saalbach"/>
<polyline points="392.201,450.977 392.327,451.269 " name="Untere Argen"/>
<polyline points="3.523,458.683 3.730,458.752 3.975,458.867 4.147,459.098 " name="Canal du Rhône au Rhin"/>
<polyline points="280.552,209.178 280.531,209.125 " name="Wasserrutsche"/>
<polyline points="424.562,107.020 424.561,107.101 " name="Klostergasse"/>
<polyline points="152.707,189.338 151.865,188.589 " name="Ehem. Industriekanal Buhl"/>
<polyline points="250.768,347.360 250.963,347.377 " name="Wasserlauf"/>
<polyline points="156.434,190.490 155.831,189.845 155.286,189.676 " name="Industriekanal Spinnerei"/>
<polyline points="151.845,188.582 151.424,188.511 151.278,188.471 " name="Industriekanal Bardusch"/>
<polyline points="151.865,188.589 151.845,188.582 " name="Industriekanal Bardusch"/>
<polyline points="180.010,148.143 179.785,148.056 " name="Saalbach"/>
<polyline points="150.572,188.214 150.510,188.149 " name="Kirchenmühlkanal"/>
<polyline points="148.985,186.980 148.807,186.802 " name="Alter ETO-Kanal"/>
<polyline points="159.150,382.620 159.208,382.612 159.224,382.619 " name="Mühlenkanal"/>
<polyline points="56.032,469.522 56.026,469.577 " name="Gewerbekanal"/>
<polyline points="28.172,478.232 28.047,479.197 " name="Gewerbekanal"/>
<polyline points="356.954,111.813 356.957,111.809 352.815,109.976 " name="EVS-Kanal"/>
<polyline points="159.224,382.619 160.030,383.570 160.208,384.048 " name="Mühlenkanal"/>
<polyline points="159.227,382.413 159.224,382.619 " name="Mühlenkanal"/>
<polyline points="100.934,234.779 100.804,234.788 " name="Sandbach Flutkanal"/>
<polyline points="100.804,234.788 100.002,233.508 99.981,233.489 " name="Sandbach Flutkanal"/>
<polyline points="98.830,332.624 98.749,332.597 " name="Gewerbekanal"/>
<polyline points="102.386,332.562 102.330,332.621 " name="Gewerbekanal"/>
<polyline points="99.239,332.833 98.969,332.661 98.830,332.624 " name="Gewerbekanal"/>
<polyline points="98.749,332.597 98.676,332.560 98.422,332.555 " name="Gewerbekanal"/>
<polyline points="99.544,333.091 99.239,332.833 " name="Gewerbekanal"/>
<polyline points="102.330,332.621 102.177,332.639 100.677,332.875 99.544,333.091 " name="Gewerbekanal"/>
<polyline points="298.202,212.133 298.187,212.071 " name="Mühlkanal"/>
<polyline points="87.131,269.157 86.869,269.087 86.400,268.904 85.483,268.394 80.416,265.562 79.569,264.764 79.452,264.609 78.268,262.091 78.246,262.044 77.902,261.296 77.871,260.840 78.057,260.098 79.008,256.162 79.139,254.328 79.274,253.873 79.972,251.924 80.611,250.152 80.668,249.945 80.695,249.737 80.709,248.577 79.847,247.193 79.717,246.806 79.712,246.603 79.732,246.423 80.072,245.588 80.091,245.545 80.238,245.208 80.289,245.019 80.307,244.832 " name="Rench-Flutkanal"/>
<polyline points="42.225,295.483 42.299,295.389 43.003,293.726 43.173,290.924 43.326,289.501 44.951,287.582 45.428,287.052 " name="Contre-Canal de Drainage"/>
<polyline points="47.341,284.748 47.222,284.899 46.313,286.037 46.032,286.342 " name="Contre-Canal de Drainage"/>
<polyline points="45.428,287.052 45.443,287.034 " name="Contre-Canal de Drainage"/>
<polyline points="46.030,286.369 45.443,287.034 " name="Contre-Canal de Drainage"/>
<polyline points="46.032,286.342 46.030,286.369 " name="Contre-Canal de Drainage"/>
<polyline points="151.110,134.139 151.004,134.012 150.507,133.034 " name="Saalbachkanal"/>
<polyline points="86.143,252.423 85.308,252.072 80.695,249.737 " name="Acher-Flutkanal"/>
<polyline points="32.893,473.665 32.865,473.620 " name="Feldteich"/>
<polyline points="32.939,473.743 32.893,473.665 " name="Feldteich"/>
<polyline points="56.026,469.577 54.889,470.239 54.679,470.094 " name="Gewerbekanal"/>
<polyline points="432.891,255.186 434.430,256.315 " name="Orstel"/>
<polyline points="23.965,485.734 23.776,485.898 23.228,486.201 " name="Neuer Teich"/>
<polyline points="24.254,485.491 23.965,485.734 " name="Neuer Teich"/>
<polyline points="41.738,319.271 41.602,318.644 41.246,317.266 41.030,316.414 39.627,314.418 39.540,314.287 38.672,312.424 38.581,312.088 38.422,311.341 38.371,311.020 38.344,310.700 38.311,310.250 38.393,308.434 39.493,303.226 39.481,303.092 38.870,302.462 38.443,302.238 38.334,302.204 38.094,302.000 37.932,301.610 37.927,301.115 37.888,301.019 37.337,300.835 " name="Canal d'Alimentation de l'Ill"/>
<polyline points="326.994,263.520 326.879,263.581 " name="Gießnaubach"/>
<polyline points="381.126,463.946 380.856,464.191 378.279,465.922 " name="Argen Kanal"/>
<polyline points="379.383,68.978 379.216,68.373 " name="Mühlkanal Igersheim"/>
<polyline points="154.487,119.097 154.490,118.875 " name="Kühlwasserauslauf"/>
<polyline points="6.965,470.100 6.705,469.806 " name="Écluse No 1"/>
<polyline points="6.780,469.748 5.558,468.299 " name="Grand Canal d'Alsace"/>
<polyline points="7.039,470.060 6.780,469.748 " name="Écluse No 1"/>
<polyline points="7.003,445.102 6.957,444.678 " name="Grand Canal d'Alsace"/>
<polyline points="6.957,444.678 6.886,444.300 " name="Écluse No 2"/>
<polyline points="6.816,444.309 6.794,443.925 " name="Grand Canal d'Alsace"/>
<polyline points="6.879,444.688 6.816,444.309 " name="Écluse No 2"/>
<polyline points="6.794,443.925 6.661,441.942 " name="Grand Canal d'Alsace"/>
<polyline points="6.886,444.300 6.794,443.925 " name="Grand Canal d'Alsace"/>
<polyline points="15.891,390.208 15.478,389.822 " name="Grand Canal d'Alsace"/>
<polyline points="15.209,389.534 14.947,389.180 " name="Grand Canal d'Alsace"/>
<polyline points="15.532,389.780 15.264,389.496 " name="Écluse No 4"/>
<polyline points="15.891,390.208 15.532,389.780 " name="Grand Canal d'Alsace"/>
<polyline points="15.264,389.496 14.947,389.180 " name="Grand Canal d'Alsace"/>
<polyline points="14.947,389.180 13.578,387.484 " name="Grand Canal d'Alsace"/>
<polyline points="15.478,389.822 15.209,389.534 " name="Écluse No 4"/>
<polyline points="7.003,445.102 6.879,444.688 " name="Grand Canal d'Alsace"/>
<polyline points="17.441,360.690 18.367,358.671 " name="Grand Canal d'Alsace"/>
<polyline points="31.799,332.018 31.949,329.566 " name="Grand Canal d'Alsace"/>
<polyline points="31.628,332.695 31.706,332.316 " name="Écluse No 6"/>
<polyline points="31.605,332.988 31.699,332.702 " name="Grand Canal d'Alsace"/>
<polyline points="31.605,332.988 31.628,332.695 " name="Grand Canal d'Alsace"/>
<polyline points="31.699,332.702 31.772,332.328 " name="Écluse No 6"/>
<polyline points="31.706,332.316 31.799,332.018 " name="Grand Canal d'Alsace"/>
<polyline points="31.772,332.328 31.799,332.018 " name="Grand Canal d'Alsace"/>
<polyline points="39.110,307.766 39.944,304.880 40.506,304.193 " name="Grand Canal d'Alsace"/>
<polyline points="41.122,315.581 39.850,314.263 38.782,311.725 39.110,307.766 39.652,306.980 " name="Grand Canal d'Alsace"/>
<polyline points="39.840,306.460 39.966,306.084 " name="Écluse No"/>
<polyline points="40.506,304.193 41.592,303.162 " name="Grand Canal d'Alsace"/>
<polyline points="39.773,306.441 39.905,306.069 " name="Écluse No"/>
<polyline points="39.652,306.980 39.760,306.724 39.840,306.460 " name="Grand Canal d'Alsace"/>
<polyline points="39.905,306.069 40.035,305.797 " name="Grand Canal d'Alsace"/>
<polyline points="39.966,306.084 40.035,305.797 " name="Grand Canal d'Alsace"/>
<polyline points="40.035,305.797 40.356,304.839 40.506,304.193 " name="Grand Canal d'Alsace"/>
<polyline points="50.470,279.321 50.540,278.945 " name="Écluse No"/>
<polyline points="50.316,279.947 50.352,279.561 50.399,279.309 " name="Canal d'Alsace"/>
<polyline points="50.540,278.945 50.546,278.710 " name="Canal d'Alsace"/>
<polyline points="50.192,280.949 50.873,278.823 50.895,277.335 " name="Canal d'Alsace"/>
<polyline points="50.316,279.947 50.470,279.321 " name="Canal d'Alsace"/>
<polyline points="50.467,278.933 50.546,278.710 " name="Canal d'Alsace"/>
<polyline points="50.399,279.309 50.467,278.933 " name="Écluse No"/>
<polyline points="50.546,278.710 50.895,277.335 " name="Canal d'Alsace"/>
<polyline points="50.192,280.949 50.237,280.466 50.316,279.947 " name="Canal d'Alsace"/>
<polyline points="165.254,129.046 165.106,128.949 " name="Saalbach"/>
<polyline points="188.213,151.306 188.227,151.271 " name="Saalbach"/>
<polyline points="181.774,369.675 181.855,369.663 " name="Mühlgraben"/>
<polyline points="80.307,244.832 80.289,244.685 80.246,244.501 79.244,242.207 77.444,240.150 77.363,239.871 77.497,239.557 78.573,236.724 78.622,236.258 78.593,235.987 " name="Rench"/>
<polyline points="276.056,149.958 276.079,149.934 276.144,149.800 " name="Mühlkanal"/>
<polyline points="275.886,150.264 275.981,150.102 " name="Mühlkanal"/>
<polyline points="275.981,150.102 276.056,149.958 " name="Mühlkanal"/>
<polyline points="16.035,389.517 16.016,389.509 " name="Échelle à Saumons"/>
<polyline points="305.115,104.908 305.124,105.114 " name="Seckach"/>
<polyline points="295.958,205.296 296.021,205.195 " name="Rems"/>
<polyline points="101.729,211.855 101.735,211.832 101.694,211.709 " name="Fischpass"/>
<polyline points="101.819,211.665 101.828,211.615 " name="Fischpass"/>
<polyline points="101.694,211.709 101.687,211.680 " name="Fischpass"/>
<polyline points="101.687,211.680 101.690,211.627 101.838,211.691 " name="Fischpass"/>
<polyline points="101.796,211.908 101.736,211.793 " name="Zulauf Fischpass"/>
<polyline points="396.491,316.714 398.153,317.503 398.343,317.447 " name="Rötelbach"/>
<polyline points="400.856,314.924 401.376,314.408 402.150,312.456 " name="Grenzgraben"/>
<polyline points="402.150,312.456 403.861,310.929 " name="Grenzgraben"/>
<polyline points="138.574,226.655 138.470,226.440 138.500,226.305 " name="Werkskanal"/>
<polyline points="430.013,183.816 430.106,183.808 " name="Mühlgraben"/>
<polyline points="203.762,262.878 203.894,262.452 " name="Beileitungsstollen"/>
<polyline points="176.365,184.856 176.353,184.856 " name="Kämpfelbach"/>
<polyline points="176.353,184.856 176.343,184.855 176.305,184.855 " name="Kämpfelbach"/>
<polyline points="138.500,226.305 138.531,226.112 " name="Werkskanal"/>
<polyline points="138.531,226.112 138.521,225.923 138.535,225.789 " name="Werkskanal"/>
<polyline points="158.028,193.644 158.113,193.484 " name="Industriekanal kochmühle"/>
<polyline points="158.019,193.695 158.028,193.644 " name="Industriekanal kochmühle"/>
<polyline points="285.754,209.445 285.816,209.323 " name="Gretelstollen"/>
<polyline points="89.565,476.466 89.350,476.414 " name="wühre"/>
<polyline points="27.599,482.362 27.558,482.670 27.438,482.896 24.254,485.491 " name="Neuer Teich"/>
<polyline points="416.782,198.676 417.201,198.588 " name="Kocher Kanal"/>
<polyline points="324.663,360.402 324.930,360.253 " name="Donau-Kanal"/>
<polyline points="69.771,481.342 69.585,482.428 " name="Industriekanal Öflingen"/>
<polyline points="69.605,482.660 69.218,484.326 " name="Industriekanal Öflingen"/>
<polyline points="69.247,484.399 69.266,484.440 " name="Industriekanal Öflingen"/>
<polyline points="69.585,482.428 69.605,482.660 " name="Konsens-Trasse"/>
<polyline points="69.218,484.347 69.247,484.399 " name="Industriekanal Öflingen"/>
<polyline points="299.828,383.039 300.282,382.710 " name="Ablach-Kanal"/>
<polyline points="296.844,385.157 297.243,384.865 " name="Ablach-Kanal"/>
<polyline points="381.811,343.710 381.708,343.296 " name="Rißkanal"/>
<polyline points="92.835,422.852 104.278,426.221 " name="Hangkanal"/>
<polyline points="77.027,468.627 74.707,469.511 " name="Druckstollen Kavernenkraftwerk Wehr"/>
<polyline points="71.099,471.159 70.590,471.564 " name="Umleitungsstollen"/>
<polyline points="74.304,469.891 71.410,470.845 " name="Unterwasser-Stollen Kavernenkraftwerk Wehr"/>
<polyline points="77.393,485.865 77.378,485.876 " name="Oberwasserstollen Kavernenkraftwerk Säckingen"/>
<polyline points="77.378,485.876 77.093,485.821 77.076,485.908 " name="Oberwasserstollen Kavernenkraftwerk Säckingen"/>
<polyline points="77.168,485.975 77.344,490.350 " name="Unterwasser-Stollen Kavernenkraftwerk Säckingen"/>
<polyline points="165.434,129.376 165.254,129.046 " name="Saalbach"/>
<polyline points="163.733,173.565 162.993,173.311 162.762,173.147 162.384,171.879 162.315,171.667 162.285,171.618 161.676,167.824 161.614,167.727 160.891,167.107 159.972,166.429 159.543,166.115 159.315,165.948 158.579,165.410 " name="Pfinzentlastungskanal"/>
<polyline points="178.233,147.586 177.367,147.489 176.707,147.042 176.574,146.878 176.021,146.121 175.219,145.539 171.528,144.904 171.458,143.449 " name="Saalbach"/>
<polyline points="178.233,147.586 178.196,147.578 177.032,145.859 " name="Saalbachkanal"/>
<polyline points="229.436,370.730 229.917,371.324 " name="Wasserwerk Hammer"/>
<polyline points="279.096,196.637 279.095,196.644 " name="Märchenbach"/>
<polyline points="279.026,196.676 278.995,196.663 279.096,196.637 " name="Märchenbach"/>
<polyline points="279.068,196.674 279.026,196.676 " name="Märchenbach"/>
<polyline points="279.095,196.644 279.083,196.662 279.068,196.674 " name="Märchenbach"/>
<polyline points="307.559,190.109 307.076,190.396 " name="Mühlkanal"/>
<polyline points="43.260,296.810 44.213,297.158 43.438,298.942 " name="Canal de Drainage"/>
<polyline points="270.919,174.558 270.918,174.232 271.292,173.795 271.486,173.655 " name="Neckar"/>
<polyline points="273.584,159.852 273.110,159.392 " name="Neckar"/>
<polyline points="279.475,125.399 279.279,125.445 279.190,125.423 " name="Salinekanal"/>
<polyline points="279.190,125.423 278.488,124.861 " name="Salinekanal"/>
<polyline points="38.406,336.578 38.264,336.301 " name="Fjord-Rafting"/>
<polyline points="197.371,200.691 197.274,200.275 " name="Metzelgraben"/>
<polyline points="197.771,199.526 197.790,199.504 " name="Metzelgraben"/>
<polyline points="197.731,199.582 197.771,199.526 " name="Metzelgraben"/>
<polyline points="197.790,199.504 197.825,199.453 " name="Metzelgraben"/>
<polyline points="389.844,465.821 389.819,465.547 " name="Mühllanal Staudach"/>
<polyline points="217.013,105.407 217.032,105.408 217.013,105.407 " name="Elsenz Entlastungskanal"/>
<polyline points="463.885,204.675 464.507,204.497 " name="Mühlkanal Nagelmühle"/>
<polyline points="465.019,204.634 465.135,204.612 465.222,204.592 " name="Mühlkanal Ölmühle"/>
<polyline points="465.488,204.726 465.506,204.743 " name="Mühlkanal Ölmühle"/>
<polyline points="465.506,204.743 466.226,205.550 466.571,205.665 " name="Mühlkanal Ölmühle"/>
<polyline points="465.222,204.592 465.244,204.585 " name="Mühlkanal Ölmühle"/>
<polyline points="465.244,204.585 465.261,204.583 465.339,204.594 465.488,204.726 " name="Mühlkanal Ölmühle"/>
<polyline points="362.522,51.440 362.387,51.168 " name="Mühlkanal"/>
<polyline points="179.912,71.192 178.801,70.398 178.183,70.034 171.013,70.539 169.482,70.228 168.346,69.827 167.573,69.457 167.168,69.285 " name="Neckarkanal"/>
<polyline points="100.934,234.779 101.498,234.767 " name="Sandbach Flutkanal"/>
<polyline points="273.233,274.918 276.300,273.790 276.814,273.327 " name="Neckarkanal"/>
<polyline points="193.446,85.383 192.827,85.192 191.168,84.478 188.595,78.826 187.487,78.172 187.226,78.196 " name="Neckarkanal"/>
<polyline points="187.487,78.172 187.341,78.155 187.222,78.146 " name="Neckarkanal"/>
<polyline points="167.573,69.457 167.443,69.346 167.304,69.293 " name="Neckarkanal"/>
<polyline points="103.401,236.204 103.485,235.710 103.496,235.622 103.503,235.536 103.426,234.588 103.311,234.494 103.229,234.462 101.553,234.768 101.498,234.767 " name="Sandbach Flutkanal"/>
<polyline points="111.833,222.346 109.128,222.085 " name="Ooskanal"/>
<polyline points="114.010,222.086 113.958,222.091 " name="Ooskanal"/>
<polyline points="117.602,207.227 117.559,207.213 " name="Gewerbekanal"/>
<polyline points="117.559,207.213 117.381,207.117 117.323,207.090 " name="Gewerbekanal"/>
<polyline points="434.059,257.180 434.123,257.375 " name="Brenz, renaturisierter Seitenarm"/>
<polyline points="424.358,354.126 424.433,354.107 " name="Fabrikbach"/>
<polyline points="424.433,354.107 424.532,354.079 " name="Fabrikbach"/>
<polyline points="424.340,354.131 424.358,354.126 " name="Fabrikbach"/>
<polyline points="425.949,358.337 425.751,358.382 " name="Fabrikbach"/>
<polyline points="425.751,358.382 425.614,358.266 425.598,358.174 424.340,354.131 " name="Fabrikbach"/>
<polyline points="424.532,354.079 424.557,354.072 424.402,353.522 " name="Fabrikbach"/>
<polyline points="38.590,336.521 38.578,336.649 " name="Atlantica SuperSplash"/>
<polyline points="38.302,336.325 38.552,336.341 38.424,336.582 38.416,336.583 " name="Fjord-Rafting"/>
<polyline points="38.264,336.301 38.302,336.325 " name="Fjord-Rafting"/>
<polyline points="38.249,335.544 38.227,335.510 " name="Poseidon"/>
<polyline points="38.278,335.481 38.312,335.470 " name="Poseidon"/>
<polyline points="112.164,331.639 112.115,331.624 " name="Kanal"/>
<polyline points="112.201,331.645 112.164,331.639 " name="Kanal"/>
<polyline points="434.353,255.926 434.852,255.643 " name="Wassergraben Fischerbreite"/>
<polyline points="434.456,255.037 434.466,255.040 " name="Orstel"/>
<polyline points="167.153,69.318 166.918,69.226 " name="Neckarkanal"/>
<polyline points="167.304,69.293 166.895,69.132 " name="Neckarkanal"/>
<polyline points="167.168,69.285 166.934,69.194 " name="Neckarkanal"/>
<polyline points="167.573,69.457 167.153,69.318 " name="Neckarkanal"/>
<polyline points="166.918,69.226 166.710,69.122 " name="Neckarkanal"/>
<polyline points="166.895,69.132 166.437,69.017 " name="Neckarkanal"/>
<polyline points="166.934,69.194 166.710,69.122 166.437,69.017 164.062,68.350 163.972,68.369 " name="Neckarkanal"/>
<polyline points="187.222,78.146 186.972,78.152 " name="Neckarkanal"/>
<polyline points="187.226,78.196 186.971,78.204 " name="Neckarkanal"/>
<polyline points="186.972,78.152 186.930,78.154 186.712,78.175 " name="Neckarkanal"/>
<polyline points="186.971,78.204 186.712,78.175 185.960,78.235 " name="Neckarkanal"/>
<polyline points="272.907,159.215 272.262,158.595 272.708,157.930 272.849,157.883 " name="Neckar"/>
<polyline points="273.110,159.392 272.907,159.215 " name="Neckar"/>
<polyline points="273.082,159.416 272.880,159.239 " name="Neckar"/>
<polyline points="272.880,159.239 272.841,159.205 " name="Neckar"/>
<polyline points="271.292,173.795 271.508,173.688 " name="Neckar"/>
<polyline points="271.739,173.547 271.912,173.417 " name="Neckar"/>
<polyline points="271.508,173.688 271.739,173.547 " name="Neckar"/>
<polyline points="271.486,173.655 271.719,173.516 " name="Neckar"/>
<polyline points="271.719,173.516 271.912,173.417 272.149,173.240 " name="Neckar"/>
</g></svg>
