<?xml version="1.0" encoding="UTF-8"?>
<svg xmlns:xlink="http://www.w3.org/1999/xlink" xmlns="http://www.w3.org/2000/svg">
<g id="canals" fill="none" stroke="black" stroke-width="1">
<polyline points="188.271,154.683 188.210,154.497 " name="Saalbach"/>
<polyline points="52.091,266.046 54.805,261.580 " name="Rheinhafen Kehl"/>
<polyline points="53.189,265.350 54.716,262.933 " name="Rheinhafen Kehl"/>
<polyline points="54.672,264.151 54.716,262.933 54.805,261.580 " name="Rheinhafen Kehl"/>
<polyline points="51.060,264.356 50.766,264.494 " name="Canal de la Marne au Rhin"/>
<polyline points="296.183,232.253 295.960,232.141 295.611,231.983 295.564,231.987 295.494,232.014 295.366,232.063 " name="Rossneckar"/>
<polyline points="297.110,233.087 296.757,232.869 296.318,232.383 296.183,232.253 " name="Wehrneckarkanal"/>
<polyline points="296.842,232.740 296.247,232.216 296.183,232.253 " name="Rossneckar"/>
<polyline points="296.421,232.318 296.183,232.253 " name="Rossneckar"/>
<polyline points="295.611,231.983 295.572,231.947 " name="Rossneckar"/>
<polyline points="26.986,344.490 27.566,343.481 30.354,336.226 30.837,333.491 " name="Grand Canal d'Alsace"/>
<polyline points="6.661,436.107 6.711,435.354 9.348,429.421 11.605,423.154 11.059,415.497 11.400,414.625 " name="Grand Canal d'Alsace"/>
<polyline points="297.631,375.195 299.273,374.563 300.696,375.348 " name="Donaukanal"/>
<polyline points="426.960,360.460 427.025,360.388 427.276,359.802 427.251,359.202 424.895,352.136 423.150,343.851 422.113,340.574 420.792,339.255 420.686,339.098 420.515,338.596 420.799,335.900 " name="Illerkanal"/>
<polyline points="423.167,396.835 423.140,396.746 423.166,396.588 423.682,395.740 424.635,394.939 424.740,394.793 425.816,393.096 425.900,392.895 427.117,389.134 428.474,387.927 428.724,387.742 429.204,387.304 429.791,385.997 429.890,384.647 429.836,384.366 428.848,380.788 428.598,379.607 428.627,379.420 429.024,377.537 429.028,377.519 429.149,377.168 429.480,376.770 430.219,376.161 430.262,376.126 430.919,375.503 431.848,374.434 432.068,373.928 432.077,373.846 432.092,373.708 432.031,370.718 431.988,369.491 431.988,369.481 431.985,369.416 " name="Illerkanal"/>
<polyline points="18.367,355.374 19.288,354.709 20.631,354.027 " name="Grand Canal d'Alsace"/>
<polyline points="156.508,69.948 156.511,69.947 " name="Hafenschleuse"/>
<polyline points="431.985,369.416 431.012,365.759 430.812,365.589 429.030,363.935 427.399,362.290 " name="Illerkanal"/>
<polyline points="281.626,147.025 281.746,146.844 " name="Neckar"/>
<polyline points="281.119,146.442 281.091,146.315 " name="Kaiser-Willhelm-Kanal"/>
<polyline points="401.413,374.256 401.381,374.237 " name="Rottum"/>
<polyline points="386.817,325.385 387.083,325.026 387.514,324.412 387.876,323.901 389.067,322.343 389.131,322.316 389.447,322.250 389.592,322.245 390.361,322.060 390.693,322.110 390.995,322.201 391.101,322.255 391.706,322.422 392.682,322.606 393.574,321.991 393.687,321.613 393.770,321.331 394.021,321.027 394.407,320.866 396.864,320.538 397.036,320.469 " name="Donau"/>
<polyline points="51.040,271.317 51.278,271.554 " name="Écluse No"/>
<polyline points="338.977,339.241 340.295,338.409 " name="Donaukanal"/>
<polyline points="44.070,358.115 43.897,357.109 43.875,356.968 " name="Elz"/>
<polyline points="341.235,181.714 341.174,181.693 341.047,181.655 " name="Murr"/>
<polyline points="51.040,271.317 48.711,268.799 " name="Bassin René Graff"/>
<polyline points="33.289,466.571 33.031,466.440 29.100,468.270 " name="Wiesekanal"/>
<polyline points="297.110,233.087 297.092,233.061 " name="Rossneckar"/>
<polyline points="297.622,234.269 297.329,233.522 297.110,233.087 " name="Hammerkanal"/>
<polyline points="170.449,146.183 166.892,143.566 165.695,142.475 161.175,140.841 156.381,139.508 " name="Saalbachkanal"/>
<polyline points="156.362,137.669 156.426,136.035 155.526,133.748 156.308,125.861 " name="Verlängerter Pfinzkanal"/>
<polyline points="301.800,215.693 301.428,215.449 " name="Mühlkanal"/>
<polyline points="298.187,213.241 298.278,213.080 298.459,212.865 " name="Mühlkanal"/>
<polyline points="144.922,151.264 144.833,150.964 144.851,150.813 144.993,150.121 145.142,149.420 145.570,149.118 145.816,148.912 148.005,146.997 148.228,146.799 148.438,146.704 148.798,146.601 148.674,145.084 148.536,143.215 149.239,141.538 150.251,139.238 150.867,137.845 150.966,137.777 151.051,137.721 " name="Rheinniederungskanal"/>
<polyline points="162.699,165.261 163.772,163.513 163.761,163.474 " name="Pfinz"/>
<polyline points="182.969,151.794 182.711,151.703 " name="Saalbach"/>
<polyline points="182.711,151.703 182.124,151.533 181.881,151.406 " name="Saalbach"/>
<polyline points="189.812,157.145 189.489,155.994 188.271,154.683 " name="Saalbach"/>
<polyline points="188.210,154.497 188.194,154.421 188.213,154.329 " name="Saalbach"/>
<polyline points="180.620,151.529 180.357,151.398 180.010,151.262 " name="Saalbach"/>
<polyline points="171.458,146.711 171.469,146.662 " name="Saalbach"/>
<polyline points="171.469,146.662 171.477,146.638 " name="Saalbach"/>
<polyline points="392.789,363.355 392.814,363.285 " name="Dürnach"/>
<polyline points="322.707,360.027 324.065,357.471 324.663,357.051 " name="Donau-Kanal"/>
<polyline points="176.845,186.796 176.365,186.855 " name="Kämpfelbach"/>
<polyline points="44.633,303.450 44.842,303.305 44.885,303.280 44.958,303.256 45.255,303.059 45.325,303.054 45.522,302.915 45.707,302.832 45.753,302.809 45.805,302.782 47.036,302.126 47.318,301.934 47.397,301.624 46.894,300.719 46.710,300.371 46.650,300.385 46.691,300.277 46.900,300.026 46.942,299.962 47.044,299.754 47.359,299.596 47.804,299.086 47.817,299.012 47.817,298.866 47.352,298.069 47.124,297.933 46.398,297.505 46.065,297.344 46.067,297.293 46.168,297.117 46.299,297.007 46.578,296.829 46.866,296.414 46.875,295.927 47.145,295.735 47.648,295.199 47.617,294.740 47.648,294.652 47.644,294.636 " name="Mühlbach"/>
<polyline points="242.707,278.220 242.758,278.227 243.269,278.246 " name="Mühlkanal"/>
<polyline points="154.436,134.095 155.526,133.748 " name="Jägerschrittkanal"/>
<polyline points="166.439,136.951 166.419,136.909 " name="Saalbach"/>
<polyline points="166.419,136.909 166.143,136.130 166.136,136.059 " name="Saalbach"/>
<polyline points="17.047,477.914 17.437,476.959 " name="Hafenbecken 1"/>
<polyline points="17.976,477.041 19.043,477.585 " name="Hafenbecken 2"/>
<polyline points="195.679,295.400 196.945,295.513 197.115,295.398 " name="Mühlkanal"/>
<polyline points="203.194,294.186 203.473,294.417 " name="Mühlkanal"/>
<polyline points="125.806,213.497 124.761,212.874 " name="Kraftwerkskanal"/>
<polyline points="230.523,191.551 230.769,191.571 230.821,191.591 " name="Kraftwerkkanal"/>
<polyline points="57.626,315.767 57.584,315.772 52.716,316.448 46.900,314.768 45.332,314.261 41.534,311.771 41.450,311.729 41.355,311.675 " name="Schutterentlastungskanal"/>
<polyline points="168.203,165.087 165.038,165.954 164.919,165.894 " name="Walzbachkanal"/>
<polyline points="2.993,452.148 3.154,453.230 3.759,455.981 3.396,460.125 3.452,460.284 5.480,463.479 6.235,464.668 10.017,470.000 11.164,471.522 12.479,473.266 15.659,476.314 16.213,476.714 16.414,476.843 16.751,477.033 " name="Canal de Huningue"/>
<polyline points="13.209,470.053 8.306,464.924 " name="Grand Canal d'Alsace"/>
<polyline points="8.306,464.924 7.039,463.367 " name="Grand Canal d'Alsace"/>
<polyline points="5.558,461.660 4.826,459.942 4.009,454.088 4.147,452.739 4.581,451.903 4.956,451.436 5.495,450.947 8.140,448.466 9.161,446.698 7.549,441.363 " name="Grand Canal d'Alsace"/>
<polyline points="5.558,461.660 5.810,462.667 8.306,464.924 " name="Grand Canal d'Alsace"/>
<polyline points="3.648,451.923 3.730,452.404 " name="Canal du Rhône au Rhin"/>
<polyline points="7.549,441.363 7.003,439.170 " name="Grand Canal d'Alsace"/>
<polyline points="6.661,436.107 6.271,437.470 7.549,441.363 " name="Grand Canal d'Alsace"/>
<polyline points="14.608,406.205 15.658,403.103 20.440,397.035 20.920,395.301 20.300,391.436 18.078,388.491 " name="Grand Canal d'Alsace"/>
<polyline points="18.078,388.491 16.506,386.593 15.891,385.949 " name="Grand Canal d'Alsace"/>
<polyline points="18.078,388.491 14.149,384.725 13.578,383.308 " name="Grand Canal d'Alsace"/>
<polyline points="13.578,383.308 13.364,383.000 " name="Canal de Neuf-Brisach"/>
<polyline points="15.447,368.234 14.252,365.624 14.092,364.998 15.532,360.690 " name="Grand Canal d'Alsace"/>
<polyline points="15.532,360.690 16.361,358.699 18.367,355.374 " name="Grand Canal d'Alsace"/>
<polyline points="31.949,327.156 33.379,324.840 35.258,324.050 " name="Grand Canal d'Alsace"/>
<polyline points="30.837,333.491 31.177,332.344 31.605,330.473 " name="Grand Canal d'Alsace"/>
<polyline points="115.223,328.678 113.110,328.957 " name="Kanal"/>
<polyline points="112.402,329.168 112.201,329.171 " name="Kanal"/>
<polyline points="397.688,303.323 397.750,303.378 397.971,303.545 399.954,304.558 401.264,305.210 401.392,305.290 401.734,305.389 401.743,305.387 403.203,305.031 403.235,304.975 " name="Blaukanal"/>
<polyline points="397.625,303.283 397.688,303.323 " name="Kraftwerk Glaeser"/>
<polyline points="349.598,183.782 349.548,183.680 " name="Murr"/>
<polyline points="349.548,183.680 349.518,183.627 " name="Murr"/>
<polyline points="162.601,170.689 164.528,166.962 165.038,166.052 165.038,165.954 " name="Weidgraben"/>
<polyline points="396.956,302.668 397.165,302.918 397.263,302.966 397.625,303.283 " name="Blaukanal"/>
<polyline points="396.956,302.668 397.532,302.430 " name="Blaukanal"/>
<polyline points="164.919,165.894 164.837,165.853 " name="Walzbachkanal"/>
<polyline points="164.837,165.853 164.072,165.216 163.761,163.474 " name="Walzbachkanal"/>
<polyline points="163.761,163.474 164.067,160.764 166.395,157.396 " name="Pfinz"/>
<polyline points="108.416,225.506 108.450,225.480 109.007,222.655 " name="Sandbach"/>
<polyline points="107.240,228.361 107.234,228.361 " name="Sandbach"/>
<polyline points="114.302,222.918 114.100,222.940 114.010,222.951 " name="Ooskanal"/>
<polyline points="113.958,222.956 112.813,223.093 111.833,223.203 " name="Ooskanal"/>
<polyline points="109.007,222.655 108.980,222.605 " name="Sandbach"/>
<polyline points="108.558,222.326 108.532,222.321 104.032,215.626 " name="Sandbach"/>
<polyline points="115.889,223.399 114.302,222.918 " name="Ooskanal"/>
<polyline points="197.115,295.398 197.164,295.393 " name="Mühlkanal"/>
<polyline points="197.164,295.393 197.231,295.364 " name="Mühlkanal"/>
<polyline points="420.891,329.982 420.801,329.802 420.339,329.141 419.864,328.351 419.901,328.016 419.314,327.528 419.122,327.403 418.942,327.327 414.186,320.614 414.076,320.568 412.124,318.268 411.861,317.579 411.501,316.541 411.426,316.203 411.374,314.314 410.948,313.297 409.436,310.852 408.467,308.873 408.447,308.760 408.258,308.241 408.068,308.102 " name="Illerkanal"/>
<polyline points="230.085,191.528 230.129,191.530 " name="Kraftwerkkanal"/>
<polyline points="205.291,293.126 206.291,293.148 " name="Mühlkanal"/>
<polyline points="166.395,157.396 166.590,157.202 " name="Pfinz"/>
<polyline points="166.590,157.202 167.253,156.364 167.690,155.532 168.287,149.928 " name="Pfinz"/>
<polyline points="349.710,183.891 349.598,183.782 " name="Murr"/>
<polyline points="156.020,139.409 152.163,138.906 151.110,137.684 " name="Saalbachkanal"/>
<polyline points="156.381,139.508 156.020,139.409 " name="Saalbachkanal"/>
<polyline points="117.722,208.287 117.691,208.281 " name="Schachtelbach"/>
<polyline points="129.657,213.639 129.643,213.641 129.053,213.391 128.784,213.219 125.806,213.497 125.224,213.009 125.176,212.985 124.761,212.874 121.145,211.562 120.835,211.440 120.773,211.412 120.154,210.947 119.965,210.726 119.772,210.472 " name="Gewerbekanal"/>
<polyline points="382.469,456.657 381.592,457.064 381.229,457.353 " name="Argen Kanal"/>
<polyline points="46.466,349.690 46.494,348.649 " name="Kleine Elz"/>
<polyline points="350.678,198.381 350.685,198.485 " name="Lein"/>
<polyline points="192.084,76.379 192.032,76.407 " name="Mühlgraben"/>
<polyline points="382.311,76.508 383.370,77.092 " name="Mühlkanal"/>
<polyline points="168.287,149.928 170.423,146.234 170.449,146.183 " name="Pfinzkanal"/>
<polyline points="26.724,475.319 26.470,475.684 " name="Weilteich"/>
<polyline points="162.013,172.362 162.601,170.689 " name="Weidgraben"/>
<polyline points="27.687,475.100 27.599,475.295 " name="Gewerbekanal"/>
<polyline points="422.406,81.755 421.112,81.631 " name="Mühlbach"/>
<polyline points="275.736,153.345 275.886,153.318 " name="Mühlkanal"/>
<polyline points="421.021,81.655 420.995,81.665 " name="Mühlbach"/>
<polyline points="421.112,81.631 421.066,81.638 421.021,81.655 " name="Mühlbach"/>
<polyline points="28.214,473.859 27.769,474.700 27.687,475.100 " name="Gewerbekanal"/>
<polyline points="136.639,250.725 136.582,250.801 " name="Überleitung"/>
<polyline points="136.312,422.934 136.435,422.942 " name="Mühlenkanal"/>
<polyline points="70.480,464.262 70.404,464.843 " name="Hochwasserentlastung"/>
<polyline points="68.709,466.849 68.701,466.917 " name="Mühlenkanal"/>
<polyline points="230.129,191.530 230.523,191.551 " name="Kraftwerkkanal"/>
<polyline points="347.244,404.733 347.734,404.973 " name="Mühlenkanal"/>
<polyline points="295.778,232.196 295.366,232.063 " name="Rossneckar"/>
<polyline points="346.896,404.577 347.092,404.674 " name="Mühlenkanal"/>
<polyline points="323.269,446.669 323.173,446.803 " name="Rotach"/>
<polyline points="295.960,232.141 295.778,232.196 " name="Rossneckar"/>
<polyline points="295.508,231.918 295.384,231.927 " name="Rossneckar"/>
<polyline points="295.384,231.927 293.512,232.449 293.413,232.506 " name="Rossneckar"/>
<polyline points="296.928,232.862 296.909,232.817 296.842,232.740 " name="Rossneckar"/>
<polyline points="43.875,356.968 32.201,338.355 31.960,337.199 " name="Leopoldskanal"/>
<polyline points="311.355,284.953 311.404,284.900 " name="Erms"/>
<polyline points="311.453,284.793 311.456,284.786 " name="Erms"/>
<polyline points="38.416,333.959 38.406,333.953 " name="Fjord-Rafting"/>
<polyline points="338.977,193.107 338.998,193.112 338.977,193.107 " name="Biotop"/>
<polyline points="210.537,294.786 211.671,294.458 211.707,294.516 " name="Mühlkanal"/>
<polyline points="434.777,253.961 434.469,254.813 " name="Brenzseitenkanal"/>
<polyline points="107.169,214.392 107.314,214.302 107.383,214.268 107.564,214.167 107.585,214.155 107.608,214.140 108.540,213.581 109.234,213.169 110.804,212.231 110.819,212.222 110.873,212.190 111.012,212.068 111.622,211.745 111.644,211.731 113.005,210.912 113.133,210.784 113.162,210.731 113.582,209.893 113.621,209.766 113.664,209.584 113.680,208.596 113.665,208.346 113.579,207.984 113.584,207.929 113.650,207.821 113.875,207.675 113.907,207.643 113.973,207.433 114.477,206.425 114.648,206.132 114.583,206.002 114.494,205.896 114.146,205.104 114.018,205.002 113.854,204.850 113.172,204.431 113.084,204.348 113.055,204.269 113.088,204.192 113.121,204.097 113.151,203.983 113.175,203.712 112.779,202.716 112.782,202.495 112.817,202.440 113.152,202.059 113.163,202.047 113.191,202.020 113.913,201.214 114.106,200.874 114.103,200.863 113.394,199.780 113.244,199.550 113.107,199.270 113.101,199.254 112.858,198.694 112.649,198.273 111.714,197.653 111.658,197.603 111.633,197.460 " name="Riedkanal"/>
<polyline points="192.285,202.344 192.285,202.329 " name="Mühlkanal"/>
<polyline points="192.838,201.599 192.858,201.583 " name="Mühlkanal"/>
<polyline points="192.858,201.583 192.961,201.473 " name="Mühlkanal"/>
<polyline points="192.285,202.329 192.304,202.232 " name="Mühlkanal"/>
<polyline points="192.304,202.232 192.552,201.994 192.560,201.980 " name="Mühlkanal"/>
<polyline points="192.961,201.473 193.057,201.450 " name="Mühlkanal"/>
<polyline points="193.057,201.450 193.603,201.007 194.141,200.882 " name="Mühlkanal"/>
<polyline points="192.560,201.980 192.579,201.953 " name="Mühlkanal"/>
<polyline points="192.579,201.953 192.838,201.599 " name="Mühlkanal"/>
<polyline points="194.141,200.882 194.415,200.918 " name="Mühlkanal"/>
<polyline points="56.083,462.699 56.032,462.845 54.679,463.400 53.304,464.062 53.218,464.089 50.644,463.754 " name="Gewerbekanal"/>
<polyline points="56.064,462.631 56.083,462.699 " name="Kanal"/>
<polyline points="381.229,457.353 381.126,457.440 " name="Argen Kanal"/>
<polyline points="393.780,168.027 393.772,167.904 " name="Bühler"/>
<polyline points="394.720,169.627 394.706,169.559 " name="Bühler"/>
<polyline points="119.772,210.472 118.039,208.489 117.602,208.545 " name="Gewerbekanal"/>
<polyline points="352.700,149.882 353.024,150.408 " name="Mühlkanal"/>
<polyline points="315.524,133.725 315.273,133.427 " name="Mühlkanal_Neudecker_Mühle"/>
<polyline points="319.723,142.890 319.637,142.817 " name="Mühlkanal"/>
<polyline points="343.098,114.555 342.903,114.511 " name="Hornschuch_Kanal"/>
<polyline points="377.631,112.055 377.662,112.025 " name="Mühlkanal"/>
<polyline points="361.246,96.277 360.765,96.258 " name="Mühlkanal"/>
<polyline points="337.327,104.742 336.908,104.748 " name="Mühlkanal"/>
<polyline points="352.777,97.897 351.081,97.621 " name="Mühlkanal"/>
<polyline points="369.783,98.811 369.305,98.812 " name="Mühlkanal"/>
<polyline points="355.619,95.763 355.014,95.669 " name="Mühlkanal"/>
<polyline points="326.032,99.961 325.364,100.249 " name="Mühlkanal"/>
<polyline points="344.636,101.383 344.603,101.336 " name="Mühlkanal"/>
<polyline points="358.113,113.021 357.464,113.107 " name="Mühlkanal"/>
<polyline points="380.843,114.081 380.278,113.749 " name="Mühlkanal"/>
<polyline points="382.449,119.101 383.054,118.134 " name="Mühlkanal"/>
<polyline points="337.613,115.976 336.318,116.108 " name="Mühlkanal"/>
<polyline points="366.330,99.954 365.886,100.213 " name="Mühlkanal"/>
<polyline points="360.315,96.139 360.055,96.220 " name="Mühlkanal"/>
<polyline points="377.595,112.729 377.307,112.314 " name="Mühlkanal"/>
<polyline points="323.990,118.240 324.066,117.945 322.911,117.200 322.633,117.167 320.771,117.655 319.634,118.750 319.375,119.121 319.324,119.210 319.388,120.389 319.483,120.586 320.263,121.616 " name="EVS-Kanal"/>
<polyline points="340.893,181.562 340.838,181.534 " name="Murr"/>
<polyline points="341.047,181.655 340.893,181.562 " name="Murr"/>
<polyline points="413.037,199.746 412.992,199.749 " name="Kocherkanal"/>
<polyline points="175.335,94.981 175.346,94.971 " name="Leimbach"/>
<polyline points="243.269,278.246 243.329,278.257 " name="Mühlkanal"/>
<polyline points="243.329,278.257 245.532,278.791 " name="Mühlkanal"/>
<polyline points="254.563,208.662 254.608,208.665 " name="Döbach"/>
<polyline points="254.608,208.665 254.638,208.665 " name="Döbach"/>
<polyline points="252.139,208.692 252.176,208.700 " name="Döbach"/>
<polyline points="66.085,248.179 69.291,243.491 74.364,240.301 " name="Canal de Dérivation de L'Ill"/>
<polyline points="307.076,192.227 306.971,192.242 " name="Mühlkanal"/>
<polyline points="314.232,32.130 314.140,32.195 " name="Triebleitung"/>
<polyline points="314.480,31.596 314.428,31.707 " name="Zuleitung Widder"/>
<polyline points="315.743,33.092 314.140,32.195 " name="Steigleitung"/>
<polyline points="314.428,31.707 314.232,32.130 " name="Zuleitung Widder"/>
<polyline points="250.729,74.417 250.509,74.545 247.127,75.721 " name="Oberwasserkanal"/>
<polyline points="284.454,127.286 284.467,127.511 284.177,128.443 282.535,128.773 281.291,129.314 279.475,129.210 " name="Salinekanal"/>
<polyline points="50.895,276.516 50.916,276.392 51.281,274.176 51.512,272.954 " name="Canal d'Alsace"/>
<polyline points="367.709,120.560 367.647,120.618 " name="Steigungshilfe für Fische"/>
<polyline points="367.678,120.522 367.703,120.553 " name="Steigungshilfe für Fische"/>
<polyline points="367.703,120.553 367.709,120.560 " name="Steigungshilfe für Fische"/>
<polyline points="47.509,284.259 47.637,283.732 50.192,280.020 " name="Canal d'Alsace"/>
<polyline points="51.512,272.954 50.089,274.101 " name="Bassin Auguste Detœuf"/>
<polyline points="51.281,274.176 49.821,275.328 " name="Bassin Gaston Haelling"/>
<polyline points="421.141,336.700 421.452,333.869 421.075,331.120 " name="Illerkanal(Wielandkanal)"/>
<polyline points="290.708,213.703 290.693,213.677 " name="Uhlandstraße"/>
<polyline points="48.627,277.295 48.554,277.413 " name="Bassin Adrien Weirich"/>
<polyline points="377.635,111.096 377.681,111.004 " name="Kanal zur Mühle"/>
<polyline points="50.916,276.392 49.018,280.295 " name="Darse IV"/>
<polyline points="47.571,283.427 49.088,281.457 49.140,281.373 49.899,279.539 " name="Contre-Canal de Drainage"/>
<polyline points="49.860,279.519 49.714,279.381 " name="Contre-Canal de Drainage"/>
<polyline points="49.899,279.539 49.860,279.519 " name="Contre-Canal de Drainage"/>
<polyline points="314.572,367.893 314.142,370.124 314.031,370.235 " name="donau_new"/>
<polyline points="47.571,283.427 47.386,283.670 " name="Contre-Canal de Drainage"/>
<polyline points="47.386,283.670 47.341,283.703 " name="Contre-Canal de Drainage"/>
<polyline points="407.378,307.723 407.025,307.573 406.943,307.503 " name="Illerkanal"/>
<polyline points="406.943,307.503 406.891,307.324 " name="Illerkanal"/>
<polyline points="244.909,243.492 245.761,243.417 244.909,243.492 " name="Langer See"/>
<polyline points="158.470,111.525 159.142,111.851 " name="Werfthafen"/>
<polyline points="156.572,109.903 156.684,109.573 " name="Yachthafen (Marina)"/>
<polyline points="156.937,109.742 156.939,109.501 " name="Floßhafen"/>
<polyline points="187.283,361.678 187.388,361.571 " name="Kanal"/>
<polyline points="186.149,362.854 187.283,361.678 " name="Kanal"/>
<polyline points="185.469,363.323 185.654,363.245 " name="Mühlkanal"/>
<polyline points="187.388,361.571 187.475,361.369 187.501,361.312 " name="Kanal"/>
<polyline points="407.037,306.777 407.101,306.786 " name="Blaukanal"/>
<polyline points="260.049,192.027 259.886,191.324 " name="Alter Flößerkanal"/>
<polyline points="297.092,233.061 297.057,233.020 " name="Rossneckar"/>
<polyline points="297.057,233.020 296.928,232.862 " name="Rossneckar"/>
<polyline points="421.075,331.120 420.891,329.982 " name="Illerkanal(Wielandkanal)"/>
<polyline points="38.963,309.007 39.871,309.713 " name="Ancien Canal de l'Ill au Rhin"/>
<polyline points="31.736,326.228 33.686,324.126 34.519,323.765 38.956,322.398 39.697,322.196 39.882,322.129 40.353,321.917 41.018,321.480 41.225,321.297 41.926,320.310 42.052,320.018 42.119,319.773 42.177,318.767 42.103,318.467 41.827,317.432 " name="Canal de Drainage"/>
<polyline points="365.208,114.023 364.908,114.106 " name="Steinbach"/>
<polyline points="3.648,451.923 4.197,451.995 4.581,451.903 " name="Canal du Rhône au Rhin"/>
<polyline points="155.286,191.529 155.165,191.504 " name="Industriekanal Spinnerei"/>
<polyline points="156.973,202.017 156.873,201.303 156.954,201.563 " name="Industriekanal Gertrudenhof"/>
<polyline points="157.821,196.711 157.490,196.690 " name="Industriekanal kochmühle"/>
<polyline points="156.985,200.822 157.160,200.958 " name="Industriekanal Moosalb"/>
<polyline points="157.107,199.789 157.821,196.711 " name="Industriekanal Fischweier"/>
<polyline points="158.186,195.020 157.659,194.390 " name="Naturschwimmbad"/>
<polyline points="157.856,195.774 158.018,195.430 158.019,195.425 " name="Industriekanal kochmühle"/>
<polyline points="157.332,202.763 156.973,202.017 " name="Industriekanal Gertrudenhof"/>
<polyline points="393.246,334.339 393.264,334.212 " name="Rot"/>
<polyline points="273.584,162.614 273.082,162.191 " name="Neckar"/>
<polyline points="157.659,194.390 156.606,192.887 " name="Industriekanal Neurod/Spinnerei"/>
<polyline points="102.602,330.052 102.386,330.060 " name="Gewerbekanal"/>
<polyline points="101.035,330.364 100.677,330.364 " name="Gewerbekanal"/>
<polyline points="28.246,472.823 28.292,473.166 " name="Gewerbekanal"/>
<polyline points="278.985,355.011 279.070,355.152 " name="Lauchert"/>
<polyline points="33.223,466.992 33.169,467.007 32.939,466.938 " name="Feldteich"/>
<polyline points="34.430,466.921 34.292,467.130 " name="Feldteich"/>
<polyline points="36.473,466.500 35.586,466.515 " name="Feldteich"/>
<polyline points="246.010,76.085 243.977,77.572 244.029,77.696 " name="Oberwasserkanal"/>
<polyline points="246.492,76.016 246.010,76.085 " name="Oberwasserkanal"/>
<polyline points="247.127,75.721 246.492,76.016 " name="Oberwasserkanal"/>
<polyline points="177.032,149.048 176.863,148.995 " name="Saalbachkanal"/>
<polyline points="176.863,148.995 175.842,148.830 175.315,148.079 " name="Saalbachkanal"/>
<polyline points="178.940,150.875 178.233,150.722 " name="Saalbach"/>
<polyline points="175.272,147.935 172.855,146.891 171.488,146.614 170.449,146.183 " name="Saalbachkanal"/>
<polyline points="175.315,148.079 175.272,147.935 " name="Saalbachkanal"/>
<polyline points="136.121,279.235 136.179,279.226 " name="Mühlgraben"/>
<polyline points="171.477,146.638 171.488,146.614 171.499,146.592 " name="Saalbach"/>
<polyline points="171.499,146.592 171.663,146.365 171.830,146.041 171.369,143.878 171.349,143.837 170.531,142.034 170.302,141.533 170.286,141.466 170.232,141.382 168.467,139.716 167.966,139.064 167.808,138.820 167.247,138.260 167.153,138.013 167.022,137.777 166.771,137.434 166.675,137.339 166.495,137.092 166.439,136.951 " name="Saalbach"/>
<polyline points="392.201,444.866 392.327,445.149 " name="Untere Argen"/>
<polyline points="3.523,452.337 3.730,452.404 3.975,452.515 4.147,452.739 " name="Canal du Rhône au Rhin"/>
<polyline points="280.552,210.437 280.531,210.385 " name="Wasserrutsche"/>
<polyline points="424.562,111.392 424.561,111.471 " name="Klostergasse"/>
<polyline points="152.707,191.201 151.865,190.475 " name="Ehem. Industriekanal Buhl"/>
<polyline points="250.768,344.407 250.963,344.423 " name="Wasserlauf"/>
<polyline points="156.434,192.318 155.831,191.692 155.286,191.529 " name="Industriekanal Spinnerei"/>
<polyline points="151.845,190.468 151.424,190.400 151.278,190.360 " name="Industriekanal Bardusch"/>
<polyline points="151.865,190.475 151.845,190.468 " name="Industriekanal Bardusch"/>
<polyline points="180.010,151.262 179.785,151.178 " name="Saalbach"/>
<polyline points="150.572,190.111 150.510,190.048 " name="Kirchenmühlkanal"/>
<polyline points="148.985,188.915 148.807,188.743 " name="Alter ETO-Kanal"/>
<polyline points="159.150,378.592 159.208,378.585 159.224,378.591 " name="Mühlenkanal"/>
<polyline points="56.032,462.845 56.026,462.899 " name="Gewerbekanal"/>
<polyline points="28.172,471.290 28.047,472.225 " name="Gewerbekanal"/>
<polyline points="356.954,116.039 356.957,116.035 352.815,114.258 " name="EVS-Kanal"/>
<polyline points="159.224,378.591 160.030,379.513 160.208,379.977 " name="Mühlenkanal"/>
<polyline points="159.227,378.392 159.224,378.591 " name="Mühlenkanal"/>
<polyline points="100.934,235.257 100.804,235.266 " name="Sandbach Flutkanal"/>
<polyline points="100.804,235.266 100.002,234.025 99.981,234.007 " name="Sandbach Flutkanal"/>
<polyline points="98.830,330.120 98.749,330.094 " name="Gewerbekanal"/>
<polyline points="102.386,330.060 102.330,330.117 " name="Gewerbekanal"/>
<polyline points="99.239,330.323 98.969,330.156 98.830,330.120 " name="Gewerbekanal"/>
<polyline points="98.749,330.094 98.676,330.058 98.422,330.053 " name="Gewerbekanal"/>
<polyline points="99.544,330.573 99.239,330.323 " name="Gewerbekanal"/>
<polyline points="102.330,330.117 102.177,330.135 100.677,330.364 99.544,330.573 " name="Gewerbekanal"/>
<polyline points="298.202,213.301 298.187,213.241 " name="Mühlkanal"/>
<polyline points="87.131,268.588 86.869,268.520 86.400,268.342 85.483,267.847 80.416,265.102 79.569,264.329 79.452,264.178 78.268,261.737 78.246,261.691 77.902,260.966 77.871,260.524 78.057,259.804 79.008,255.989 79.139,254.211 79.274,253.769 79.972,251.879 80.611,250.161 80.668,249.961 80.695,249.759 80.709,248.634 79.847,247.293 79.717,246.917 79.712,246.721 79.732,246.546 80.072,245.737 80.091,245.695 80.238,245.369 80.289,245.185 80.307,245.004 " name="Rench-Flutkanal"/>
<polyline points="42.225,294.111 42.299,294.020 43.003,292.407 43.173,289.691 43.326,288.312 44.951,286.451 45.428,285.937 " name="Contre-Canal de Drainage"/>
<polyline points="47.341,283.703 47.222,283.849 46.313,284.953 46.032,285.248 " name="Contre-Canal de Drainage"/>
<polyline points="45.428,285.937 45.443,285.919 " name="Contre-Canal de Drainage"/>
<polyline points="46.030,285.275 45.443,285.919 " name="Contre-Canal de Drainage"/>
<polyline points="46.032,285.248 46.030,285.275 " name="Contre-Canal de Drainage"/>
<polyline points="151.110,137.684 151.004,137.561 150.507,136.613 " name="Saalbachkanal"/>
<polyline points="86.143,252.363 85.308,252.023 80.695,249.759 " name="Acher-Flutkanal"/>
<polyline points="32.893,466.863 32.865,466.819 " name="Feldteich"/>
<polyline points="32.939,466.938 32.893,466.863 " name="Feldteich"/>
<polyline points="56.026,462.899 54.889,463.541 54.679,463.400 " name="Gewerbekanal"/>
<polyline points="432.891,255.042 434.430,256.137 " name="Orstel"/>
<polyline points="23.965,478.564 23.776,478.723 23.228,479.016 " name="Neuer Teich"/>
<polyline points="24.254,478.329 23.965,478.564 " name="Neuer Teich"/>
<polyline points="41.738,317.174 41.602,316.567 41.246,315.230 41.030,314.404 39.627,312.469 39.540,312.342 38.672,310.535 38.581,310.210 38.422,309.486 38.371,309.174 38.344,308.864 38.311,308.428 38.393,306.667 39.493,301.619 39.481,301.488 38.870,300.878 38.443,300.661 38.334,300.627 38.094,300.429 37.932,300.051 37.927,299.572 37.888,299.478 37.337,299.300 " name="Canal d'Alimentation de l'Ill"/>
<polyline points="326.994,263.122 326.879,263.181 " name="Gießnaubach"/>
<polyline points="381.126,457.440 380.856,457.677 378.279,459.356 " name="Argen Kanal"/>
<polyline points="379.383,74.509 379.216,73.923 " name="Mühlkanal Igersheim"/>
<polyline points="154.487,123.101 154.490,122.886 " name="Kühlwasserauslauf"/>
<polyline points="6.965,463.406 6.705,463.121 " name="Écluse No 1"/>
<polyline points="6.780,463.065 5.558,461.660 " name="Grand Canal d'Alsace"/>
<polyline points="7.039,463.367 6.780,463.065 " name="Écluse No 1"/>
<polyline points="7.003,439.170 6.957,438.759 " name="Grand Canal d'Alsace"/>
<polyline points="6.957,438.759 6.886,438.393 " name="Écluse No 2"/>
<polyline points="6.816,438.401 6.794,438.029 " name="Grand Canal d'Alsace"/>
<polyline points="6.879,438.769 6.816,438.401 " name="Écluse No 2"/>
<polyline points="6.794,438.029 6.661,436.107 " name="Grand Canal d'Alsace"/>
<polyline points="6.886,438.393 6.794,438.029 " name="Grand Canal d'Alsace"/>
<polyline points="15.891,385.949 15.478,385.575 " name="Grand Canal d'Alsace"/>
<polyline points="15.209,385.296 14.947,384.952 " name="Grand Canal d'Alsace"/>
<polyline points="15.532,385.535 15.264,385.259 " name="Écluse No 4"/>
<polyline points="15.891,385.949 15.532,385.535 " name="Grand Canal d'Alsace"/>
<polyline points="15.264,385.259 14.947,384.952 " name="Grand Canal d'Alsace"/>
<polyline points="14.947,384.952 13.578,383.308 " name="Grand Canal d'Alsace"/>
<polyline points="15.478,385.575 15.209,385.296 " name="Écluse No 4"/>
<polyline points="7.003,439.170 6.879,438.769 " name="Grand Canal d'Alsace"/>
<polyline points="17.441,357.331 18.367,355.374 " name="Grand Canal d'Alsace"/>
<polyline points="31.799,329.533 31.949,327.156 " name="Grand Canal d'Alsace"/>
<polyline points="31.628,330.189 31.706,329.821 " name="Écluse No 6"/>
<polyline points="31.605,330.473 31.699,330.196 " name="Grand Canal d'Alsace"/>
<polyline points="31.605,330.473 31.628,330.189 " name="Grand Canal d'Alsace"/>
<polyline points="31.699,330.196 31.772,329.834 " name="Écluse No 6"/>
<polyline points="31.706,329.821 31.799,329.533 " name="Grand Canal d'Alsace"/>
<polyline points="31.772,329.834 31.799,329.533 " name="Grand Canal d'Alsace"/>
<polyline points="39.110,306.020 39.944,303.221 40.506,302.555 " name="Grand Canal d'Alsace"/>
<polyline points="41.122,313.597 39.850,312.318 38.782,309.858 39.110,306.020 39.652,305.258 " name="Grand Canal d'Alsace"/>
<polyline points="39.840,304.753 39.966,304.389 " name="Écluse No"/>
<polyline points="40.506,302.555 41.592,301.556 " name="Grand Canal d'Alsace"/>
<polyline points="39.773,304.735 39.905,304.374 " name="Écluse No"/>
<polyline points="39.652,305.258 39.760,305.010 39.840,304.753 " name="Grand Canal d'Alsace"/>
<polyline points="39.905,304.374 40.035,304.111 " name="Grand Canal d'Alsace"/>
<polyline points="39.966,304.389 40.035,304.111 " name="Grand Canal d'Alsace"/>
<polyline points="40.035,304.111 40.356,303.182 40.506,302.555 " name="Grand Canal d'Alsace"/>
<polyline points="50.470,278.441 50.540,278.077 " name="Écluse No"/>
<polyline points="50.316,279.048 50.352,278.674 50.399,278.430 " name="Canal d'Alsace"/>
<polyline points="50.540,278.077 50.546,277.849 " name="Canal d'Alsace"/>
<polyline points="50.192,280.020 50.873,277.959 50.895,276.516 " name="Canal d'Alsace"/>
<polyline points="50.316,279.048 50.470,278.441 " name="Canal d'Alsace"/>
<polyline points="50.467,278.066 50.546,277.849 " name="Canal d'Alsace"/>
<polyline points="50.399,278.430 50.467,278.066 " name="Écluse No"/>
<polyline points="50.546,277.849 50.895,276.516 " name="Canal d'Alsace"/>
<polyline points="50.192,280.020 50.237,279.552 50.316,279.048 " name="Canal d'Alsace"/>
<polyline points="165.254,132.747 165.106,132.653 " name="Saalbach"/>
<polyline points="188.213,154.329 188.227,154.295 " name="Saalbach"/>
<polyline points="181.774,366.042 181.855,366.030 " name="Mühlgraben"/>
<polyline points="80.307,245.004 80.289,244.861 80.246,244.683 79.244,242.458 77.444,240.464 77.363,240.194 77.497,239.890 78.573,237.143 78.622,236.691 78.593,236.428 " name="Rench"/>
<polyline points="276.056,153.022 276.079,152.998 276.144,152.868 " name="Mühlkanal"/>
<polyline points="275.886,153.318 275.981,153.161 " name="Mühlkanal"/>
<polyline points="275.981,153.161 276.056,153.022 " name="Mühlkanal"/>
<polyline points="16.035,385.279 16.016,385.271 " name="Échelle à Saumons"/>
<polyline points="305.115,109.345 305.124,109.544 " name="Seckach"/>
<polyline points="295.958,206.673 296.021,206.575 " name="Rems"/>
<polyline points="101.729,213.032 101.735,213.009 101.694,212.890 " name="Fischpass"/>
<polyline points="101.819,212.848 101.828,212.799 " name="Fischpass"/>
<polyline points="101.694,212.890 101.687,212.862 " name="Fischpass"/>
<polyline points="101.687,212.862 101.690,212.811 101.838,212.873 " name="Fischpass"/>
<polyline points="101.796,213.083 101.736,212.972 " name="Zulauf Fischpass"/>
<polyline points="396.491,314.695 398.153,315.460 398.343,315.405 " name="Rötelbach"/>
<polyline points="400.856,312.959 401.376,312.459 402.150,310.566 " name="Grenzgraben"/>
<polyline points="402.150,310.566 403.861,309.086 " name="Grenzgraben"/>
<polyline points="138.574,227.380 138.470,227.173 138.500,227.041 " name="Werkskanal"/>
<polyline points="430.013,185.848 430.106,185.840 " name="Mühlgraben"/>
<polyline points="203.762,262.500 203.894,262.087 " name="Beileitungsstollen"/>
<polyline points="176.365,186.855 176.353,186.855 " name="Kämpfelbach"/>
<polyline points="176.353,186.855 176.343,186.855 176.305,186.855 " name="Kämpfelbach"/>
<polyline points="138.500,227.041 138.531,226.854 " name="Werkskanal"/>
<polyline points="138.531,226.854 138.521,226.671 138.535,226.541 " name="Werkskanal"/>
<polyline points="158.028,195.376 158.113,195.220 " name="Industriekanal kochmühle"/>
<polyline points="158.019,195.425 158.028,195.376 " name="Industriekanal kochmühle"/>
<polyline points="285.754,210.696 285.816,210.577 " name="Gretelstollen"/>
<polyline points="89.565,469.578 89.350,469.528 " name="wühre"/>
<polyline points="27.599,475.295 27.558,475.593 27.438,475.813 24.254,478.329 " name="Neuer Teich"/>
<polyline points="416.782,200.254 417.201,200.169 " name="Kocher Kanal"/>
<polyline points="324.663,357.051 324.930,356.907 " name="Donau-Kanal"/>
<polyline points="69.771,474.305 69.585,475.359 " name="Industriekanal Öflingen"/>
<polyline points="69.605,475.584 69.218,477.198 " name="Industriekanal Öflingen"/>
<polyline points="69.247,477.270 69.266,477.309 " name="Industriekanal Öflingen"/>
<polyline points="69.585,475.359 69.605,475.584 " name="Konsens-Trasse"/>
<polyline points="69.218,477.219 69.247,477.270 " name="Industriekanal Öflingen"/>
<polyline points="299.828,378.999 300.282,378.680 " name="Ablach-Kanal"/>
<polyline points="296.844,381.052 297.243,380.769 " name="Ablach-Kanal"/>
<polyline points="381.811,340.868 381.708,340.466 " name="Rißkanal"/>
<polyline points="92.835,417.598 104.278,420.865 " name="Hangkanal"/>
<polyline points="77.027,461.978 74.707,462.835 " name="Druckstollen Kavernenkraftwerk Wehr"/>
<polyline points="71.099,464.433 70.590,464.825 " name="Umleitungsstollen"/>
<polyline points="74.304,463.203 71.410,464.129 " name="Unterwasser-Stollen Kavernenkraftwerk Wehr"/>
<polyline points="77.393,478.691 77.378,478.702 " name="Oberwasserstollen Kavernenkraftwerk Säckingen"/>
<polyline points="77.378,478.702 77.093,478.648 77.076,478.733 " name="Oberwasserstollen Kavernenkraftwerk Säckingen"/>
<polyline points="77.168,478.797 77.344,483.039 " name="Unterwasser-Stollen Kavernenkraftwerk Säckingen"/>
<polyline points="165.434,133.067 165.254,132.747 " name="Saalbach"/>
<polyline points="163.733,175.909 162.993,175.663 162.762,175.503 162.384,174.274 162.315,174.069 162.285,174.021 161.676,170.343 161.614,170.249 160.891,169.647 159.972,168.990 159.543,168.686 159.315,168.524 158.579,168.002 " name="Pfinzentlastungskanal"/>
<polyline points="178.233,150.722 177.367,150.628 176.707,150.194 176.574,150.036 176.021,149.302 175.219,148.737 171.528,148.122 171.458,146.711 " name="Saalbach"/>
<polyline points="178.233,150.722 178.196,150.714 177.032,149.048 " name="Saalbachkanal"/>
<polyline points="229.436,367.065 229.917,367.641 " name="Wasserwerk Hammer"/>
<polyline points="279.096,198.278 279.095,198.284 " name="Märchenbach"/>
<polyline points="279.026,198.316 278.995,198.303 279.096,198.278 " name="Märchenbach"/>
<polyline points="279.068,198.314 279.026,198.316 " name="Märchenbach"/>
<polyline points="279.095,198.284 279.083,198.302 279.068,198.314 " name="Märchenbach"/>
<polyline points="307.559,191.949 307.076,192.227 " name="Mühlkanal"/>
<polyline points="43.260,295.398 44.213,295.735 43.438,297.465 " name="Canal de Drainage"/>
<polyline points="270.919,176.872 270.918,176.556 271.292,176.132 271.486,175.996 " name="Neckar"/>
<polyline points="273.584,162.614 273.110,162.168 " name="Neckar"/>
<polyline points="279.475,129.210 279.279,129.255 279.190,129.234 " name="Salinekanal"/>
<polyline points="279.190,129.234 278.488,128.689 " name="Salinekanal"/>
<polyline points="38.406,333.953 38.264,333.685 " name="Fjord-Rafting"/>
<polyline points="197.371,202.208 197.274,201.805 " name="Metzelgraben"/>
<polyline points="197.771,201.079 197.790,201.057 " name="Metzelgraben"/>
<polyline points="197.731,201.133 197.771,201.079 " name="Metzelgraben"/>
<polyline points="197.790,201.057 197.825,201.007 " name="Metzelgraben"/>
<polyline points="389.844,459.257 389.819,458.992 " name="Mühllanal Staudach"/>
<polyline points="217.013,109.828 217.032,109.829 217.013,109.828 " name="Elsenz Entlastungskanal"/>
<polyline points="463.885,206.071 464.507,205.898 " name="Mühlkanal Nagelmühle"/>
<polyline points="465.019,206.031 465.135,206.010 465.222,205.991 " name="Mühlkanal Ölmühle"/>
<polyline points="465.488,206.120 465.506,206.137 " name="Mühlkanal Ölmühle"/>
<polyline points="465.506,206.137 466.226,206.919 466.571,207.031 " name="Mühlkanal Ölmühle"/>
<polyline points="465.222,205.991 465.244,205.983 " name="Mühlkanal Ölmühle"/>
<polyline points="465.244,205.983 465.261,205.982 465.339,205.992 465.488,206.120 " name="Mühlkanal Ölmühle"/>
<polyline points="362.522,57.506 362.387,57.242 " name="Mühlkanal"/>
<polyline points="179.912,76.656 178.801,75.886 178.183,75.533 171.013,76.023 169.482,75.721 168.346,75.333 167.573,74.974 167.168,74.807 " name="Neckarkanal"/>
<polyline points="100.934,235.257 101.498,235.245 " name="Sandbach Flutkanal"/>
<polyline points="273.233,274.173 276.300,273.079 276.814,272.631 " name="Neckarkanal"/>
<polyline points="193.446,90.414 192.827,90.229 191.168,89.537 188.595,84.057 187.487,83.423 187.226,83.447 " name="Neckarkanal"/>
<polyline points="187.487,83.423 187.341,83.407 187.222,83.398 " name="Neckarkanal"/>
<polyline points="167.573,74.974 167.443,74.866 167.304,74.815 " name="Neckarkanal"/>
<polyline points="103.401,236.639 103.485,236.160 103.496,236.075 103.503,235.991 103.426,235.072 103.311,234.981 103.229,234.949 101.553,235.246 101.498,235.245 " name="Sandbach Flutkanal"/>
<polyline points="111.833,223.203 109.128,222.950 " name="Ooskanal"/>
<polyline points="114.010,222.951 113.958,222.956 " name="Ooskanal"/>
<polyline points="117.602,208.545 117.559,208.531 " name="Gewerbekanal"/>
<polyline points="117.559,208.531 117.381,208.439 117.323,208.412 " name="Gewerbekanal"/>
<polyline points="434.059,256.976 434.123,257.165 " name="Brenz, renaturisierter Seitenarm"/>
<polyline points="424.358,350.967 424.433,350.949 " name="Fabrikbach"/>
<polyline points="424.433,350.949 424.532,350.921 " name="Fabrikbach"/>
<polyline points="424.340,350.972 424.358,350.967 " name="Fabrikbach"/>
<polyline points="425.949,355.049 425.751,355.093 " name="Fabrikbach"/>
<polyline points="425.751,355.093 425.614,354.980 425.598,354.891 424.340,350.972 " name="Fabrikbach"/>
<polyline points="424.532,350.921 424.557,350.914 424.402,350.381 " name="Fabrikbach"/>
<polyline points="38.590,333.899 38.578,334.022 " name="Atlantica SuperSplash"/>
<polyline points="38.302,333.708 38.552,333.724 38.424,333.958 38.416,333.959 " name="Fjord-Rafting"/>
<polyline points="38.264,333.685 38.302,333.708 " name="Fjord-Rafting"/>
<polyline points="38.249,332.951 38.227,332.918 " name="Poseidon"/>
<polyline points="38.278,332.890 38.312,332.880 " name="Poseidon"/>
<polyline points="112.164,329.165 112.115,329.151 " name="Kanal"/>
<polyline points="112.201,329.171 112.164,329.165 " name="Kanal"/>
<polyline points="434.353,255.759 434.852,255.485 " name="Wassergraben Fischerbreite"/>
<polyline points="434.456,254.898 434.466,254.901 " name="Orstel"/>
<polyline points="167.153,74.839 166.918,74.750 " name="Neckarkanal"/>
<polyline points="167.304,74.815 166.895,74.658 " name="Neckarkanal"/>
<polyline points="167.168,74.807 166.934,74.719 " name="Neckarkanal"/>
<polyline points="167.573,74.974 167.153,74.839 " name="Neckarkanal"/>
<polyline points="166.918,74.750 166.710,74.649 " name="Neckarkanal"/>
<polyline points="166.895,74.658 166.437,74.547 " name="Neckarkanal"/>
<polyline points="166.934,74.719 166.710,74.649 166.437,74.547 164.062,73.900 163.972,73.919 " name="Neckarkanal"/>
<polyline points="187.222,83.398 186.972,83.404 " name="Neckarkanal"/>
<polyline points="187.226,83.447 186.971,83.454 " name="Neckarkanal"/>
<polyline points="186.972,83.404 186.930,83.406 186.712,83.426 " name="Neckarkanal"/>
<polyline points="186.971,83.454 186.712,83.426 185.960,83.484 " name="Neckarkanal"/>
<polyline points="272.907,161.996 272.262,161.395 272.708,160.751 272.849,160.705 " name="Neckar"/>
<polyline points="273.110,162.168 272.907,161.996 " name="Neckar"/>
<polyline points="273.082,162.191 272.880,162.020 " name="Neckar"/>
<polyline points="272.880,162.020 272.841,161.987 " name="Neckar"/>
<polyline points="271.292,176.132 271.508,176.028 " name="Neckar"/>
<polyline points="271.739,175.891 271.912,175.765 " name="Neckar"/>
<polyline points="271.508,176.028 271.739,175.891 " name="Neckar"/>
<polyline points="271.486,175.996 271.719,175.861 " name="Neckar"/>
<polyline points="271.719,175.861 271.912,175.765 272.149,175.594 " name="Neckar"/>
</g></svg>
